<svg width="39" height="39" viewBox="0 0 39 39" fill="none" xmlns="http://www.w3.org/2000/svg">
<g clip-path="url(#clip0_12_6352)">
<path d="M9.68066 0.766357H29.8682C34.6489 0.766357 38.5244 4.64189 38.5244 9.42261V29.6101C38.5244 34.3908 34.6489 38.2664 29.8682 38.2664H9.68066C4.89995 38.2664 1.02441 34.3908 1.02441 29.6101V9.42261C1.02441 4.64189 4.89995 0.766357 9.68066 0.766357Z" fill="#330000" stroke="#4E0101" stroke-width="0.5"/>
<path d="M19.1414 23.1283H13.2514L12.0481 26.8492C12.0164 26.9917 11.8898 27.0867 11.7473 27.0708H8.77057C8.59645 27.0708 8.54895 26.9758 8.59645 26.7858L13.6948 12.1083C13.7423 11.9501 13.7898 11.7758 13.8531 11.5858C13.9164 11.2533 13.9481 10.9051 13.9481 10.5567C13.9323 10.4776 13.9956 10.3983 14.0748 10.3826H18.1756C18.3023 10.3826 18.3656 10.4301 18.3814 10.5092L24.1606 26.8176C24.2081 26.9917 24.1606 27.0708 24.0023 27.0708H20.6931C20.5823 27.0867 20.4714 27.0076 20.4398 26.8967L19.1414 23.1283ZM14.1698 19.9142H18.1914C18.0964 19.5817 17.9698 19.1858 17.8273 18.7742C17.6848 18.3467 17.5423 17.8876 17.3998 17.4126C17.2414 16.9217 17.0989 16.4467 16.9406 15.9558C16.7823 15.4651 16.6398 15.0058 16.5131 14.5467C16.3864 14.1035 16.2756 13.6917 16.1648 13.3117H16.1331C15.9906 13.9926 15.8164 14.6735 15.5948 15.3542C15.3573 16.1142 15.1198 16.9058 14.8664 17.6976C14.662 18.4449 14.4296 19.1843 14.1698 19.9142ZM27.6914 13.1533C27.1689 13.1692 26.6623 12.9633 26.2823 12.5992C25.9182 12.2033 25.7282 11.6808 25.7439 11.1426C25.7282 10.6042 25.9339 10.0976 26.3139 9.73332C26.6939 9.3692 27.2007 9.1792 27.7232 9.1792C28.3407 9.1792 28.8157 9.3692 29.1639 9.73332C29.5148 10.1172 29.7023 10.6227 29.6864 11.1426C29.7023 11.6808 29.5123 12.2033 29.1323 12.5992C28.7682 12.9792 28.2298 13.1851 27.6914 13.1533ZM25.9182 26.8967V14.7051C25.9182 14.5467 25.9814 14.4833 26.1239 14.4833H29.2589C29.4014 14.4833 29.4648 14.5626 29.4648 14.7051V26.8967C29.4648 27.0708 29.4014 27.1501 29.2589 27.1501H26.1557C25.9973 27.1501 25.9182 27.0551 25.9182 26.8967Z" fill="#FF9A00"/>
</g>
<defs>
<clipPath id="clip0_12_6352">
<rect width="38" height="38" fill="white" transform="translate(0.776367 0.516357)"/>
</clipPath>
</defs>
</svg>
