<svg width="35" height="36" viewBox="0 0 35 36" fill="none" xmlns="http://www.w3.org/2000/svg">
<path d="M6.09423 25.2734C4.60955 25.2742 3.40315 24.0662 3.40288 22.5818L3.40234 14.341C3.40181 12.8579 4.60794 11.6502 6.09074 11.6499C6.81164 11.6494 7.48668 11.929 7.99552 12.4373C8.50435 12.9456 8.78424 13.6217 8.78477 14.3404L8.78397 22.5815C8.78589 22.9348 8.71739 23.285 8.58248 23.6115C8.44756 23.938 8.24894 24.2344 7.9982 24.4833C7.74903 24.7346 7.45239 24.9339 7.12553 25.0695C6.79867 25.2051 6.44811 25.2744 6.09423 25.2734ZM6.09208 12.3729C5.00552 12.3724 4.12484 13.2552 4.12458 14.341L4.12592 22.581C4.12585 23.1031 4.33311 23.6039 4.70215 23.9733C5.07119 24.3427 5.57181 24.5505 6.09396 24.5509C6.35251 24.5509 6.60851 24.4999 6.84735 24.4009C7.08618 24.3018 7.30316 24.1567 7.48588 23.9738C7.6686 23.7909 7.81348 23.5737 7.91224 23.3348C8.01101 23.0959 8.06171 22.8398 8.06147 22.5812V14.3399C8.0609 13.818 7.85315 13.3177 7.48387 12.9488C7.1146 12.58 6.614 12.3729 6.09208 12.3729Z" fill="white"/>
<path d="M27.201 12.7806L26.4777 12.7803L8.75194 12.7827L8.02837 12.783L8.02783 12.0594C8.02622 9.08899 9.64441 6.32633 12.295 4.6942L11.2645 2.81302C11.1385 2.59265 11.1068 2.31357 11.1803 2.05835C11.2175 1.93105 11.2797 1.81242 11.3631 1.70937C11.4466 1.60631 11.5498 1.5209 11.6666 1.4581C11.811 1.37854 11.9733 1.33728 12.1382 1.33826C12.5033 1.33826 12.8376 1.53638 13.014 1.85648L14.0925 3.82131C15.2174 3.40939 16.4064 3.20017 17.6043 3.20336C18.8391 3.20282 20.0232 3.41166 21.1441 3.82291L22.221 1.85487C22.3068 1.69784 22.4333 1.56684 22.5872 1.47569C22.7412 1.38453 22.9169 1.33659 23.0958 1.33692C23.2605 1.33627 23.4227 1.37662 23.5679 1.45435C23.685 1.51707 23.7882 1.60267 23.8716 1.70606C23.9549 1.80944 24.0167 1.92851 24.0531 2.05621C24.0898 2.18211 24.1012 2.31404 24.0865 2.44436C24.0719 2.57468 24.0316 2.7008 23.9679 2.81543L22.9379 4.69554C25.5842 6.33116 27.2005 9.09167 27.2002 12.057L27.201 12.7806ZM21.961 4.97275L23.3344 2.46477C23.354 2.43327 23.367 2.3981 23.3726 2.3614C23.3781 2.32471 23.3762 2.28727 23.3668 2.25137C23.3574 2.21546 23.3408 2.18184 23.318 2.15256C23.2952 2.12328 23.2667 2.09896 23.2342 2.08107C23.2016 2.06318 23.1658 2.0521 23.1289 2.04851C23.0919 2.04492 23.0547 2.0489 23.0193 2.06019C22.984 2.07149 22.9513 2.08987 22.9233 2.11421C22.8953 2.13855 22.8725 2.16835 22.8564 2.20178L21.4688 4.73522C20.3015 4.21674 18.9946 3.92532 17.6131 3.92666C16.2346 3.92532 14.9301 4.21566 13.7663 4.73227L12.3773 2.20446C12.3603 2.17289 12.3373 2.14501 12.3094 2.12243C12.2816 2.09986 12.2495 2.08303 12.2152 2.07293C12.1808 2.06283 12.1447 2.05966 12.1091 2.0636C12.0735 2.06754 12.039 2.07851 12.0076 2.09588C11.8744 2.16719 11.8253 2.33475 11.8996 2.46558L13.2735 4.97168C10.5739 6.36413 8.7498 9.01554 8.75141 12.0597L26.4769 12.0575C26.4777 9.01446 24.6569 6.36842 21.961 4.97275ZM13.5816 8.84852C13.3844 8.84841 13.1954 8.77 13.0561 8.63053C12.9168 8.49106 12.8386 8.30197 12.8387 8.10484C12.8388 7.90771 12.9172 7.71869 13.0567 7.57938C13.1961 7.44006 13.3852 7.36185 13.5824 7.36196C13.7795 7.36231 13.9685 7.44077 14.1079 7.58015C14.2474 7.71954 14.3259 7.90849 14.3263 8.10564C14.326 8.3029 14.2474 8.49197 14.1078 8.63128C13.9681 8.77059 13.7788 8.84873 13.5816 8.84852ZM21.6529 8.84691C21.5553 8.84708 21.4586 8.82799 21.3684 8.79072C21.2782 8.75346 21.1962 8.69875 21.1272 8.62973C21.0581 8.56072 21.0034 8.47876 20.9661 8.38855C20.9288 8.29834 20.9097 8.20165 20.9098 8.10403C20.9106 7.907 20.9892 7.71826 21.1284 7.57882C21.2676 7.43937 21.4562 7.36048 21.6532 7.35928C21.85 7.3609 22.0382 7.44002 22.1771 7.57947C22.3159 7.71893 22.3942 7.9075 22.395 8.1043C22.395 8.30116 22.3168 8.48996 22.1777 8.62921C22.0385 8.76846 21.8498 8.84677 21.6529 8.84691ZM14.3244 34.6652C12.8411 34.665 11.6339 33.4586 11.6336 31.9742L11.6331 28.337L10.9259 28.3378C10.5549 28.3391 10.1874 28.2668 9.84464 28.1249C9.50188 27.9831 9.19069 27.7746 8.92915 27.5116C8.66579 27.25 8.45709 26.9387 8.3152 26.5957C8.1733 26.2527 8.10104 25.8849 8.10263 25.5138L8.09995 12.7455V12.0214H8.82352L26.4163 12.0187L27.1402 12.0181V12.7417L27.1421 25.5116C27.1423 27.0689 25.8753 28.3362 24.3185 28.3359L23.607 28.3365L23.6078 31.9723C23.6078 33.4559 22.4009 34.6636 20.9181 34.6636C20.5645 34.6653 20.2142 34.5966 19.8874 34.4614C19.5607 34.3262 19.2642 34.1273 19.0152 33.8763C18.764 33.6274 18.5648 33.331 18.4291 33.0044C18.2935 32.6778 18.2242 32.3275 18.2251 31.9739V28.3365H17.0158V31.9731C17.0153 33.457 15.8086 34.6655 14.3244 34.6652Z" fill="white"/>
<path d="M8.82646 25.5139C8.82586 25.7898 8.87974 26.0632 8.98501 26.3183C9.09029 26.5733 9.24488 26.8051 9.43993 27.0003C9.63497 27.1955 9.86663 27.3503 10.1216 27.4557C10.3766 27.5612 10.6499 27.6153 10.9259 27.6149H12.3556L12.3572 31.9751C12.3569 33.0609 13.2389 33.9432 14.3236 33.9434C14.5822 33.9434 14.8382 33.8923 15.077 33.7933C15.3158 33.6942 15.5328 33.5491 15.7155 33.3661C15.8982 33.1832 16.043 32.966 16.1417 32.7271C16.2405 32.4881 16.2912 32.2321 16.2909 31.9735L16.2911 27.6146L18.9476 27.6138L18.9474 31.9738C18.9484 33.0598 19.8315 33.9432 20.9159 33.941C22.0033 33.9418 22.8848 33.0585 22.8845 31.9722L22.8832 27.6133L24.3183 27.613C25.4761 27.6133 26.4179 26.6726 26.4179 25.512L26.4155 12.7416L8.82324 12.7448L8.82646 25.5139ZM29.1452 25.2699C27.6611 25.2702 26.4539 24.0641 26.4541 22.5794L26.452 14.3389C26.4525 12.8544 27.6579 11.647 29.1412 11.647C30.6264 11.6467 31.8344 12.8539 31.8342 14.3381L31.835 22.578C31.8352 24.0617 30.6291 25.2702 29.1452 25.2699ZM29.1425 12.3705C28.056 12.3695 27.1756 13.2518 27.1756 14.3389L27.1764 22.5791C27.1762 22.8376 27.227 23.0936 27.3259 23.3324C27.4248 23.5713 27.5698 23.7883 27.7526 23.9711C27.9354 24.1538 28.1524 24.2987 28.3913 24.3975C28.6302 24.4964 28.8862 24.5471 29.1447 24.5469C29.4031 24.5468 29.659 24.4958 29.8977 24.3969C30.1365 24.2979 30.3534 24.1529 30.536 23.9701C30.7187 23.7873 30.8636 23.5703 30.9624 23.3315C31.0612 23.0927 31.112 22.8367 31.1119 22.5783L31.1098 14.3383C31.1099 14.0799 31.0592 13.824 30.9604 13.5852C30.8616 13.3464 30.7167 13.1294 30.534 12.9467C30.3513 12.7639 30.1344 12.619 29.8956 12.5201C29.6569 12.4213 29.4009 12.3704 29.1425 12.3705Z" fill="white"/>
<path d="M6.09153 12.3726C5.00496 12.3721 4.12429 13.2549 4.12402 14.3407L4.12536 22.5807C4.12526 22.8392 4.1761 23.0952 4.27497 23.3341C4.37385 23.5729 4.51882 23.79 4.70162 23.9728C4.88441 24.1556 5.10143 24.3006 5.34029 24.3995C5.57915 24.4984 5.83515 24.5493 6.09368 24.5492C6.35219 24.5495 6.60821 24.4988 6.84709 24.4C7.08596 24.3011 7.30299 24.1562 7.48573 23.9733C7.66848 23.7905 7.81335 23.5734 7.91205 23.3344C8.01075 23.0955 8.06134 22.8394 8.06091 22.5809V14.3396C8.06035 13.8177 7.8526 13.3173 7.48332 12.9485C7.11404 12.5797 6.61345 12.3726 6.09153 12.3726ZM21.9603 4.97283L23.3337 2.46486C23.3687 2.40124 23.377 2.32634 23.3569 2.25658C23.3367 2.18683 23.2897 2.12791 23.2262 2.09275C23.1626 2.05818 23.0878 2.05025 23.0184 2.07071C22.9489 2.09116 22.8904 2.13833 22.8557 2.20186L21.4683 4.73611C20.3011 4.21655 18.9947 3.92541 17.6124 3.92675C16.2339 3.92541 14.928 4.21575 13.7656 4.73236L12.3766 2.20454C12.3597 2.17299 12.3366 2.14511 12.3088 2.12253C12.281 2.09995 12.249 2.08311 12.2146 2.07299C12.1803 2.06286 12.1442 2.05966 12.1086 2.06356C12.073 2.06745 12.0385 2.07838 12.0072 2.0957C11.9755 2.11262 11.9476 2.13568 11.9249 2.16354C11.9023 2.1914 11.8854 2.22349 11.8754 2.25794C11.8653 2.29239 11.8622 2.3285 11.8662 2.36417C11.8702 2.39984 11.8813 2.43434 11.8989 2.46566L13.2728 4.97203C10.5732 6.36422 8.7491 9.01562 8.75071 12.0598L26.4762 12.0576C26.477 9.01455 24.6562 6.36851 21.9603 4.97283ZM13.5809 8.8486C13.3837 8.84849 13.1947 8.77008 13.0554 8.63061C12.9161 8.49115 12.8379 8.30205 12.838 8.10492C12.8381 7.90779 12.9165 7.71878 13.056 7.57946C13.1954 7.44015 13.3845 7.36194 13.5817 7.36205C13.7788 7.3624 13.9678 7.44086 14.1072 7.58024C14.2467 7.71962 14.3252 7.90857 14.3256 8.10573C14.3253 8.30299 14.2467 8.49206 14.1071 8.63137C13.9674 8.77068 13.7781 8.84881 13.5809 8.8486ZM21.6522 8.84699C21.5546 8.84706 21.458 8.8279 21.3678 8.79059C21.2777 8.75329 21.1957 8.69858 21.1267 8.62958C21.0577 8.56059 21.0029 8.47867 20.9656 8.38851C20.9283 8.29834 20.9091 8.2017 20.9091 8.10412C20.9101 7.90715 20.9888 7.71854 21.1279 7.57913C21.2671 7.43973 21.4555 7.36077 21.6525 7.35936C21.8493 7.36099 22.0375 7.4401 22.1764 7.57956C22.3152 7.71902 22.3935 7.90759 22.3943 8.10438C22.3944 8.20189 22.3753 8.29846 22.338 8.38857C22.3008 8.47868 22.2462 8.56056 22.1772 8.62953C22.1083 8.6985 22.0265 8.75321 21.9364 8.79053C21.8463 8.82784 21.7497 8.84703 21.6522 8.84699ZM8.82309 12.7445L8.82604 25.5149C8.82565 25.7907 8.8797 26.0639 8.98508 26.3188C9.09047 26.5737 9.24512 26.8053 9.44017 27.0004C9.63523 27.1954 9.86685 27.35 10.1218 27.4554C10.3767 27.5607 10.6499 27.6147 10.9257 27.6143L12.3554 27.6149L12.357 31.9751C12.3568 33.0608 13.2393 33.9434 14.3235 33.9434C15.4109 33.9434 16.2918 33.06 16.2921 31.9737L16.291 27.6146L18.9475 27.6138L18.9486 31.9737C18.9486 33.0587 19.8314 33.9431 20.9158 33.941C22.0032 33.9418 22.8846 33.0584 22.8844 31.9721L22.883 27.6132L24.3178 27.6122C24.5937 27.6122 24.8668 27.5579 25.1217 27.4524C25.3765 27.3469 25.6081 27.1922 25.8032 26.9971C25.9983 26.8021 26.153 26.5706 26.2586 26.3158C26.3642 26.0609 26.4186 25.7878 26.4186 25.512L26.4162 12.7415L8.82309 12.7445ZM31.1104 14.3377C31.1104 14.0793 31.0595 13.8234 30.9605 13.5847C30.8616 13.346 30.7166 13.1291 30.5339 12.9464C30.3511 12.7637 30.1342 12.6188 29.8954 12.5199C29.6567 12.421 29.4008 12.3702 29.1424 12.3702C28.0558 12.3691 27.1754 13.2514 27.1754 14.3385L27.177 22.5791C27.1768 22.8375 27.2276 23.0934 27.3264 23.3322C27.4252 23.571 27.5702 23.788 27.7529 23.9707C27.9356 24.1534 28.1526 24.2983 28.3914 24.3972C28.6302 24.496 28.8861 24.5467 29.1445 24.5466C29.403 24.5466 29.6589 24.4957 29.8977 24.3968C30.1365 24.2978 30.3534 24.1528 30.5361 23.97C30.7188 23.7872 30.8637 23.5701 30.9625 23.3313C31.0612 23.0924 31.112 22.8365 31.1118 22.578L31.1104 14.3377Z" fill="#A4C439"/>
</svg>
