<svg width="31" height="31" viewBox="0 0 31 31" fill="none" xmlns="http://www.w3.org/2000/svg">
<g clip-path="url(#clip0_20_23856)">
<path d="M28.5225 22.7678C27.8316 24.2975 27.5012 24.9815 26.6138 26.3333C25.3741 28.2212 23.6236 30.5771 21.4596 30.5933C19.5347 30.6094 19.0379 29.3373 16.4255 29.3581C13.8132 29.3708 13.269 30.6164 11.3418 30.5967C9.17774 30.5771 7.5209 28.4546 6.28001 26.5702C2.81036 21.2842 2.4441 15.089 4.58851 11.7927C6.10554 9.4553 8.50646 8.08269 10.7606 8.08269C13.0564 8.08269 14.4995 9.34438 16.3978 9.34438C18.2395 9.34438 19.3614 8.07922 22.0165 8.07922C24.0246 8.07922 26.1482 9.17338 27.6652 11.0613C22.7016 13.7811 23.5081 20.8706 28.5225 22.7678ZM20.0015 5.96947C20.9674 4.72973 21.6999 2.98046 21.4342 1.19653C19.8582 1.30398 18.0154 2.31033 16.9385 3.61362C15.9634 4.80021 15.1546 6.56334 15.47 8.26871C17.1893 8.32417 18.9686 7.29933 20.0015 5.96947Z" fill="#B9B9B9"/>
</g>
<defs>
<clipPath id="clip0_20_23856">
<rect width="30.0403" height="30.0403" fill="white" transform="translate(0.869141 0.876465)"/>
</clipPath>
</defs>
</svg>
