<svg width="35" height="35" viewBox="0 0 35 35" fill="none" xmlns="http://www.w3.org/2000/svg">
<g clip-path="url(#clip0_19_3747)">
<path d="M26.5906 0.15332H8.19962C3.71856 0.15332 0.0859375 3.78594 0.0859375 8.267V26.658C0.0859375 31.1391 3.71856 34.7717 8.19962 34.7717H26.5906C31.0717 34.7717 34.7043 31.1391 34.7043 26.658V8.267C34.7043 3.78594 31.0717 0.15332 26.5906 0.15332Z" fill="#242938"/>
<path d="M11.545 15.2937C11.545 15.6228 11.5806 15.8896 11.6428 16.0854C11.7219 16.3056 11.8171 16.5197 11.9276 16.726C11.9721 16.7971 11.9898 16.8683 11.9898 16.9306C11.9898 17.0196 11.9364 17.1086 11.8208 17.1974L11.2603 17.5712C11.1802 17.6244 11.1001 17.6512 11.029 17.6512C10.94 17.6512 10.8511 17.6067 10.7621 17.5267C10.6422 17.3978 10.535 17.2578 10.4419 17.1086C10.3424 16.9376 10.2504 16.7625 10.166 16.5836C9.47214 17.4021 8.60019 17.8113 7.55041 17.8113C6.80314 17.8113 6.20706 17.5978 5.77108 17.1708C5.33524 16.7437 5.11279 16.1744 5.11279 15.4627C5.11279 14.7064 5.37973 14.0926 5.9224 13.63C6.46507 13.1673 7.1857 12.936 8.10201 12.936C8.40451 12.936 8.71594 12.9627 9.04509 13.0072C9.37423 13.0517 9.7123 13.1228 10.0682 13.2029V12.5534C10.0682 11.8773 9.92583 11.4057 9.6501 11.13C9.36531 10.8541 8.88498 10.7208 8.19991 10.7208C7.88848 10.7208 7.56826 10.7564 7.23912 10.8364C6.90984 10.9165 6.58962 11.0144 6.27819 11.1389C6.17704 11.1842 6.07306 11.2228 5.96689 11.2545C5.90469 11.2724 5.86006 11.2813 5.8245 11.2813C5.70009 11.2813 5.63761 11.1923 5.63761 11.0054V10.5695C5.63761 10.4272 5.65546 10.3204 5.69995 10.2582C5.74444 10.196 5.8245 10.1336 5.94904 10.0713C6.26047 9.91118 6.63411 9.77785 7.07008 9.67102C7.50592 9.55526 7.96854 9.50198 8.45793 9.50198C9.51663 9.50198 10.2905 9.74215 10.7889 10.2225C11.2781 10.7029 11.5272 11.4325 11.5272 12.4111V15.2937H11.545ZM7.93311 16.6459C8.22655 16.6459 8.52906 16.5925 8.84941 16.4857C9.16963 16.379 9.45429 16.1832 9.69459 15.9164C9.83685 15.7474 9.94368 15.5605 9.99696 15.3469C10.0504 15.1334 10.0859 14.8754 10.0859 14.573V14.1993C9.81617 14.1336 9.54294 14.0832 9.26754 14.0481C8.99013 14.0129 8.71079 13.995 8.43115 13.9947C7.83507 13.9947 7.39923 14.1104 7.10565 14.3506C6.81207 14.5907 6.66967 14.9288 6.66967 15.3737C6.66967 15.7918 6.7765 16.1031 6.99882 16.3167C7.21248 16.5391 7.52391 16.6459 7.93311 16.6459ZM15.0768 17.6067C14.9167 17.6067 14.8099 17.58 14.7387 17.5178C14.6676 17.4643 14.6053 17.3398 14.552 17.1708L12.4614 10.2937C12.4078 10.1158 12.3812 10.0002 12.3812 9.93782C12.3812 9.79556 12.4523 9.71537 12.5947 9.71537H13.4665C13.6355 9.71537 13.7513 9.74215 13.8135 9.80435C13.8846 9.85777 13.938 9.98231 13.9915 10.1513L15.486 16.0409L16.874 10.1513C16.9185 9.97339 16.9717 9.8579 17.043 9.80435C17.1141 9.75107 17.2387 9.71551 17.3988 9.71551H18.1105C18.2795 9.71551 18.3953 9.74215 18.4664 9.80435C18.5376 9.85777 18.5999 9.98231 18.6355 10.1513L20.0412 16.1121L21.5802 10.1513C21.6336 9.97339 21.6959 9.8579 21.7581 9.80435C21.8293 9.75107 21.945 9.71551 22.1051 9.71551H22.9325C23.0749 9.71551 23.1549 9.78664 23.1549 9.93782C23.1549 9.98245 23.146 10.0268 23.1371 10.0802C23.1283 10.1336 23.1104 10.2046 23.0749 10.3027L20.9308 17.1797C20.8774 17.3576 20.8151 17.4733 20.7439 17.5267C20.6728 17.58 20.557 17.6157 20.4059 17.6157H19.6407C19.4717 17.6157 19.3561 17.5889 19.285 17.5267C19.2137 17.4643 19.1515 17.3487 19.1159 17.1708L17.7369 11.4325L16.3669 17.1618C16.3224 17.3398 16.269 17.4554 16.1978 17.5178C16.1266 17.58 16.002 17.6067 15.8419 17.6067H15.0768ZM26.509 17.8469C26.0464 17.8469 25.5837 17.7935 25.1388 17.6868C24.6941 17.58 24.3471 17.4643 24.1157 17.3309C23.9734 17.2508 23.8755 17.1618 23.84 17.0818C23.8053 17.0033 23.7872 16.9185 23.7866 16.8327V16.379C23.7866 16.1921 23.8577 16.1031 23.9912 16.1031C24.0446 16.1031 24.098 16.1121 24.1513 16.1299C24.2047 16.1476 24.2847 16.1832 24.3737 16.2189C24.688 16.357 25.016 16.4614 25.3524 16.5302C25.7008 16.601 26.0555 16.6368 26.4111 16.637C26.9716 16.637 27.4074 16.5391 27.7099 16.3434C28.0124 16.1476 28.1725 15.863 28.1725 15.4983C28.1725 15.2492 28.0925 15.0444 27.9324 14.8754C27.7723 14.7064 27.4698 14.5552 27.0338 14.4128L25.7439 14.0125C25.0944 13.8079 24.6139 13.5054 24.3203 13.1051C24.0267 12.7136 23.8755 12.2775 23.8755 11.8151C23.8755 11.4414 23.9556 11.1123 24.1157 10.8275C24.2758 10.5428 24.4893 10.2937 24.7563 10.0981C25.0232 9.89333 25.3257 9.74215 25.6815 9.63532C26.0374 9.52849 26.4111 9.48413 26.8026 9.48413C26.9982 9.48413 27.2028 9.49306 27.3986 9.5197C27.6032 9.54634 27.79 9.5819 27.9769 9.6176C28.1548 9.66209 28.3239 9.70658 28.484 9.76C28.6441 9.81328 28.7686 9.86669 28.8576 9.92011C28.9822 9.99124 29.0711 10.0624 29.1246 10.1424C29.1778 10.2137 29.2046 10.3115 29.2046 10.4361V10.8543C29.2046 11.041 29.1335 11.1389 29 11.1389C28.9287 11.1389 28.8131 11.1034 28.6619 11.0321C28.1548 10.8008 27.5854 10.6852 26.9537 10.6852C26.4466 10.6852 26.0464 10.7653 25.7705 10.9343C25.4948 11.1034 25.3524 11.3614 25.3524 11.7261C25.3524 11.9752 25.4413 12.1887 25.6193 12.3577C25.7971 12.5268 26.1264 12.6958 26.598 12.847L27.8613 13.2473C28.5017 13.452 28.9644 13.7366 29.2402 14.1015C29.5159 14.4662 29.6494 14.8843 29.6494 15.3469C29.6494 15.7295 29.5693 16.0765 29.4181 16.379C29.258 16.6815 29.0445 16.9483 28.7686 17.1618C28.4929 17.3843 28.1636 17.5444 27.7812 17.6602C27.3808 17.7847 26.9627 17.8469 26.509 17.8469Z" fill="white"/>
<path fill-rule="evenodd" clip-rule="evenodd" d="M28.1902 22.1706C25.2632 24.3325 21.0107 25.4802 17.3541 25.4802C12.2298 25.4802 7.61227 23.5851 4.12487 20.4358C3.84901 20.1867 4.09823 19.8486 4.42738 20.0443C8.19956 22.2328 12.8525 23.5584 17.6655 23.5584C20.9128 23.5584 24.4803 22.8823 27.7631 21.4945C28.2524 21.272 28.6705 21.8147 28.1902 22.1706Z" fill="#FF9900"/>
<path fill-rule="evenodd" clip-rule="evenodd" d="M29.4097 20.7826C29.0361 20.3021 26.9365 20.5512 25.9845 20.6668C25.6999 20.7025 25.6554 20.4533 25.9134 20.2666C27.5859 19.0922 30.335 19.4303 30.6553 19.8217C30.9755 20.2221 30.5663 22.9711 29.0005 24.2878C28.7602 24.4924 28.529 24.3856 28.6357 24.1188C28.9916 23.2381 29.7834 21.254 29.4097 20.7826Z" fill="#FF9900"/>
</g>
<defs>
<clipPath id="clip0_19_3747">
<rect width="34.6184" height="34.6184" fill="white" transform="translate(0.0859375 0.15332)"/>
</clipPath>
</defs>
</svg>
