<svg width="41" height="25" viewBox="0 0 41 25" fill="none" xmlns="http://www.w3.org/2000/svg">
<g clip-path="url(#clip0_17_2518)">
<path d="M12.0425 9.18083C12.0425 9.67327 12.0959 10.0725 12.189 10.3652C12.3071 10.6946 12.4494 11.0148 12.6147 11.3233C12.6812 11.4297 12.7078 11.5361 12.7078 11.6294C12.7078 11.7623 12.628 11.8954 12.455 12.0286L11.6168 12.5874C11.497 12.6673 11.3772 12.7072 11.2707 12.7072C11.1377 12.7072 11.0046 12.6406 10.8715 12.5208C10.6922 12.3282 10.5318 12.1187 10.3925 11.8954C10.2594 11.6694 10.1263 11.4163 9.97999 11.1104C8.94206 12.3345 7.6379 12.9467 6.06782 12.9467C4.95014 12.9467 4.05851 12.6273 3.40643 11.9887C2.75451 11.3498 2.42188 10.4982 2.42188 9.43372C2.42188 8.30271 2.82107 7.38455 3.63279 6.6926C4.44436 6.00064 5.52232 5.65466 6.89289 5.65466C7.34529 5.65466 7.81104 5.69454 8.30332 5.7611C8.79576 5.82765 9.30138 5.93408 9.83369 6.05386V5.08248C9.83369 4.07108 9.62067 3.36594 9.20814 2.95341C8.78242 2.54087 8.06378 2.3412 7.03919 2.3412C6.57344 2.3412 6.0945 2.39457 5.60207 2.51434C5.10979 2.63396 4.6307 2.78042 4.16495 2.96675C3.95208 3.05984 3.79244 3.11305 3.6992 3.13974C3.60611 3.16643 3.53955 3.17961 3.48633 3.17961C3.3 3.17961 3.20692 3.0465 3.20692 2.76708V2.115C3.20692 1.90214 3.2336 1.74249 3.3 1.6494C3.36656 1.55616 3.48633 1.46307 3.67267 1.36998C4.13842 1.13044 4.69725 0.930763 5.34918 0.771118C6.00142 0.598129 6.69337 0.518385 7.4252 0.518385C9.00878 0.518385 10.1665 0.877548 10.9116 1.59619C11.6435 2.31467 12.0161 3.40582 12.0161 4.86962V9.18083H12.0425ZM6.64 11.2035C7.07922 11.2035 7.53163 11.1237 8.01056 10.9639C8.48966 10.8043 8.91553 10.5115 9.2747 10.1123C9.48771 9.8596 9.64736 9.58018 9.7271 9.26073C9.807 8.94144 9.86022 8.55544 9.86022 8.10303V7.54419C9.45668 7.44597 9.04795 7.37045 8.63596 7.31799C8.2211 7.2653 7.80335 7.23861 7.38517 7.23809C6.49354 7.23809 5.84161 7.41108 5.40255 7.7704C4.96333 8.12972 4.75047 8.63534 4.75047 9.30061C4.75047 9.926 4.91011 10.3918 5.24275 10.7112C5.5622 11.0438 6.02795 11.2035 6.64 11.2035ZM17.3252 12.6406C17.0857 12.6406 16.9261 12.6007 16.8196 12.5075C16.7132 12.4277 16.62 12.2414 16.5402 11.9887L13.4132 1.70262C13.3332 1.43639 13.2933 1.2634 13.2933 1.17031C13.2933 0.957449 13.3997 0.837519 13.6127 0.837519H14.9168C15.1695 0.837519 15.3426 0.877548 15.4357 0.970635C15.5421 1.05054 15.6221 1.23687 15.7018 1.4896L17.9373 10.2987L20.0132 1.4896C20.0797 1.22352 20.1596 1.05054 20.2659 0.970635C20.3725 0.890891 20.5588 0.837676 20.7984 0.837676H21.8628C22.1156 0.837676 22.2887 0.877548 22.395 0.970635C22.5016 1.05054 22.5946 1.23687 22.6479 1.4896L24.7504 10.4051L27.0523 1.4896C27.1321 1.22352 27.2253 1.05054 27.3184 0.970635C27.4248 0.890891 27.5978 0.837676 27.8374 0.837676H29.0748C29.2878 0.837676 29.4076 0.944106 29.4076 1.17031C29.4076 1.23687 29.3942 1.30343 29.3809 1.38317C29.3676 1.46307 29.341 1.5695 29.2878 1.71596L26.0808 12.0019C26.001 12.2681 25.908 12.4411 25.8014 12.5208C25.6949 12.6007 25.5219 12.6539 25.2959 12.6539H24.1515C23.8987 12.6539 23.7257 12.6141 23.6191 12.5208C23.5126 12.4277 23.4196 12.2548 23.3663 11.9887L21.3037 3.40582L19.2545 11.9752C19.1881 12.2414 19.1082 12.4144 19.0018 12.5075C18.8953 12.6007 18.709 12.6406 18.4696 12.6406H17.3252ZM34.4243 12.9999C33.7323 12.9999 33.0403 12.92 32.3751 12.7604C31.7097 12.6007 31.1908 12.4276 30.8449 12.2282C30.6319 12.1083 30.4854 11.9753 30.4323 11.8556C30.3805 11.7381 30.3533 11.6113 30.3524 11.4829V10.8043C30.3524 10.5249 30.4589 10.3918 30.6585 10.3918C30.74 10.3921 30.8209 10.4056 30.8981 10.4318C30.9778 10.4585 31.0976 10.5115 31.2307 10.5647C31.7007 10.7715 32.1913 10.9276 32.6944 11.0305C33.2156 11.1363 33.7461 11.1898 34.278 11.1901C35.1162 11.1901 35.7683 11.0438 36.2207 10.7511C36.6731 10.4583 36.9127 10.0326 36.9127 9.48694C36.9127 9.11443 36.7929 8.80833 36.5533 8.55544C36.3138 8.30271 35.8614 8.0765 35.2095 7.86349L33.2799 7.26478C32.3085 6.95867 31.59 6.50626 31.1508 5.9074C30.7118 5.32187 30.4856 4.66995 30.4856 3.978C30.4856 3.41916 30.6053 2.92672 30.8449 2.50084C31.0843 2.07512 31.4037 1.70262 31.8029 1.40986C32.2021 1.10375 32.6545 0.877548 33.1868 0.717903C33.719 0.558257 34.2778 0.491699 34.8633 0.491699C35.1561 0.491699 35.4622 0.505042 35.7549 0.544914C36.0611 0.584786 36.3405 0.638002 36.6199 0.691217C36.886 0.757775 37.1389 0.824333 37.3784 0.904234C37.618 0.983978 37.8041 1.06388 37.9372 1.14362C38.1236 1.25021 38.2565 1.35664 38.3364 1.47641C38.4163 1.58284 38.4562 1.72915 38.4562 1.91548V2.54087C38.4562 2.82029 38.3498 2.96675 38.1501 2.96675C38.0437 2.96675 37.8707 2.91338 37.6446 2.80695C36.886 2.46097 36.0344 2.28798 35.0897 2.28798C34.3312 2.28798 33.7323 2.40776 33.3198 2.66065C32.9074 2.91338 32.6944 3.29939 32.6944 3.84488C32.6944 4.21754 32.8275 4.53683 33.0936 4.78972C33.3598 5.04246 33.8521 5.29534 34.5574 5.52155L36.4469 6.12042C37.4049 6.42652 38.0969 6.85224 38.5094 7.39773C38.922 7.94339 39.1216 8.56878 39.1216 9.26073C39.1216 9.83292 39.0017 10.3519 38.7755 10.8043C38.5361 11.2567 38.2167 11.6559 37.8041 11.9753C37.3916 12.308 36.8993 12.5475 36.3271 12.7205C35.7283 12.9068 35.1029 12.9999 34.4243 12.9999Z" fill="#252F3E"/>
<path d="M36.9392 19.467C32.5614 22.7006 26.2007 24.4171 20.7318 24.4171C13.0671 24.4171 6.16104 21.5827 0.944863 16.8722C0.532328 16.4997 0.904834 15.994 1.39711 16.2867C7.03917 19.5602 13.9986 21.5429 21.1975 21.5429C26.0544 21.5429 31.3903 20.5316 36.3006 18.4558C37.0324 18.123 37.6578 18.9348 36.9392 19.467ZM38.7623 17.3911C38.2034 16.6727 35.063 17.0452 33.6392 17.2181C33.2133 17.2715 33.1468 16.8989 33.5328 16.6194C36.0343 14.8629 40.1462 15.3686 40.6251 15.954C41.1042 16.5529 40.492 20.6646 38.1501 22.634C37.7909 22.9401 37.4449 22.7805 37.6046 22.3813C38.1367 21.0638 39.3211 18.0964 38.7623 17.3911Z" fill="#FF9900"/>
</g>
<defs>
<clipPath id="clip0_17_2518">
<rect width="40.186" height="24.0174" fill="white" transform="translate(0.678711 0.478271)"/>
</clipPath>
</defs>
</svg>
