<svg width="25" height="25" viewBox="0 0 25 25" fill="none" xmlns="http://www.w3.org/2000/svg">
<path d="M7.4889 5.4541C8.1279 5.4541 8.7189 5.5041 9.2589 5.6521C9.7999 5.7511 10.2429 5.9491 10.6359 6.1961C11.0299 6.4431 11.3249 6.7901 11.5209 7.2351C11.7179 7.6801 11.8169 8.2251 11.8169 8.8181C11.8169 9.5111 11.6689 10.1041 11.3249 10.5491C11.0299 10.9951 10.5379 11.3901 9.9479 11.6871C10.7839 11.9351 11.4229 12.3801 11.8169 12.9731C12.2099 13.5671 12.4559 14.3091 12.4559 15.1501C12.4559 15.8431 12.3079 16.4361 12.0619 16.9311C11.8169 17.4261 11.4229 17.8711 10.9799 18.1681C10.4987 18.4865 9.96674 18.7205 9.4069 18.8601C8.8169 19.0091 8.2269 19.1081 7.6369 19.1081H1.0459V5.4541H7.4889ZM7.0949 10.9941C7.6359 10.9941 8.0789 10.8461 8.4229 10.5991C8.7669 10.3521 8.9149 9.9061 8.9149 9.3621C8.9149 9.0651 8.8649 8.7681 8.7669 8.5711C8.6689 8.3731 8.5209 8.2241 8.3249 8.0761C8.12441 7.96373 7.9089 7.88056 7.6849 7.8291C7.4389 7.7791 7.1939 7.7791 6.8979 7.7791H4.0459V10.9951L7.0949 10.9941ZM7.2429 16.8321C7.5379 16.8321 7.8329 16.7821 8.0789 16.7331C8.3249 16.6831 8.5709 16.5851 8.7669 16.4361C8.96728 16.2913 9.13492 16.106 9.2589 15.8921C9.3569 15.6451 9.4559 15.3481 9.4559 15.0021C9.4559 14.3091 9.2589 13.8141 8.8659 13.4681C8.4719 13.1711 7.9309 13.0231 7.2919 13.0231H4.0459V16.8331L7.2429 16.8321ZM16.7349 16.7821C17.1279 17.1781 17.7179 17.3761 18.5049 17.3761C19.0459 17.3761 19.5379 17.2281 19.9309 16.9811C20.3249 16.6841 20.5709 16.3871 20.6689 16.0901H23.0789C22.6849 17.2771 22.0949 18.1181 21.3089 18.6621C20.5209 19.1571 19.5869 19.4541 18.4559 19.4541C17.7323 19.4563 17.0147 19.322 16.3409 19.0581C15.7346 18.8307 15.1939 18.457 14.7669 17.9701C14.3102 17.5147 13.9726 16.9538 13.7839 16.3371C13.5379 15.6941 13.4389 15.0021 13.4389 14.2101C13.4389 13.4681 13.5379 12.7761 13.7839 12.1321C14.0207 11.5121 14.371 10.9417 14.8169 10.4501C15.2589 10.0051 15.7999 9.6101 16.3899 9.3621C17.0466 9.09816 17.7481 8.9637 18.4559 8.9661C19.2919 8.9661 20.0299 9.1151 20.6689 9.4611C21.3089 9.8071 21.7999 10.2031 22.1929 10.7971C22.5869 11.3411 22.8829 11.9841 23.0789 12.6771C23.1769 13.3691 23.2259 14.0621 23.1769 14.8531H16.0459C16.0459 15.6451 16.3409 16.3871 16.7349 16.7831M19.8329 11.5891C19.4889 11.2431 18.9479 11.0451 18.3079 11.0451C17.9326 11.0395 17.5615 11.1242 17.2259 11.2921C16.9309 11.4411 16.7349 11.6391 16.5379 11.8371C16.3569 12.0284 16.2371 12.2693 16.1939 12.5291C16.1439 12.7771 16.0949 12.9741 16.0949 13.1721H20.5209C20.4229 12.4301 20.1769 11.9361 19.8329 11.5891ZM15.5049 6.3941H21.0129V7.7301H15.5059L15.5049 6.3941Z" fill="white"/>
</svg>
