<svg width="33" height="33" viewBox="0 0 33 33" fill="none" xmlns="http://www.w3.org/2000/svg">
<g clip-path="url(#clip0_17_2559)">
<path d="M16.669 25.3292C21.5528 25.3292 25.5117 21.3701 25.5117 16.4863C25.5117 11.6025 21.5528 7.64331 16.669 7.64331C11.7852 7.64331 7.82617 11.6025 7.82617 16.4863C7.82617 21.3701 11.7852 25.3292 16.669 25.3292Z" fill="white"/>
<path d="M5.23223 12.141C4.57258 10.9983 3.7972 9.79908 2.90599 8.54321C1.5109 10.959 0.776415 13.6995 0.776367 16.4892C0.77632 19.2789 1.51072 22.0195 2.90572 24.4353C4.30073 26.8512 6.30717 28.8572 8.72332 30.2517C11.1395 31.6462 13.8802 32.38 16.6699 32.3794C18.1325 30.3279 19.1257 28.8486 19.6492 27.9419C20.6547 26.2002 21.9552 23.7066 23.5506 20.4612V20.4594C22.8536 21.6678 21.8507 22.6715 20.6427 23.3694C19.4348 24.0672 18.0644 24.4348 16.6693 24.435C15.2742 24.4352 13.9037 24.0681 12.6955 23.3706C11.4874 22.6731 10.4841 21.6697 9.78675 20.4615C7.61981 16.4203 6.10172 13.6468 5.23223 12.141Z" fill="#229342"/>
<path d="M16.6694 32.3791C18.7564 32.3794 20.8231 31.9685 22.7513 31.17C24.6795 30.3714 26.4315 29.2008 27.9073 27.725C29.383 26.2492 30.5535 24.4971 31.352 22.5689C32.1504 20.6406 32.5611 18.5739 32.5607 16.4869C32.5602 13.6971 31.8253 10.9567 30.4298 8.54106C27.4192 8.24432 25.1973 8.09595 23.7642 8.09595C22.1392 8.09595 19.7738 8.24432 16.6682 8.54106L16.6665 8.5423C18.0616 8.54165 19.4323 8.90834 20.6407 9.6055C21.8491 10.3027 22.8526 11.3057 23.5504 12.5138C24.2481 13.7219 24.6154 15.0924 24.6154 16.4875C24.6154 17.8826 24.248 19.2531 23.5502 20.4612L16.6694 32.3791Z" fill="#FBC116"/>
<path d="M16.6691 22.779C20.1435 22.779 22.9601 19.9625 22.9601 16.4879C22.9601 13.0132 20.1435 10.1968 16.6689 10.1968C13.1946 10.1968 10.3779 13.0134 10.3779 16.4879C10.3779 19.9624 13.1946 22.779 16.6691 22.779Z" fill="#1A73E8"/>
<path d="M16.669 8.54143H30.4304C29.0359 6.12524 27.0299 4.11879 24.614 2.72382C22.1981 1.32885 19.4575 0.594538 16.6678 0.594727C13.8781 0.594915 11.1376 1.3296 8.72187 2.72489C6.30616 4.12019 4.30039 6.12692 2.90625 8.5433L9.78701 20.4613L9.78887 20.4623C9.09079 19.2544 8.72306 17.884 8.72265 16.4889C8.72224 15.0939 9.08917 13.7232 9.78654 12.515C10.4839 11.3067 11.4871 10.3033 12.6953 9.60577C13.9035 8.90823 15.274 8.5411 16.6691 8.54131L16.669 8.54143Z" fill="#E33B2E"/>
</g>
<defs>
<clipPath id="clip0_17_2559">
<rect width="31.7847" height="31.7847" fill="white" transform="translate(0.776367 0.594727)"/>
</clipPath>
</defs>
</svg>
