<svg width="39" height="39" viewBox="0 0 39 39" fill="none" xmlns="http://www.w3.org/2000/svg">
<g clip-path="url(#clip0_12_6558)">
<path d="M7.50563 0.91333H32.0471C35.7681 0.91333 38.7764 3.9987 38.7764 7.81514V32.0115C38.7764 35.828 35.7681 38.9133 32.0471 38.9133H7.50563C3.7846 38.9133 0.776367 35.828 0.776367 32.0115V7.81514C0.776367 3.9987 3.7846 0.91333 7.50563 0.91333Z" fill="#F6F6F6"/>
<g clip-path="url(#clip1_12_6558)">
<path d="M6.51834 27.3104C6.22366 27.7911 5.89247 28.349 5.6113 28.7935C5.49032 28.998 5.45437 29.2417 5.51119 29.4724C5.568 29.7031 5.71304 29.9023 5.91513 30.0272L11.8113 33.6556C11.9138 33.7189 12.0278 33.7611 12.1468 33.7799C12.2657 33.7986 12.3872 33.7935 12.5042 33.7648C12.6211 33.7361 12.7312 33.6844 12.828 33.6127C12.9247 33.541 13.0062 33.4507 13.0677 33.3472C13.3036 32.9525 13.6074 32.4401 13.9385 31.8912C16.2743 28.036 18.6237 28.5078 22.8599 30.5306L28.7062 33.3108C28.8158 33.363 28.9347 33.3926 29.056 33.398C29.1772 33.4033 29.2983 33.3843 29.4121 33.342C29.5259 33.2997 29.63 33.235 29.7183 33.1518C29.8066 33.0685 29.8773 32.9684 29.9262 32.8573L32.7337 26.5076C32.8291 26.2896 32.835 26.0429 32.7501 25.8206C32.6653 25.5984 32.4965 25.4183 32.2802 25.3193C31.0466 24.7387 28.5929 23.5822 26.384 22.5163C18.4378 18.6566 11.6843 18.906 6.51834 27.3104Z" fill="url(#paint0_linear_12_6558)"/>
<path d="M32.9565 12.9001C33.2513 12.4193 33.5824 11.8615 33.8637 11.417C33.9847 11.2125 34.0206 10.9687 33.9638 10.7381C33.9069 10.5074 33.7619 10.3082 33.5597 10.1833L27.6635 6.55484C27.5603 6.48533 27.4439 6.4378 27.3215 6.41521C27.1991 6.39263 27.0734 6.39546 26.9522 6.42354C26.8309 6.45162 26.7168 6.50434 26.6168 6.57843C26.5168 6.65252 26.4331 6.7464 26.371 6.85421C26.1351 7.24879 25.8313 7.76136 25.5001 8.31009C23.1643 12.1653 20.8149 11.6937 16.5787 9.67076L10.7506 6.9041C10.641 6.85195 10.5221 6.82232 10.4008 6.81696C10.2796 6.81161 10.1585 6.83064 10.0447 6.87293C9.93094 6.91522 9.82682 6.9799 9.73851 7.06316C9.65019 7.14642 9.57949 7.24655 9.53057 7.35762L6.72295 13.7075C6.62765 13.9254 6.62178 14.1721 6.70661 14.3943C6.79144 14.6166 6.96017 14.7966 7.17647 14.8957C8.41011 15.4763 10.8639 16.6328 13.0727 17.6987C21.037 21.5539 27.7905 21.2954 32.9564 12.9001" fill="url(#paint1_linear_12_6558)"/>
</g>
</g>
<defs>
<linearGradient id="paint0_linear_12_6558" x1="2714.47" y1="1561.47" x2="2054.18" y2="46.7033" gradientUnits="userSpaceOnUse">
<stop offset="0.18" stop-color="#0052CC"/>
<stop offset="1" stop-color="#2684FF"/>
</linearGradient>
<linearGradient id="paint1_linear_12_6558" x1="31.9667" y1="-165.892" x2="693.299" y2="1349.61" gradientUnits="userSpaceOnUse">
<stop offset="0.18" stop-color="#0052CC"/>
<stop offset="1" stop-color="#2684FF"/>
</linearGradient>
<clipPath id="clip0_12_6558">
<rect width="38" height="38" fill="white" transform="translate(0.776367 0.91333)"/>
</clipPath>
<clipPath id="clip1_12_6558">
<rect width="28.5752" height="27.459" fill="white" transform="translate(5.48486 6.40015)"/>
</clipPath>
</defs>
</svg>
