<svg width="28" height="39" viewBox="0 0 28 39" fill="none" xmlns="http://www.w3.org/2000/svg">
<path d="M13.5462 37.3105L2.86834 34.3463L0.48877 7.65723H26.6356L24.2536 34.3422L13.5462 37.3105Z" fill="#264DE4"/>
<path d="M22.2141 32.6434L24.2496 9.83984H13.562V35.042L22.2141 32.6434Z" fill="#2965F1"/>
<path d="M5.94354 19.7385L6.23687 23.0118H13.5619V19.7385H5.94354ZM5.354 13.1133L5.65154 16.3866H13.5619V13.1133H5.354ZM13.5619 28.2396L13.5476 28.2434L9.90211 27.2591L9.66904 24.6485H6.38313L6.84168 29.7881L13.5468 31.6493L13.5619 31.6453V28.2396Z" fill="#EBEBEB"/>
<path d="M21.1596 19.7385L21.7505 13.1133H13.5509V16.3866H18.1632L17.8654 19.7385H13.5509V23.0118H17.5816L17.2016 27.257L13.5508 28.2424V31.6478L20.2613 29.7881L20.3105 29.235L21.0798 20.6175L21.1596 19.7385Z" fill="white"/>
<path d="M6.94238 0.404297H10.8363V2.03274H8.57082V3.66118H10.8365V5.28952H6.94238V0.404297ZM11.6152 0.404297H15.5092V1.82032H13.2436V2.10351H15.5092V5.36039H11.6153V3.87339H13.8809V3.59021H11.6151L11.6152 0.404297ZM16.2881 0.404297H20.1821V1.82032H17.9165V2.10351H20.1821V5.36039H16.2881V3.87339H18.5537V3.59021H16.2882L16.2881 0.404297Z" fill="black"/>
</svg>
