<svg width="1440" height="42" viewBox="0 0 1440 42" fill="none" xmlns="http://www.w3.org/2000/svg">
<path opacity="0.2" d="M1072.64 1.6769L1072.74 1.18538L1072.64 1.6769ZM1060.18 2.61589L1060.06 2.13025V2.13024L1060.18 2.61589ZM1083.15 7.0229L1083.46 6.63326L1083.15 7.0229ZM1092.28 23.6448L1092.77 23.586L1092.28 23.6448ZM1091.17 29.861L1091.35 30.3296L1090.14 30.7794L1090.73 29.6327L1091.17 29.861ZM1093.77 28.9248L1093.6 28.4527L1093.77 28.9248ZM1115.73 24.2426L1115.76 24.7418L1115.76 24.7418L1115.73 24.2426ZM1115.75 24.2418L1115.72 23.7426L1115.73 23.7418H1115.75V24.2418ZM1277.96 22.8064L1277.96 22.3065L1277.96 22.3065L1277.96 22.8064ZM1277.97 22.8064L1277.98 23.3063L1277.97 23.3064L1277.97 22.8064ZM1277.97 22.8064L1277.96 22.3065L1277.96 22.3064L1277.97 22.8064ZM1277.98 23.8064L1277.98 24.3063L1277.98 24.3063L1277.98 23.8064ZM1277.97 23.8064L1277.98 24.3064H1277.97V23.8064ZM1277.97 23.8064L1277.97 23.3064H1277.97V23.8064ZM1115.77 25.2418L1115.75 24.7426L1115.76 24.7418H1115.77V25.2418ZM1094.09 29.8689L1094.26 30.341H1094.26L1094.09 29.8689ZM1090.34 31.2437L1089.93 30.9584L1090.02 30.8316L1090.16 30.7766L1090.34 31.2437ZM1084 36.6692L1083.76 36.2327L1084 36.6692ZM1069.26 40.8426L1069.26 40.3426L1069.26 40.8426ZM1059.33 39.8331L1059.21 40.3169L1059.33 39.8331ZM1047.69 34.9473L1047.45 35.3897L1047.45 35.3897L1047.69 34.9473ZM1047.67 34.9401L1047.44 35.3825L1047.43 35.3753L1047.41 35.3673L1047.67 34.9401ZM1047.66 34.932L1047.92 34.5048L1047.92 34.5049L1047.66 34.932ZM1040.22 29.8721L1039.92 30.2709V30.2709L1040.22 29.8721ZM1040.09 29.7777L1039.79 30.1764L1039.79 30.1764L1040.09 29.7777ZM1035.48 26.7597L1035.25 27.2054L1035.48 26.7597ZM1029.59 25.6599L1029.57 26.1598L1029.57 26.1598L1029.59 25.6599ZM1029.31 25.6536L1029.3 26.1535L1029.3 26.1535L1029.31 25.6536ZM1012.16 25.4817L1012.16 24.9817H1012.16L1012.16 25.4817ZM1011.35 25.4793L1011.35 24.9793L1011.35 25.4793ZM994.991 25.3395L994.982 25.8394L994.991 25.3395ZM953.313 24.9198L953.315 24.4198L953.313 24.9198ZM901.133 24.2517L901.119 24.7515L901.133 24.2517ZM895.036 23.9714L894.997 24.4699L895.036 23.9714ZM892.347 23.5956L892.496 23.1183L892.496 23.1183L892.347 23.5956ZM892.01 23.455L892.26 23.0218L892.26 23.0219L892.01 23.455ZM891.707 23.1517L892.151 22.9234L892.152 22.9235L891.707 23.1517ZM891.703 22.6041L891.254 22.3847V22.3846L891.703 22.6041ZM891.938 22.327L892.244 22.7227L892.244 22.7227L891.938 22.327ZM892.433 22.0595L892.239 21.5985L892.239 21.5985L892.433 22.0595ZM892.587 21.9972L892.623 21.4985L892.768 22.4632L892.587 21.9972ZM891.207 21.927L891.225 21.4273L891.207 21.927ZM885.953 21.85L885.911 21.3518L885.933 21.35L885.954 21.35L885.953 21.85ZM885.911 21.8518V22.3518V21.8518ZM678.506 21.8518L678.328 21.3847L678.414 21.3518H678.506V21.8518ZM663.999 21.8228L663.996 22.3228L663.994 22.3227L663.999 21.8228ZM663.998 21.8228L664.001 21.3228L664.004 21.3228L663.998 21.8228ZM663.997 21.8227L664 21.3228L664 21.3228L663.997 21.8227ZM609.43 21.6213L609.431 21.1213L609.43 21.6213ZM565.586 21.7354L565.591 22.2354L565.586 21.7354ZM560.441 21.7901L560.034 22.0805L559.479 21.3019L560.435 21.2901L560.441 21.7901ZM564.693 35.1474L564.194 35.1296V35.1296L564.693 35.1474ZM563.537 38.7971L563.142 38.4914L563.142 38.4914L563.537 38.7971ZM560.713 40.5786L560.586 40.0951L560.713 40.5786ZM552.551 39.8152L552.699 39.3376L552.551 39.8152ZM543.755 35.9101L543.507 36.3442V36.3442L543.755 35.9101ZM537.61 31.4746L537.971 31.1296V31.1296L537.61 31.4746ZM534.958 28.0342L534.519 28.2741L534.519 28.2741L534.958 28.0342ZM534.245 24.9625L534.737 25.0479V25.0479L534.245 24.9625ZM536.104 22.5999L536.348 23.0367L536.104 22.5999ZM540.526 21.4105L540.583 21.9074L540.526 21.4105ZM558.429 20.8162L558.813 20.4969L559.482 21.3017L558.436 21.3162L558.429 20.8162ZM546.761 12.0275L546.55 12.4809L546.761 12.0275ZM510.772 9.45681L510.85 9.9507L510.772 9.45681ZM485.215 17.2515L485.397 17.7174V17.7174L485.215 17.2515ZM483.488 17.9254L483.67 18.3912V18.3912L483.488 17.9254ZM483.427 17.9495L483.245 17.4838L483.245 17.4838L483.427 17.9495ZM459.521 25.8407L459.416 25.3518L459.521 25.8407ZM381.818 30.8586L381.818 30.3586H381.818L381.818 30.8586ZM381.815 30.8586L381.816 31.3586H381.815L381.815 30.8586ZM313.832 29.6288L313.86 29.1296L313.832 29.6288ZM284.507 26.0764L284.428 26.5701L284.507 26.0764ZM280.208 25.3832L280.287 24.8894L280.288 24.8896L280.208 25.3832ZM280.199 25.3817L280.12 25.8754L280.119 25.8752L280.199 25.3817ZM255.364 21.8492L255.313 22.3465V22.3465L255.364 21.8492ZM204.701 20.6565L204.693 20.1566L204.701 20.6565ZM163.17 20.6486L163.177 20.1486L163.17 20.6486ZM122.705 20.8515L122.688 20.3518L122.705 20.8515ZM122.671 19.8521L122.654 19.3524L122.671 19.8521ZM163.214 19.6489L163.207 20.1489L163.214 19.6489ZM204.631 19.657L204.624 19.1571L204.631 19.657ZM255.467 20.8545L255.519 20.3571V20.3571L255.467 20.8545ZM280.364 24.3953L280.286 24.8892L280.284 24.8889L280.364 24.3953ZM280.37 24.3962L280.448 23.9024L280.449 23.9027L280.37 24.3962ZM284.666 25.089L284.587 25.5827L284.666 25.089ZM313.888 28.6304L313.917 28.1312L313.888 28.6304ZM381.813 29.8586L381.813 30.3586L381.813 29.8586ZM459.311 24.863L459.206 24.3741L459.311 24.863ZM483.077 17.0124L483.276 17.4713L483.268 17.4749L483.259 17.4781L483.077 17.0124ZM483.078 17.0121L482.88 16.5532L482.888 16.5497L482.896 16.5464L483.078 17.0121ZM484.852 16.3197L485.034 16.7856L485.034 16.7856L484.852 16.3197ZM510.616 8.46905L510.694 8.96293V8.96293L510.616 8.46905ZM547.182 11.1206L546.971 11.574V11.574L547.182 11.1206ZM559.7 20.7993L559.706 21.2993L559.459 21.3024L559.306 21.1079L559.7 20.7993ZM565.577 20.7354L565.582 21.2354L565.577 20.7354ZM609.431 20.6213L609.431 21.1213L609.431 20.6213ZM663.994 20.8227L663.992 21.3227H663.992L663.994 20.8227ZM663.997 20.8227L663.999 20.3228H663.999L663.997 20.8227ZM678.015 20.8844L678.193 21.3516L678.107 21.3845L678.015 21.3844L678.015 20.8844ZM678.193 20.8518V20.3518V20.8518ZM885.096 20.8518L885.147 21.3492L885.121 21.3518H885.096V20.8518ZM891.243 20.9276L891.225 21.4273L891.243 20.9276ZM893.916 21.1499L894.022 20.6613L894.022 20.6613L893.916 21.1499ZM894.242 21.2481L894.438 20.7881L894.438 20.7881L894.242 21.2481ZM894.572 21.5065L894.156 21.7832V21.7832L894.572 21.5065ZM894.668 21.827L894.168 21.8227V21.8226L894.668 21.827ZM894.587 22.1166L895.018 22.3697L895.018 22.3699L894.587 22.1166ZM894.342 22.3643L894.065 21.948L894.065 21.948L894.342 22.3643ZM893.864 22.5945L893.682 22.1288V22.1288L893.864 22.5945ZM893.402 22.7636L893.235 22.2925L893.235 22.2924L893.402 22.7636ZM893.34 22.7856L893.265 23.2798L893.173 22.3145L893.34 22.7856ZM895.114 22.9744L895.153 22.476L895.114 22.9744ZM901.161 23.2521L901.174 22.7523L901.161 23.2521ZM953.291 23.9196L953.288 24.4196L953.291 23.9196ZM995.011 24.3397L995.001 24.8396L995.011 24.3397ZM1011.36 24.4793L1011.36 23.9793L1011.36 24.4793ZM1012.16 24.4817L1012.17 23.9817H1012.17L1012.16 24.4817ZM1029.34 24.6539L1029.32 25.1538L1029.32 25.1538L1029.34 24.6539ZM1029.66 24.6613L1029.65 25.1612L1029.65 25.1612L1029.66 24.6613ZM1035.93 25.8683L1035.7 26.314L1035.93 25.8683ZM1040.68 28.9702L1040.38 29.3689L1040.38 29.3689L1040.68 28.9702ZM1040.82 29.0745L1040.52 29.4733L1040.52 29.4733L1040.82 29.0745ZM1048.17 34.0695L1047.93 34.512L1047.92 34.5048L1047.91 34.4967L1048.17 34.0695ZM1059.59 38.8654L1059.46 39.3493L1059.59 38.8654ZM1069.25 39.8427L1069.24 39.3427L1069.25 39.8427ZM1083.51 35.7962L1083.76 36.2327L1083.51 35.7962ZM1088.5 31.9572L1088.32 31.4918L1088.87 32.2918L1088.5 31.9572ZM1086.16 32.8834L1086.35 33.3478L1086.35 33.3478L1086.16 32.8834ZM1086.04 32.9342L1085.85 32.4698V32.4698L1086.04 32.9342ZM1080.46 34.9866L1080.33 34.5048L1080.46 34.9866ZM1064.6 35.4912L1064.47 35.9743L1064.6 35.4912ZM1058.17 32.6833L1058.46 32.2791V32.2791L1058.17 32.6833ZM1052.74 26.5934L1052.32 26.8729V26.8729L1052.74 26.5934ZM1052.72 26.565L1052.31 26.8444L1052.29 26.816L1052.27 26.7852L1052.72 26.565ZM1052.7 26.5342L1052.26 26.7544V26.7544L1052.7 26.5342ZM1050.29 18.3122L1050.79 18.3107V18.3107L1050.29 18.3122ZM1050.77 13.4635L1051.25 13.5874L1051.25 13.6004L1051.24 13.6132L1050.77 13.4635ZM1060.13 2.63165L1060.3 3.10154V3.10154L1060.13 2.63165ZM1060.15 2.62236L1059.98 2.15246L1060.01 2.14318L1060.04 2.13671L1060.15 2.62236ZM1089.69 30.4227L1090.11 30.6969L1090.02 30.8318L1089.87 30.8896L1089.69 30.4227ZM1085.8 31.9526L1085.98 32.417V32.417L1085.8 31.9526ZM1091.28 23.7623L1091.78 23.7035L1091.28 23.7623ZM1082.52 7.80219L1082.84 7.41255L1082.52 7.80219ZM1072.46 2.65995L1072.37 3.15148V3.15148L1072.46 2.65995ZM1060.45 3.58069L1060.27 3.1111L1060.3 3.10158L1060.33 3.095L1060.45 3.58069ZM1051.73 13.7238L1052.22 13.8473L1052.22 13.8475L1051.73 13.7238ZM1051.73 13.7374L1052.21 13.8612L1052.21 13.8748L1052.2 13.8883L1051.73 13.7374ZM1051.72 13.7508L1051.25 13.6002L1051.25 13.5999L1051.72 13.7508ZM1051.29 18.3307L1051.79 18.3295V18.3307H1051.29ZM1051.29 18.3313L1050.79 18.3324V18.3313H1051.29ZM1053.59 26.0629L1053.17 26.3427L1053.15 26.314L1053.14 26.2829L1053.59 26.0629ZM1058.76 31.8748L1059.05 31.4705V31.4705L1058.76 31.8748ZM1064.86 34.525L1064.99 34.0419L1064.86 34.525ZM1080.2 34.0231L1080.33 34.5048L1080.2 34.0231ZM1085.67 32.0054L1085.85 32.4698L1085.85 32.4698L1085.67 32.0054ZM540.639 22.4042L540.695 22.9011L540.639 22.4042ZM559.212 21.8058L559.205 21.3058L559.459 21.3025L559.611 21.5048L559.212 21.8058ZM536.591 23.4736L536.348 23.0367L536.348 23.0367L536.591 23.4736ZM535.23 25.1333L534.737 25.0479V25.0479L535.23 25.1333ZM535.835 27.5544L536.274 27.3145L536.274 27.3146L535.835 27.5544ZM538.333 30.7846L537.971 31.1296V31.1296L538.333 30.7846ZM544.252 35.042L544.5 34.6079L544.252 35.042ZM552.847 38.86L552.995 38.3823L552.847 38.86ZM560.459 39.6116L560.586 40.0951V40.0951L560.459 39.6116ZM562.746 38.1857L563.142 38.4914L563.142 38.4914L562.746 38.1857ZM563.694 35.1118L564.194 35.1296V35.1296L563.694 35.1118ZM1072.55 2.16843C1069.06 1.51635 1065.23 1.89381 1060.3 3.10154L1060.06 2.13024C1065.05 0.908193 1069.04 0.495555 1072.74 1.18538L1072.55 2.16843ZM1082.84 7.41255C1079.22 4.50213 1076.05 2.82051 1072.55 2.16843L1072.74 1.18538C1076.45 1.87798 1079.77 3.6612 1083.46 6.63326L1082.84 7.41255ZM1091.78 23.7035C1091.22 18.9928 1088.73 12.1513 1082.84 7.41255L1083.46 6.63326C1089.61 11.5757 1092.19 18.6856 1092.77 23.586L1091.78 23.7035ZM1090.73 29.6327C1091.62 27.8933 1092.04 25.9238 1091.78 23.7035L1092.77 23.586C1093.06 26.0126 1092.6 28.1811 1091.62 30.0893L1090.73 29.6327ZM1093.93 29.3969C1093.04 29.7077 1092.18 30.0202 1091.35 30.3296L1091 29.3925C1091.83 29.081 1092.7 28.7661 1093.6 28.4527L1093.93 29.3969ZM1115.76 24.7418C1107.56 25.1948 1100.06 27.2581 1093.93 29.3969L1093.6 28.4527C1099.77 26.2976 1107.37 24.2034 1115.7 23.7434L1115.76 24.7418ZM1115.77 24.7411L1115.76 24.7418L1115.7 23.7434L1115.72 23.7426L1115.77 24.7411ZM1115.76 24.7418H1115.75V23.7418H1115.76V24.7418ZM1277.97 23.3064C1218.47 24.0241 1158.98 24.7418 1115.76 24.7418V23.7418C1158.97 23.7418 1218.46 23.0242 1277.96 22.3065L1277.97 23.3064ZM1277.97 23.3064L1277.97 23.3064L1277.96 22.3065L1277.96 22.3064L1277.97 23.3064ZM1277.98 23.3063L1277.98 23.3063L1277.96 22.3065L1277.96 22.3065L1277.98 23.3063ZM1440.18 21.8709C1396.96 21.8709 1337.47 22.5886 1277.97 23.3063L1277.96 22.3064C1337.45 21.5887 1396.96 20.8709 1440.18 20.8709V21.8709ZM1440.18 21.8709H1440.18V20.8709C1440.73 20.8709 1441.18 21.3187 1441.18 21.8709H1440.18ZM1440.18 21.8709H1440.18H1441.18C1441.18 22.4232 1440.73 22.8709 1440.18 22.8709V21.8709ZM1277.97 23.3064C1337.47 22.5887 1396.96 21.8709 1440.18 21.8709V22.8709C1396.97 22.8709 1337.48 23.5886 1277.98 24.3063L1277.97 23.3064ZM1277.97 23.3064L1277.97 23.3064L1277.98 24.3063L1277.98 24.3064L1277.97 23.3064ZM1277.97 23.3064H1277.97V24.3064H1277.97V23.3064ZM1115.77 24.7418C1158.99 24.7417 1218.48 24.0241 1277.97 23.3064L1277.98 24.3064C1218.49 25.024 1159 25.7417 1115.77 25.7418V24.7418ZM1093.93 29.3969C1100.05 27.2593 1107.55 25.1971 1115.75 24.7426L1115.8 25.7411C1107.73 26.1884 1100.34 28.2197 1094.26 30.341L1093.93 29.3969ZM1090.16 30.7766C1091.35 30.3235 1092.61 29.8585 1093.93 29.3969L1094.26 30.341C1092.95 30.7989 1091.7 31.2604 1090.52 31.7109L1090.16 30.7766ZM1083.76 36.2327C1086.23 34.8482 1088.45 33.0923 1089.93 30.9584L1090.75 31.5291C1089.15 33.8277 1086.8 35.6751 1084.24 37.1056L1083.76 36.2327ZM1069.26 40.3426C1072.9 40.2913 1078.87 38.9636 1083.76 36.2327L1084.24 37.1056C1079.21 39.9189 1073.08 41.2889 1069.27 41.3425L1069.26 40.3426ZM1059.46 39.3493C1062.69 40.1924 1065.64 40.3936 1069.26 40.3426L1069.27 41.3425C1065.6 41.3942 1062.56 41.1909 1059.21 40.3169L1059.46 39.3493ZM1047.92 34.5048C1052.7 37.0212 1056.23 38.5062 1059.46 39.3493L1059.21 40.3169C1055.87 39.4462 1052.27 37.9222 1047.45 35.3897L1047.92 34.5048ZM1047.91 34.4977L1047.92 34.5049L1047.45 35.3897L1047.44 35.3825L1047.91 34.4977ZM1047.92 34.5049L1047.93 34.5129L1047.41 35.3673L1047.4 35.3592L1047.92 34.5049ZM1040.52 29.4733C1042.14 30.7008 1044.2 32.2403 1047.92 34.5048L1047.4 35.3593C1043.64 33.0707 1041.55 31.5095 1039.92 30.2709L1040.52 29.4733ZM1040.39 29.3789L1040.52 29.4733L1039.92 30.2709L1039.79 30.1764L1040.39 29.3789ZM1035.7 26.314C1037.65 27.3042 1038.83 28.1982 1040.39 29.3789L1039.79 30.1764C1038.23 28.9982 1037.11 28.152 1035.25 27.2054L1035.7 26.314ZM1029.6 25.16C1032.01 25.215 1033.6 25.2459 1035.7 26.314L1035.25 27.2054C1033.38 26.2514 1032 26.2148 1029.57 26.1598L1029.6 25.16ZM1029.32 25.1538L1029.6 25.16L1029.57 26.1598L1029.3 26.1535L1029.32 25.1538ZM1012.16 24.9817C1017.88 24.9988 1023.6 25.0208 1029.32 25.1538L1029.3 26.1535C1023.59 26.0208 1017.88 25.9988 1012.16 25.9817L1012.16 24.9817ZM1011.35 24.9793L1012.16 24.9817L1012.16 25.9817L1011.35 25.9793L1011.35 24.9793ZM995.001 24.8396C1000.45 24.9473 1005.9 24.9633 1011.35 24.9793L1011.35 25.9793C1005.9 25.9633 1000.44 25.9473 994.982 25.8394L995.001 24.8396ZM953.315 24.4198C967.215 24.4925 981.116 24.5652 995.001 24.8396L994.982 25.8394C981.105 25.5651 967.211 25.4925 953.31 25.4198L953.315 24.4198ZM901.147 23.7519C918.524 24.238 935.919 24.3289 953.315 24.4198L953.31 25.4198C935.916 25.3289 918.509 25.2379 901.119 24.7515L901.147 23.7519ZM895.075 23.4729C896.453 23.5805 898.411 23.6754 901.147 23.7519L901.119 24.7515C898.377 24.6748 896.399 24.5793 894.997 24.4699L895.075 23.4729ZM892.496 23.1183C892.903 23.2453 893.698 23.3654 895.075 23.4729L894.997 24.4699C893.628 24.3629 892.727 24.2378 892.198 24.0729L892.496 23.1183ZM892.26 23.0219C892.316 23.0544 892.394 23.0865 892.496 23.1183L892.198 24.073C892.059 24.0295 891.905 23.9714 891.76 23.8881L892.26 23.0219ZM892.152 22.9235C892.168 22.9565 892.204 22.9893 892.26 23.0218L891.76 23.8881C891.631 23.8134 891.406 23.6601 891.262 23.3798L892.152 22.9235ZM892.152 22.8235C892.144 22.841 892.14 22.8588 892.139 22.8745C892.139 22.8886 892.142 22.9044 892.151 22.9234L891.262 23.38C891.085 23.0352 891.115 22.6682 891.254 22.3847L892.152 22.8235ZM892.244 22.7227C892.2 22.7561 892.169 22.7898 892.152 22.8236L891.254 22.3846C891.367 22.1517 891.536 22.0055 891.632 21.9313L892.244 22.7227ZM892.626 22.5204C892.467 22.5874 892.331 22.6551 892.244 22.7227L891.632 21.9314C891.829 21.7789 892.069 21.6701 892.239 21.5985L892.626 22.5204ZM892.768 22.4632C892.719 22.4824 892.671 22.5015 892.626 22.5205L892.239 21.5985C892.294 21.5755 892.35 21.5531 892.406 21.5313L892.768 22.4632ZM891.225 21.4273C891.786 21.4477 892.247 21.4717 892.623 21.4985L892.552 22.496C892.191 22.4703 891.742 22.4468 891.189 22.4267L891.225 21.4273ZM885.954 21.35C888.275 21.3551 889.985 21.3822 891.225 21.4273L891.189 22.4267C889.966 22.3822 888.268 22.355 885.952 22.35L885.954 21.35ZM885.911 21.3518L885.911 21.3518L885.996 22.3482C885.968 22.3506 885.939 22.3518 885.911 22.3518V21.3518ZM678.506 21.3518L885.911 21.3518V22.3518L678.506 22.3518V21.3518ZM678.328 21.3845L678.328 21.3847L678.685 22.3189C678.573 22.3615 678.453 22.3845 678.328 22.3845V21.3845ZM664.002 21.3228C671.071 21.3586 676.188 21.3845 678.328 21.3845V22.3845C676.184 22.3845 671.064 22.3586 663.996 22.3228L664.002 21.3228ZM664.004 21.3228L664.004 21.3228L663.994 22.3227L663.993 22.3227L664.004 21.3228ZM664 21.3228L664.001 21.3228L663.996 22.3227L663.995 22.3227L664 21.3228ZM609.431 21.1213C629.972 21.1502 650.528 21.2545 664 21.3228L663.995 22.3227C650.523 22.2544 629.969 22.1502 609.429 22.1213L609.431 21.1213ZM565.582 21.2354C578.103 21.1208 593.766 21.0992 609.431 21.1213L609.429 22.1213C593.765 22.0992 578.107 22.1208 565.591 22.2354L565.582 21.2354ZM560.435 21.2901C562.08 21.2699 563.799 21.2517 565.582 21.2354L565.591 22.2354C563.809 22.2517 562.091 22.2699 560.447 22.2901L560.435 21.2901ZM564.194 35.1296C564.366 30.3114 562.751 25.8887 560.034 22.0805L560.848 21.4997C563.67 25.455 565.374 30.09 565.193 35.1653L564.194 35.1296ZM563.142 38.4914C563.767 37.6821 564.142 36.5797 564.194 35.1296L565.193 35.1653C565.136 36.7687 564.716 38.0889 563.933 39.1028L563.142 38.4914ZM560.586 40.0951C561.64 39.8172 562.516 39.3008 563.142 38.4914L563.933 39.1028C563.147 40.1206 562.063 40.74 560.841 41.0621L560.586 40.0951ZM552.699 39.3376C555.655 40.2529 558.477 40.6509 560.586 40.0951L560.841 41.0621C558.453 41.6915 555.407 41.2229 552.403 40.2929L552.699 39.3376ZM544.003 35.4761C546.651 36.9896 549.742 38.4222 552.699 39.3376L552.403 40.2929C549.362 39.3513 546.203 37.8853 543.507 36.3442L544.003 35.4761ZM537.971 31.1296C539.153 32.3683 541.356 33.9626 544.003 35.4761L543.507 36.3442C540.828 34.8125 538.527 33.1616 537.248 31.8197L537.971 31.1296ZM535.397 27.7943C535.955 28.8161 536.833 29.936 537.971 31.1296L537.248 31.8197C536.079 30.5935 535.136 29.4022 534.519 28.2741L535.397 27.7943ZM534.737 25.0479C534.598 25.8489 534.838 26.7725 535.397 27.7943L534.519 28.2741C533.909 27.1581 533.558 25.9951 533.752 24.8772L534.737 25.0479ZM536.348 23.0367C535.393 23.5685 534.876 24.2472 534.737 25.0479L533.752 24.8772C533.955 23.7064 534.714 22.8019 535.861 22.1631L536.348 23.0367ZM540.583 21.9074C538.694 22.1206 537.302 22.5052 536.348 23.0367L535.861 22.1631C536.981 21.5395 538.522 21.1337 540.47 20.9137L540.583 21.9074ZM558.436 21.3162C549.532 21.4393 543.053 21.6285 540.583 21.9074L540.47 20.9137C543.002 20.6279 549.54 20.4391 558.422 20.3163L558.436 21.3162ZM546.971 11.574C551.491 13.674 555.69 16.7349 558.813 20.4969L558.044 21.1356C555.028 17.5028 550.954 14.5272 546.55 12.4809L546.971 11.574ZM510.694 8.96293C521.719 7.22215 536.571 6.74131 546.971 11.574L546.55 12.4809C536.433 7.77995 521.834 8.21633 510.85 9.9507L510.694 8.96293ZM485.034 16.7856C493.443 13.5097 501.86 10.3578 510.694 8.96293L510.85 9.9507C502.135 11.3266 493.812 14.4393 485.397 17.7174L485.034 16.7856ZM483.307 17.4597C483.882 17.2347 484.458 17.0098 485.034 16.7856L485.397 17.7174C484.822 17.9414 484.246 18.1662 483.67 18.3912L483.307 17.4597ZM483.245 17.4838L483.307 17.4597L483.67 18.3912L483.609 18.4153L483.245 17.4838ZM459.416 25.3518C467.595 23.5958 475.43 20.5366 483.245 17.4838L483.609 18.4152C475.806 21.463 467.897 24.5537 459.626 26.3295L459.416 25.3518ZM391.138 30.3518C414.422 30.3518 436.565 30.2576 459.416 25.3518L459.626 26.3295C436.656 31.2608 414.411 31.3518 391.138 31.3518V30.3518ZM381.818 30.3586C384.926 30.3552 388.032 30.3518 391.138 30.3518V31.3518C388.033 31.3518 384.927 31.3552 381.819 31.3586L381.818 30.3586ZM381.814 30.3586L381.818 30.3586L381.819 31.3586L381.816 31.3586L381.814 30.3586ZM313.86 29.1296C336.469 30.4076 359.163 30.3832 381.814 30.3586L381.815 31.3586C359.169 31.3831 336.446 31.408 313.804 30.128L313.86 29.1296ZM284.586 25.5827C294.28 27.1342 303.99 28.5716 313.86 29.1296L313.804 30.128C303.878 29.5669 294.125 28.1221 284.428 26.5701L284.586 25.5827ZM280.288 24.8896C281.721 25.1214 283.153 25.3533 284.586 25.5827L284.428 26.5701C282.994 26.3405 281.561 26.1086 280.128 25.8768L280.288 24.8896ZM280.277 24.8879L280.287 24.8894L280.13 25.877L280.12 25.8754L280.277 24.8879ZM255.416 21.3518C263.767 22.2158 272.024 23.5522 280.279 24.8881L280.119 25.8752C271.86 24.5386 263.631 23.207 255.313 22.3465L255.416 21.3518ZM204.693 20.1566C221.624 19.8891 238.667 19.6192 255.416 21.3518L255.313 22.3465C238.634 20.6211 221.65 20.8888 204.709 21.1565L204.693 20.1566ZM186.194 20.3518C192.335 20.3518 198.507 20.2543 204.693 20.1566L204.709 21.1565C198.524 21.2542 192.345 21.3518 186.194 21.3518V20.3518ZM163.177 20.1486C170.156 20.2475 177.522 20.3518 186.194 20.3518V21.3518C177.514 21.3518 170.141 21.2474 163.163 21.1485L163.177 20.1486ZM122.688 20.3518C138.704 19.8019 150.277 19.9659 163.177 20.1486L163.163 21.1485C150.264 20.9658 138.712 20.8022 122.723 21.3512L122.688 20.3518ZM0.0145264 21.7053C35.9725 21.7053 86.7642 21.5853 122.688 20.3518L122.723 21.3512C86.7783 22.5854 35.9696 22.7053 0.0145264 22.7053V21.7053ZM0.0145264 21.7053V22.7053C-0.53772 22.7053 -0.985474 22.2576 -0.985474 21.7053H0.0145264ZM0.0145264 21.7053H-0.985474C-0.985474 21.153 -0.53772 20.7053 0.0145264 20.7053V21.7053ZM122.688 20.3518C86.764 21.5853 35.9727 21.7053 0.0145264 21.7053V20.7053C35.9756 20.7053 86.7499 20.5852 122.654 19.3524L122.688 20.3518ZM163.207 20.1489C150.291 19.9661 138.7 19.8021 122.688 20.3518L122.654 19.3524C138.692 18.8018 150.304 18.9662 163.221 19.149L163.207 20.1489ZM186.194 20.3518C177.544 20.3518 170.182 20.2476 163.207 20.1489L163.221 19.149C170.197 19.2477 177.552 19.3518 186.194 19.3518V20.3518ZM204.639 20.157C198.467 20.2545 192.309 20.3518 186.194 20.3518V19.3518C192.3 19.3518 198.45 19.2547 204.624 19.1571L204.639 20.157ZM255.416 21.3518C238.672 19.6198 221.6 19.889 204.639 20.157L204.624 19.1571C221.573 18.8892 238.706 18.6179 255.519 20.3571L255.416 21.3518ZM280.284 24.8889C272.026 23.5524 263.765 22.2155 255.416 21.3518L255.519 20.3571C263.901 21.2243 272.19 22.566 280.443 23.9017L280.284 24.8889ZM280.291 24.8901L280.286 24.8892L280.442 23.9015L280.448 23.9024L280.291 24.8901ZM284.587 25.5827C283.154 25.3535 281.722 25.1217 280.29 24.8898L280.449 23.9027C281.882 24.1345 283.313 24.3662 284.745 24.5953L284.587 25.5827ZM313.86 29.1296C303.99 28.5716 294.28 27.1342 284.587 25.5827L284.745 24.5953C294.435 26.1463 304.101 27.5763 313.917 28.1312L313.86 29.1296ZM381.813 30.3586C359.164 30.3831 336.471 30.4078 313.86 29.1296L313.917 28.1312C336.494 29.4075 359.158 29.3831 381.812 29.3586L381.813 30.3586ZM391.138 30.3518C388.031 30.3518 384.922 30.3552 381.813 30.3586L381.812 29.3586C384.921 29.3552 388.03 29.3518 391.138 29.3518V30.3518ZM459.416 25.3518C436.565 30.2576 414.422 30.3518 391.138 30.3518V29.3518C414.434 29.3518 436.474 29.2544 459.206 24.3741L459.416 25.3518ZM483.259 17.4781C475.441 20.5317 467.605 23.5938 459.416 25.3518L459.206 24.3741C467.303 22.6358 475.065 19.6053 482.896 16.5466L483.259 17.4781ZM483.276 17.4711L483.276 17.4713L482.879 16.5534L482.88 16.5532L483.276 17.4711ZM485.034 16.7856C484.442 17.016 483.851 17.2469 483.26 17.4779L482.896 16.5464C483.487 16.3155 484.079 16.0844 484.671 15.8538L485.034 16.7856ZM510.694 8.96293C501.86 10.3578 493.443 13.5097 485.034 16.7856L484.671 15.8538C493.075 12.5801 501.584 9.38895 510.538 7.97517L510.694 8.96293ZM546.971 11.574C536.571 6.74132 521.719 7.22215 510.694 8.96293L510.538 7.97517C521.603 6.22796 536.708 5.7027 547.393 10.6672L546.971 11.574ZM559.306 21.1079C556.126 17.053 551.702 13.7723 546.971 11.574L547.393 10.6672C552.244 12.9213 556.802 16.2936 560.093 20.4907L559.306 21.1079ZM565.582 21.2354C563.535 21.2541 561.572 21.2753 559.706 21.2993L559.693 20.2993C561.561 20.2754 563.525 20.2542 565.572 20.2354L565.582 21.2354ZM609.431 21.1213C593.766 21.0992 578.103 21.1208 565.582 21.2354L565.572 20.2354C578.099 20.1208 593.766 20.0992 609.432 20.1213L609.431 21.1213ZM663.992 21.3227C650.525 21.2544 629.982 21.1503 609.431 21.1213L609.432 20.1213C629.985 20.1503 650.53 20.2544 663.997 20.3227L663.992 21.3227ZM663.994 21.3227L663.992 21.3227L663.997 20.3227L663.999 20.3228L663.994 21.3227ZM678.015 21.3844C675.709 21.3822 670.738 21.3569 663.994 21.3227L663.999 20.3228C670.745 20.357 675.712 20.3822 678.016 20.3844L678.015 21.3844ZM678.193 21.3518L678.193 21.3516L677.837 20.4171C677.949 20.3748 678.069 20.3518 678.193 20.3518V21.3518ZM885.096 21.3518L678.193 21.3518V20.3518L885.096 20.3518V21.3518ZM885.147 21.3492L885.147 21.3492L885.044 20.3545C885.078 20.351 885.113 20.3492 885.147 20.3492V21.3492ZM891.225 21.4273C889.846 21.3772 887.885 21.3492 885.147 21.3492V20.3492C887.89 20.3492 889.865 20.3772 891.262 20.428L891.225 21.4273ZM893.81 21.6385C893.401 21.5498 892.604 21.4775 891.225 21.4273L891.262 20.428C892.632 20.4778 893.514 20.551 894.022 20.6613L893.81 21.6385ZM894.046 21.7081C893.99 21.6839 893.912 21.6607 893.81 21.6385L894.022 20.6613C894.154 20.69 894.3 20.7292 894.438 20.7881L894.046 21.7081ZM894.156 21.7832C894.148 21.7718 894.136 21.7588 894.115 21.7447C894.095 21.7303 894.071 21.7188 894.046 21.708L894.438 20.7881C894.546 20.8341 894.806 20.9548 894.989 21.2299L894.156 21.7832ZM894.168 21.8226C894.168 21.8095 894.164 21.7964 894.156 21.7832L894.989 21.2298C895.094 21.3892 895.17 21.5954 895.168 21.8314L894.168 21.8226ZM894.156 21.8634C894.164 21.8493 894.168 21.8357 894.168 21.8227L895.168 21.8313C895.166 22.059 895.092 22.2428 895.018 22.3697L894.156 21.8634ZM894.065 21.948C894.084 21.935 894.103 21.9213 894.12 21.9055C894.137 21.8896 894.149 21.8752 894.156 21.8633L895.018 22.3699C894.885 22.5955 894.701 22.7259 894.619 22.7806L894.065 21.948ZM893.682 22.1288C893.842 22.0666 893.977 22.006 894.065 21.948L894.619 22.7805C894.433 22.9038 894.208 22.9971 894.046 23.0602L893.682 22.1288ZM893.235 22.2924C893.393 22.2365 893.547 22.1816 893.682 22.1288L894.046 23.0602C893.894 23.1199 893.724 23.1802 893.569 23.2348L893.235 22.2924ZM893.173 22.3145L893.235 22.2925L893.57 23.2348L893.508 23.2568L893.173 22.3145ZM895.075 23.4729C894.288 23.4114 893.698 23.3462 893.265 23.2798L893.416 22.2914C893.816 22.3525 894.379 22.4155 895.153 22.476L895.075 23.4729ZM901.147 23.7519C898.412 23.6754 896.452 23.5805 895.075 23.4729L895.153 22.476C896.506 22.5816 898.446 22.676 901.174 22.7523L901.147 23.7519ZM953.288 24.4196C935.916 24.3291 918.545 24.2386 901.147 23.7519L901.174 22.7523C918.56 23.2386 935.92 23.3291 953.293 23.4196L953.288 24.4196ZM995.001 24.8396C981.083 24.5645 967.185 24.4921 953.288 24.4196L953.293 23.4196C967.189 23.4921 981.094 23.5645 995.021 23.8398L995.001 24.8396ZM1011.36 24.9793C1005.9 24.9633 1000.45 24.9473 995.001 24.8396L995.021 23.8398C1000.46 23.9473 1005.91 23.9633 1011.36 23.9793L1011.36 24.9793ZM1012.16 24.9817L1011.36 24.9793L1011.36 23.9793L1012.17 23.9817L1012.16 24.9817ZM1029.32 25.1538C1023.6 25.0208 1017.88 24.9988 1012.16 24.9817L1012.17 23.9817C1017.89 23.9988 1023.62 24.0208 1029.35 24.1541L1029.32 25.1538ZM1029.65 25.1612L1029.32 25.1538L1029.35 24.154L1029.67 24.1614L1029.65 25.1612ZM1035.7 26.314C1033.62 25.2548 1032.03 25.2145 1029.65 25.1612L1029.67 24.1614C1032.06 24.2148 1033.85 24.2502 1036.16 25.4226L1035.7 26.314ZM1040.38 29.3689C1038.83 28.1939 1037.65 27.3013 1035.7 26.314L1036.16 25.4226C1038.19 26.4534 1039.43 27.3934 1040.98 28.5714L1040.38 29.3689ZM1040.52 29.4733L1040.38 29.3689L1040.98 28.5714L1041.12 28.6758L1040.52 29.4733ZM1047.91 34.4967C1044.19 32.2366 1042.14 30.6993 1040.52 29.4733L1041.12 28.6757C1042.73 29.8906 1044.75 31.4062 1048.43 33.6423L1047.91 34.4967ZM1059.46 39.3493C1056.23 38.507 1052.71 37.024 1047.93 34.512L1048.4 33.627C1053.14 36.123 1056.59 37.5669 1059.71 38.3816L1059.46 39.3493ZM1069.26 40.3426C1065.64 40.3936 1062.69 40.1924 1059.46 39.3493L1059.71 38.3816C1062.83 39.1938 1065.67 39.393 1069.24 39.3427L1069.26 40.3426ZM1083.76 36.2327C1078.87 38.9636 1072.9 40.2913 1069.26 40.3426L1069.24 39.3427C1072.73 39.2937 1078.53 38.0082 1083.27 35.3598L1083.76 36.2327ZM1088.87 32.2918C1087.48 33.8305 1085.71 35.1399 1083.76 36.2327L1083.27 35.3598C1085.16 34.3048 1086.83 33.0591 1088.13 31.6226L1088.87 32.2918ZM1085.98 32.419C1086.72 32.1251 1087.5 31.8139 1088.32 31.4918L1088.68 32.4226C1087.86 32.7435 1087.09 33.0538 1086.35 33.3478L1085.98 32.419ZM1085.85 32.4698L1085.98 32.419L1086.35 33.3478L1086.22 33.3986L1085.85 32.4698ZM1080.33 34.5048C1081.69 34.1274 1083.56 33.3851 1085.85 32.4698L1086.22 33.3986C1083.95 34.3051 1082.02 35.0728 1080.6 35.4683L1080.33 34.5048ZM1064.73 35.0081C1069.26 36.2159 1075.58 35.8228 1080.33 34.5048L1080.6 35.4683C1075.73 36.82 1069.22 37.2399 1064.47 35.9743L1064.73 35.0081ZM1058.46 32.2791C1060.24 33.5733 1062.18 34.3282 1064.73 35.0081L1064.47 35.9743C1061.87 35.2795 1059.79 34.4848 1057.87 33.0876L1058.46 32.2791ZM1053.15 26.314C1055.07 29.1512 1056.68 30.9848 1058.46 32.2791L1057.87 33.0876C1055.96 31.696 1054.27 29.7554 1052.32 26.8729L1053.15 26.314ZM1053.13 26.2856L1053.15 26.314L1052.32 26.8729L1052.31 26.8444L1053.13 26.2856ZM1053.15 26.314L1053.17 26.3448L1052.27 26.7852L1052.26 26.7544L1053.15 26.314ZM1050.79 18.7486C1050.79 20.2435 1051.25 22.4266 1053.15 26.314L1052.26 26.7544C1050.32 22.8041 1049.79 20.4615 1049.79 18.7486H1050.79ZM1050.79 18.3107C1050.79 18.458 1050.79 18.6043 1050.79 18.7486H1049.79C1049.79 18.606 1049.79 18.4612 1049.79 18.3136L1050.79 18.3107ZM1051.24 13.6132C1050.78 15.085 1050.78 16.7512 1050.79 18.3107L1049.79 18.3137C1049.78 16.7849 1049.77 14.959 1050.29 13.3139L1051.24 13.6132ZM1060.3 3.10154C1058.39 3.79653 1053.16 6.11856 1051.25 13.5874L1050.28 13.3397C1052.31 5.41432 1057.9 2.91105 1059.96 2.16175L1060.3 3.10154ZM1060.33 3.09225L1060.3 3.10154L1059.96 2.16175L1059.98 2.15246L1060.33 3.09225ZM1060.3 3.10154L1060.27 3.108L1060.04 2.13671L1060.06 2.13025L1060.3 3.10154ZM1089.87 30.8896C1088.47 31.4262 1087.17 31.9438 1085.98 32.417L1085.61 31.4882C1086.8 31.0152 1088.1 30.4952 1089.51 29.9559L1089.87 30.8896ZM1091.78 23.7035C1092.09 26.3534 1091.42 28.6867 1090.11 30.6969L1089.27 30.1486C1090.47 28.3168 1091.07 26.2167 1090.79 23.821L1091.78 23.7035ZM1082.84 7.41255C1088.73 12.1513 1091.22 18.9928 1091.78 23.7035L1090.79 23.821C1090.25 19.3002 1087.85 12.7269 1082.21 8.19184L1082.84 7.41255ZM1072.55 2.16843C1076.05 2.82051 1079.22 4.50213 1082.84 7.41255L1082.21 8.19184C1078.67 5.34307 1075.65 3.76304 1072.37 3.15148L1072.55 2.16843ZM1060.33 3.095C1065.25 1.89245 1069.06 1.51752 1072.55 2.16843L1072.37 3.15148C1069.08 2.53825 1065.42 2.87817 1060.56 4.06639L1060.33 3.095ZM1051.25 13.6002C1053.14 6.15556 1058.34 3.81824 1060.27 3.1111L1060.62 4.05029C1058.84 4.70174 1054 6.85648 1052.22 13.8473L1051.25 13.6002ZM1051.24 13.6136L1051.25 13.6L1052.22 13.8475L1052.21 13.8612L1051.24 13.6136ZM1051.25 13.5999L1051.25 13.5865L1052.2 13.8883L1052.2 13.9017L1051.25 13.5999ZM1050.79 18.3318C1050.78 16.77 1050.77 15.0929 1051.25 13.6002L1052.2 13.9014C1051.78 15.2184 1051.78 16.7314 1051.79 18.3295L1050.79 18.3318ZM1050.79 18.3309V18.3307H1051.79V18.3309H1050.79ZM1050.79 18.3313V18.3309H1051.79V18.3313H1050.79ZM1050.79 18.7486C1050.79 18.6103 1050.79 18.4717 1050.79 18.3324L1051.79 18.3302C1051.79 18.4694 1051.79 18.6091 1051.79 18.7486H1050.79ZM1053.14 26.2829C1051.24 22.415 1050.79 20.2395 1050.79 18.7486H1051.79C1051.79 20.022 1052.17 22.0383 1054.04 25.843L1053.14 26.2829ZM1058.46 32.2791C1056.69 30.9892 1055.08 29.1636 1053.17 26.3427L1054 25.7832C1055.88 28.5587 1057.41 30.2777 1059.05 31.4705L1058.46 32.2791ZM1064.73 35.0081C1062.18 34.3282 1060.24 33.5733 1058.46 32.2791L1059.05 31.4705C1060.69 32.6617 1062.49 33.3768 1064.99 34.0419L1064.73 35.0081ZM1080.33 34.5048C1075.58 35.8228 1069.26 36.2159 1064.73 35.0081L1064.99 34.0419C1069.3 35.1919 1075.44 34.8257 1080.06 33.5413L1080.33 34.5048ZM1085.85 32.4698C1083.56 33.3851 1081.69 34.1274 1080.33 34.5048L1080.06 33.5413C1081.36 33.1819 1083.16 32.4651 1085.48 31.541L1085.85 32.4698ZM1085.98 32.417L1085.85 32.4698L1085.48 31.541L1085.61 31.4882L1085.98 32.417ZM540.583 21.9074C543.133 21.6194 549.927 21.4284 559.205 21.3058L559.219 22.3057C549.917 22.4286 543.184 22.62 540.695 22.9011L540.583 21.9074ZM536.348 23.0367C537.302 22.5052 538.694 22.1206 540.583 21.9074L540.695 22.9011C538.866 23.1075 537.623 23.4709 536.834 23.9104L536.348 23.0367ZM534.737 25.0479C534.876 24.2473 535.392 23.5686 536.348 23.0367L536.834 23.9104C536.073 24.3342 535.797 24.7863 535.722 25.2186L534.737 25.0479ZM535.397 27.7943C534.838 26.7724 534.598 25.8489 534.737 25.0479L535.722 25.2186C535.639 25.703 535.767 26.3873 536.274 27.3145L535.397 27.7943ZM537.971 31.1296C536.833 29.936 535.955 28.8161 535.397 27.7943L536.274 27.3146C536.775 28.23 537.588 29.2785 538.695 30.4395L537.971 31.1296ZM544.003 35.4761C541.356 33.9626 539.153 32.3683 537.971 31.1296L538.695 30.4395C539.778 31.5749 541.884 33.1126 544.5 34.6079L544.003 35.4761ZM552.699 39.3376C549.742 38.4222 546.651 36.9896 544.003 35.4761L544.5 34.6079C547.099 36.0938 550.123 37.4932 552.995 38.3823L552.699 39.3376ZM560.586 40.0951C558.477 40.6509 555.655 40.2529 552.699 39.3376L552.995 38.3823C555.904 39.283 558.502 39.6104 560.331 39.1281L560.586 40.0951ZM563.142 38.4914C562.516 39.3008 561.64 39.8172 560.586 40.0951L560.331 39.1281C561.218 38.8944 561.886 38.4812 562.35 37.88L563.142 38.4914ZM564.194 35.1296C564.142 36.5797 563.767 37.6821 563.142 38.4914L562.35 37.88C562.818 37.2751 563.148 36.3904 563.194 35.0939L564.194 35.1296ZM559.611 21.5048C562.574 25.4348 564.374 30.0717 564.194 35.1296L563.194 35.0939C563.365 30.3073 561.665 25.8902 558.813 22.1068L559.611 21.5048Z" fill="#ACACAC"/>
</svg>
