<svg width="250" height="250" viewBox="0 0 384 383" fill="none" xmlns="http://www.w3.org/2000/svg">
<g filter="url(#filter0_d_42_26072)">
<g filter="url(#filter1_ii_42_26072)">
<path d="M272.28 259.723C321.908 210.083 321.908 129.599 272.28 79.9587C222.653 30.3181 142.19 30.3181 92.5625 79.9587C42.9349 129.599 42.9349 210.083 92.5625 259.723C142.19 309.364 222.653 309.364 272.28 259.723Z" fill="#313238" style="mix-blend-mode:overlay"/>
</g>
<path d="M273.87 261.312C324.375 210.794 324.375 128.888 273.87 78.3697C223.364 27.8512 141.479 27.8512 90.9732 78.3697C40.4681 128.888 40.4681 210.794 90.9732 261.312C141.479 311.831 223.364 311.831 273.87 261.312Z" stroke="#393A41" stroke-width="4.49488"/>
<path opacity="0.1" d="M266.819 264.877C267.935 263.884 269.038 262.867 270.127 261.828L271.679 263.453C272.415 262.75 273.146 262.036 273.87 261.312C274.594 260.588 275.307 259.857 276.011 259.12L274.385 257.569C275.424 256.479 276.44 255.376 277.434 254.26L279.113 255.754C280.473 254.225 281.79 252.672 283.065 251.096L281.318 249.683C282.266 248.511 283.189 247.326 284.09 246.129L285.886 247.48C287.115 245.845 288.301 244.188 289.442 242.51L287.584 241.246C288.431 240.001 289.253 238.744 290.051 237.477L291.953 238.674C293.042 236.944 294.085 235.194 295.084 233.426L293.127 232.32C293.867 231.011 294.581 229.692 295.27 228.362L297.266 229.397C298.206 227.584 299.1 225.753 299.949 223.907L297.907 222.968C298.536 221.601 299.138 220.225 299.715 218.842L301.79 219.707C302.576 217.823 303.315 215.924 304.008 214.012L301.895 213.246C302.407 211.833 302.893 210.412 303.354 208.985L305.493 209.675C306.119 207.733 306.698 205.78 307.231 203.816L305.062 203.228C305.455 201.778 305.822 200.322 306.163 198.862L308.351 199.373C308.815 197.387 309.231 195.392 309.599 193.391L307.389 192.984C307.661 191.506 307.907 190.025 308.126 188.541L310.35 188.87C310.648 186.853 310.898 184.831 311.101 182.805L308.865 182.581C309.015 181.087 309.138 179.59 309.235 178.092L311.477 178.237C311.609 176.204 311.692 174.169 311.728 172.132L309.481 172.093C309.508 170.592 309.508 169.09 309.481 167.589L311.728 167.55C311.692 165.513 311.609 163.478 311.477 161.444L309.235 161.589C309.138 160.091 309.015 158.595 308.865 157.101L311.101 156.877C310.898 154.851 310.648 152.829 310.35 150.812L308.126 151.141C307.907 149.657 307.661 148.176 307.389 146.698L309.599 146.291C309.231 144.29 308.815 142.295 308.351 140.309L306.163 140.82C305.822 139.36 305.455 137.904 305.062 136.454L307.231 135.866C306.698 133.902 306.119 131.949 305.493 130.007L303.354 130.697C302.893 129.27 302.407 127.849 301.895 126.436L304.008 125.67C303.315 123.758 302.576 121.859 301.79 119.975L299.715 120.84C299.138 119.456 298.536 118.081 297.907 116.714L299.949 115.775C299.1 113.929 298.206 112.098 297.265 110.285L295.27 111.319C294.581 109.99 293.867 108.671 293.127 107.361L295.084 106.256C294.085 104.488 293.041 102.738 291.953 101.008L290.051 102.205C289.253 100.938 288.431 99.6811 287.584 98.4363L289.442 97.1722C288.301 95.4939 287.115 93.8366 285.886 92.2018L284.09 93.5525C283.189 92.3555 282.266 91.1708 281.318 89.999L283.065 88.5856C281.79 87.0094 280.473 85.4564 279.113 83.928L277.434 85.4218C276.44 84.3055 275.424 83.2024 274.385 82.1133L276.011 80.5617C275.307 79.8247 274.594 79.094 273.87 78.3697C273.146 77.6456 272.415 76.9318 271.679 76.2284L270.127 77.8539C269.038 76.8144 267.935 75.798 266.819 74.8047L268.314 73.126C266.786 71.766 265.233 70.4484 263.658 69.1732L262.244 70.9202C261.073 69.9721 259.888 69.0479 258.692 68.1477L260.043 66.3518C258.409 65.1223 256.752 63.9366 255.074 62.7946L253.81 64.6525C252.565 63.8055 251.309 62.9831 250.042 62.1852L251.24 60.2834C249.511 59.1945 247.761 58.1505 245.993 57.1514L244.888 59.108C243.579 58.3683 242.26 57.6537 240.931 56.9641L241.966 54.9693C240.153 54.0286 238.323 53.1337 236.477 52.2847L235.538 54.3265C234.171 53.698 232.796 53.0951 231.412 52.5177L232.278 50.4436C230.394 49.6575 228.496 48.9179 226.584 48.2248L225.818 50.3376C224.405 49.8252 222.985 49.3387 221.558 48.8781L222.248 46.7393C220.307 46.1127 218.354 45.5331 216.391 45.0006L215.803 47.1696C214.353 46.7763 212.897 46.4092 211.437 46.0681L211.948 43.8796C209.963 43.4159 207.969 42.9997 205.967 42.6309L205.56 44.8411C204.083 44.5689 202.602 44.323 201.118 44.1034L201.447 41.8802C199.431 41.5819 197.409 41.3313 195.384 41.1284L195.16 43.3646C193.666 43.2149 192.169 43.0916 190.672 42.9948L190.817 40.752C188.784 40.6205 186.748 40.5369 184.712 40.501L184.673 42.7481C183.172 42.7217 181.671 42.7217 180.17 42.7481L180.13 40.501C178.094 40.5369 176.059 40.6205 174.026 40.752L174.171 42.9948C172.674 43.0916 171.177 43.2149 169.683 43.3646L169.459 41.1284C167.434 41.3313 165.412 41.5819 163.396 41.8802L163.725 44.1034C162.241 44.323 160.76 44.5689 159.283 44.8411L158.876 42.6309C156.874 42.9997 154.88 43.4159 152.895 43.8796L153.406 46.0681C151.946 46.4092 150.49 46.7763 149.04 47.1696L148.452 45.0006C146.489 45.5331 144.536 46.1127 142.595 46.7393L143.285 48.8781C141.858 49.3387 140.438 49.8252 139.024 50.3376L138.258 48.2248C136.347 48.9179 134.448 49.6575 132.565 50.4436L133.43 52.5177C132.047 53.0951 130.671 53.698 129.305 54.3265L128.366 52.2847C126.52 53.1337 124.689 54.0286 122.877 54.9693L123.912 56.9641C122.583 57.6537 121.264 58.3683 119.955 59.108L118.849 57.1514C117.082 58.1505 115.332 59.1945 113.603 60.2834L114.801 62.1852C113.534 62.9831 112.277 63.8055 111.033 64.6525L109.768 62.7946C108.091 63.9366 106.434 65.1223 104.8 66.3518L106.151 68.1477C104.954 69.048 103.77 69.9721 102.599 70.9202L101.185 69.1732C99.6094 70.4484 98.0569 71.766 96.5291 73.126L98.0234 74.8047C96.9075 75.798 95.8049 76.8144 94.7163 77.8539L93.1642 76.2284C92.4275 76.9318 91.6971 77.6456 90.9732 78.3697C90.2491 79.094 89.5354 79.8247 88.8321 80.5617L90.458 82.1133C89.4186 83.2025 88.4023 84.3055 87.4091 85.4218L85.73 83.928C84.3702 85.4564 83.0528 87.0095 81.7778 88.5856L83.5252 89.999C82.5773 91.1708 81.6533 92.3556 80.7532 93.5526L78.9569 92.2019C77.7277 93.8366 76.5422 95.494 75.4005 97.1722L77.2588 98.4363C76.412 99.6812 75.5897 100.938 74.792 102.205L72.8899 101.008C71.8013 102.738 70.7576 104.488 69.7588 106.256L71.7156 107.361C70.9762 108.671 70.2617 109.99 69.5724 111.319L67.5773 110.285C66.6369 112.098 65.7423 113.929 64.8935 115.775L66.9356 116.714C66.3073 118.081 65.7045 119.456 65.1273 120.84L63.0531 119.975C62.2672 121.859 61.5279 123.758 60.8351 125.67L62.948 126.436C62.4358 127.849 61.9495 129.27 61.489 130.697L59.3502 130.007C58.7238 131.949 58.1444 133.902 57.6121 135.866L59.7813 136.454C59.3881 137.904 59.0211 139.36 58.6802 140.82L56.4916 140.309C56.0281 142.295 55.6121 144.29 55.2434 146.291L57.4537 146.698C57.1816 148.176 56.9359 149.657 56.7164 151.141L54.4931 150.812C54.1949 152.829 53.9444 154.851 53.7416 156.877L55.9779 157.1C55.8282 158.595 55.705 160.091 55.6082 161.589L53.3654 161.444C53.234 163.478 53.1504 165.513 53.1145 167.55L55.3616 167.589C55.3352 169.09 55.3352 170.592 55.3616 172.093L53.1145 172.132C53.1504 174.169 53.234 176.204 53.3654 178.237L55.6082 178.092C55.705 179.59 55.8282 181.087 55.9778 182.581L53.7416 182.805C53.9444 184.831 54.1949 186.853 54.4931 188.87L56.7164 188.541C56.9358 190.025 57.1816 191.506 57.4537 192.984L55.2434 193.391C55.6121 195.392 56.0281 197.387 56.4916 199.372L58.6802 198.862C59.0211 200.322 59.3881 201.778 59.7813 203.228L57.6121 203.816C58.1444 205.78 58.7238 207.733 59.3502 209.675L61.489 208.985C61.9495 210.412 62.4358 211.833 62.948 213.246L60.8351 214.012C61.5279 215.924 62.2672 217.823 63.0531 219.707L65.1273 218.842C65.7045 220.225 66.3073 221.601 66.9356 222.968L64.8935 223.907C65.7423 225.753 66.6369 227.584 67.5773 229.397L69.5724 228.362C70.2617 229.692 70.9762 231.011 71.7156 232.32L69.7588 233.426C70.7576 235.194 71.8013 236.944 72.8899 238.674L74.792 237.477C75.5897 238.744 76.412 240.001 77.2588 241.246L75.4006 242.51C76.5422 244.188 77.7277 245.845 78.957 247.48L80.7532 246.129C81.6533 247.326 82.5773 248.511 83.5252 249.683L81.7779 251.096C83.0528 252.672 84.3702 254.225 85.7301 255.754L87.4092 254.26C88.4024 255.376 89.4186 256.479 90.458 257.569L88.8321 259.12C89.5354 259.857 90.2491 260.588 90.9732 261.312C91.6971 262.036 92.4276 262.75 93.1643 263.453L94.7163 261.828C95.805 262.867 96.9076 263.884 98.0234 264.877L96.5291 266.556C98.057 267.916 99.6094 269.234 101.185 270.509L102.599 268.762C103.77 269.71 104.954 270.634 106.151 271.534L104.8 273.33C106.434 274.56 108.091 275.745 109.768 276.887L111.033 275.029C112.277 275.876 113.534 276.699 114.801 277.497L113.603 279.399C115.332 280.487 117.082 281.531 118.849 282.53L119.955 280.574C121.264 281.314 122.583 282.028 123.912 282.718L122.877 284.713C124.69 285.653 126.52 286.548 128.366 287.397L129.305 285.355C130.671 285.984 132.047 286.587 133.43 287.164L132.565 289.238C134.448 290.024 136.347 290.764 138.258 291.457L139.024 289.344C140.438 289.857 141.858 290.343 143.285 290.804L142.595 292.943C144.536 293.569 146.489 294.149 148.452 294.681L149.04 292.512C150.49 292.906 151.946 293.273 153.406 293.614L152.895 295.802C154.88 296.266 156.874 296.682 158.876 297.051L159.283 294.841C160.76 295.113 162.241 295.359 163.725 295.578L163.396 297.802C165.412 298.1 167.434 298.351 169.459 298.554L169.683 296.317C171.177 296.467 172.674 296.59 174.171 296.687L174.026 298.93C176.059 299.061 178.094 299.145 180.13 299.181L180.17 296.934C181.671 296.96 183.172 296.96 184.673 296.934L184.712 299.181C186.748 299.145 188.784 299.061 190.817 298.93L190.672 296.687C192.169 296.59 193.666 296.467 195.16 296.317L195.384 298.554C197.409 298.351 199.431 298.1 201.447 297.802L201.118 295.578C202.602 295.359 204.083 295.113 205.56 294.841L205.967 297.051C207.969 296.682 209.963 296.266 211.948 295.802L211.437 293.614C212.897 293.273 214.353 292.906 215.802 292.512L216.391 294.681C218.354 294.149 220.307 293.569 222.248 292.943L221.558 290.804C222.985 290.343 224.405 289.857 225.818 289.344L226.584 291.457C228.496 290.764 230.394 290.024 232.278 289.238L231.412 287.164C232.796 286.587 234.171 285.984 235.538 285.355L236.477 287.397C238.323 286.548 240.153 285.653 241.966 284.713L240.931 282.718C242.26 282.028 243.579 281.314 244.888 280.574L245.993 282.53C247.761 281.531 249.511 280.487 251.24 279.398L250.042 277.497C251.309 276.699 252.565 275.876 253.81 275.029L255.074 276.887C256.752 275.745 258.409 274.56 260.043 273.33L258.692 271.534C259.888 270.634 261.073 269.71 262.244 268.762L263.658 270.509C265.233 269.233 266.786 267.916 268.314 266.556L266.819 264.877Z" stroke="#57585E" stroke-width="4.49488" stroke-linejoin="round" stroke-dasharray="5.99 4.49"/>
<g opacity="0.9">
<path d="M257.133 244.556C298.394 203.294 298.394 136.396 257.133 95.135C215.872 53.8736 148.974 53.8736 107.712 95.135C66.4507 136.396 66.4507 203.294 107.712 244.556C148.974 285.817 215.872 285.817 257.133 244.556Z" stroke="#CACED1" stroke-width="3.9132"/>
<path d="M161.836 161.075C157.941 160.101 154.047 158.154 151.127 155.234C148.206 154.26 147.233 151.339 147.233 149.392C147.233 147.445 148.206 144.525 150.153 143.551C153.074 141.604 155.994 139.657 158.915 140.631C164.756 140.631 169.624 143.551 172.544 147.445L181.306 135.763C178.385 132.843 175.465 130.896 172.544 128.949C169.624 127.001 165.73 126.028 161.836 126.028V112.399H150.153V126.028C145.286 127.001 140.418 129.922 136.524 133.816C132.63 138.684 129.709 144.525 130.683 150.366C130.683 156.207 132.63 162.048 136.524 165.942C141.392 170.81 148.206 173.73 154.047 176.651C156.968 177.625 160.862 179.572 163.783 181.519C165.73 183.466 166.703 186.386 166.703 189.307C166.703 192.227 165.73 195.148 163.783 198.068C160.862 200.989 156.968 201.963 154.047 201.963C150.153 201.963 145.286 200.989 142.365 198.068C139.445 196.121 136.524 193.201 134.577 190.28L124.842 200.989C127.762 204.883 130.683 207.804 134.577 210.724C139.445 213.645 145.286 216.565 151.127 216.565V229.221H161.836V214.618C167.677 213.645 172.544 210.724 176.438 206.83C181.306 201.963 184.226 194.174 184.226 187.36C184.226 181.519 182.279 174.704 177.412 170.81C172.544 165.942 167.677 163.022 161.836 161.075Z" fill="#CACED1"/>
<path fill-rule="evenodd" clip-rule="evenodd" d="M229.912 135.732H211.92V137.456H229.912V135.732ZM211.92 139.484H229.912V142.74H211.92V139.484ZM229.912 144.523H211.92V148.621H229.912V144.523ZM211.92 150.876H229.912V157.507H211.92V150.876ZM229.912 160.378H211.92V188.945H198.266L220.915 217.762L243.565 188.945H229.912V160.378Z" fill="#CACED1"/>
</g>
</g>
<defs>
<filter id="filter0_d_42_26072" x="0.584491" y="0.197144" width="382.692" height="382.758" filterUnits="userSpaceOnUse" color-interpolation-filters="sRGB">
<feFlood flood-opacity="0" result="BackgroundImageFix"/>
<feColorMatrix in="SourceAlpha" type="matrix" values="0 0 0 0 0 0 0 0 0 0 0 0 0 0 0 0 0 0 127 0" result="hardAlpha"/>
<feOffset dx="9.50906" dy="21.735"/>
<feGaussianBlur stdDeviation="29.8856"/>
<feColorMatrix type="matrix" values="0 0 0 0 0 0 0 0 0 0 0 0 0 0 0 0 0 0 0.25 0"/>
<feBlend mode="normal" in2="BackgroundImageFix" result="effect1_dropShadow_42_26072"/>
<feBlend mode="normal" in="SourceGraphic" in2="effect1_dropShadow_42_26072" result="shape"/>
</filter>
<filter id="filter1_ii_42_26072" x="40.3586" y="18.7556" width="273.637" height="282.693" filterUnits="userSpaceOnUse" color-interpolation-filters="sRGB">
<feFlood flood-opacity="0" result="BackgroundImageFix"/>
<feBlend mode="normal" in="SourceGraphic" in2="BackgroundImageFix" result="shape"/>
<feColorMatrix in="SourceAlpha" type="matrix" values="0 0 0 0 0 0 0 0 0 0 0 0 0 0 0 0 0 0 127 0" result="hardAlpha"/>
<feOffset/>
<feGaussianBlur stdDeviation="2.99659"/>
<feComposite in2="hardAlpha" operator="arithmetic" k2="-1" k3="1"/>
<feColorMatrix type="matrix" values="0 0 0 0 0 0 0 0 0 0 0 0 0 0 0 0 0 0 0.25 0"/>
<feBlend mode="normal" in2="shape" result="effect1_innerShadow_42_26072"/>
<feColorMatrix in="SourceAlpha" type="matrix" values="0 0 0 0 0 0 0 0 0 0 0 0 0 0 0 0 0 0 127 0" result="hardAlpha"/>
<feOffset dx="-10.488" dy="-19.4778"/>
<feGaussianBlur stdDeviation="12.7355"/>
<feComposite in2="hardAlpha" operator="arithmetic" k2="-1" k3="1"/>
<feColorMatrix type="matrix" values="0 0 0 0 0.3375 0 0 0 0 0.3375 0 0 0 0 0.3375 0 0 0 0.09 0"/>
<feBlend mode="normal" in2="effect1_innerShadow_42_26072" result="effect2_innerShadow_42_26072"/>
</filter>
</defs>
</svg>
