<svg width="25" height="25" viewBox="0 0 25 25" fill="none" xmlns="http://www.w3.org/2000/svg">
<path d="M12.0459 2.25098C6.5259 2.25098 2.0459 6.73098 2.0459 12.251C2.0459 17.771 6.5259 22.251 12.0459 22.251C17.5559 22.251 22.0459 17.771 22.0459 12.251C22.0459 6.73098 17.5559 2.25098 12.0459 2.25098ZM18.6509 6.86098C19.8816 8.36028 20.5626 10.2353 20.5809 12.175C20.2999 12.121 17.4799 11.546 14.6379 11.904C14.5729 11.763 14.5179 11.611 14.4539 11.459C14.277 11.042 14.0889 10.6298 13.8899 10.223C17.0349 8.94298 18.4669 7.09898 18.6509 6.86098ZM12.0459 3.72598C14.2159 3.72598 16.1999 4.53998 17.7079 5.87398C17.5559 6.08998 16.2649 7.81498 13.2279 8.95398C11.8289 6.38398 10.2779 4.27898 10.0389 3.95398C10.6968 3.80018 11.3703 3.72367 12.0459 3.72598ZM8.4129 4.52898C9.55733 6.11529 10.6146 7.76273 11.5799 9.46398C7.5879 10.527 4.0629 10.504 3.6839 10.504C3.95873 9.2111 4.52851 7.99919 5.3488 6.96277C6.16909 5.92634 7.21772 5.09343 8.4129 4.52898ZM3.4989 12.261V12.001C3.8689 12.011 8.0109 12.066 12.2739 10.786C12.5239 11.263 12.7509 11.751 12.9679 12.239C12.8589 12.272 12.7399 12.304 12.6319 12.337C8.2279 13.757 5.8849 17.64 5.6899 17.966C4.27966 16.4005 3.49844 14.368 3.4989 12.261ZM12.0459 20.798C10.1473 20.8012 8.30256 20.1674 6.8069 18.998C6.9589 18.683 8.6949 15.342 13.5099 13.661C13.5319 13.651 13.5429 13.651 13.5639 13.639C14.3762 15.7344 14.9866 17.9026 15.3869 20.114C14.3317 20.568 13.1946 20.8008 12.0459 20.798ZM16.8069 19.333C16.7209 18.813 16.2649 16.318 15.1469 13.249C17.8269 12.826 20.1699 13.52 20.4619 13.618C20.2795 14.7711 19.8607 15.874 19.2317 16.8575C18.6027 17.841 17.7772 18.6838 16.8069 19.333Z" fill="white"/>
</svg>
