<svg width="39" height="39" viewBox="0 0 39 39" fill="none" xmlns="http://www.w3.org/2000/svg">
<path d="M1.02637 15.0934C1.02637 12.5381 1.02656 10.6366 1.14966 9.1299C1.27252 7.62614 1.51657 6.53768 1.99212 5.60436C2.84162 3.93712 4.19713 2.58161 5.86437 1.73211C6.79769 1.25656 7.88615 1.01251 9.38991 0.889652C10.8966 0.766552 12.7981 0.766357 15.3534 0.766357H24.1993C26.7547 0.766357 28.6561 0.766552 30.1628 0.889652C31.6666 1.01251 32.755 1.25656 33.6884 1.73211C35.3556 2.58161 36.7111 3.93712 37.5606 5.60436C38.0362 6.53768 38.2802 7.62614 38.4031 9.1299C38.5262 10.6366 38.5264 12.5381 38.5264 15.0934V23.9393C38.5264 26.4947 38.5262 28.3961 38.4031 29.9028C38.2802 31.4066 38.0362 32.495 37.5606 33.4284C36.7111 35.0956 35.3556 36.4511 33.6884 37.3006C32.755 37.7762 31.6666 38.0202 30.1628 38.1431C28.6561 38.2662 26.7547 38.2664 24.1993 38.2664H15.3534C12.7981 38.2664 10.8966 38.2662 9.38991 38.1431C7.88615 38.0202 6.79769 37.7762 5.86437 37.3006C4.19713 36.4511 2.84162 35.0956 1.99212 33.4284C1.51657 32.495 1.27252 31.4066 1.14966 29.9028C1.02656 28.3961 1.02637 26.4947 1.02637 23.9393V15.0934Z" fill="#1E1E1E" stroke="#302F2F" stroke-width="0.5"/>
<path d="M16.3511 29.9361C18.2711 29.9361 19.8296 28.3775 19.8296 26.4575V22.979H16.3511C14.4312 22.979 12.8726 24.5376 12.8726 26.4575C12.8726 28.3775 14.4312 29.9361 16.3511 29.9361Z" fill="#0ACF83"/>
<path d="M12.8682 19.4969C12.8682 17.5769 14.4268 16.0183 16.3467 16.0183H19.8253V22.979H16.3467C14.4268 22.979 12.8682 21.4205 12.8682 19.5005V19.4969Z" fill="#A259FF"/>
<path d="M12.8682 12.5362C12.8682 10.6162 14.4268 9.05762 16.3467 9.05762H19.8253V16.0184H16.3467C14.4268 16.0184 12.8682 14.4598 12.8682 12.5398V12.5362Z" fill="#F24E1E"/>
<path d="M19.7944 9.05762H23.273C25.1929 9.05762 26.7515 10.6162 26.7515 12.5362C26.7515 14.4561 25.1929 16.0147 23.273 16.0147H19.7944V9.05762Z" fill="#FF7262"/>
<path d="M26.788 19.4971C26.788 21.4171 25.2294 22.9756 23.3095 22.9756C21.3895 22.9756 19.7944 21.4171 19.7944 19.4971C19.7944 17.5771 21.353 16.0186 23.273 16.0186C25.1929 16.0186 26.7515 17.5771 26.7515 19.4971H26.788Z" fill="#1ABCFE"/>
</svg>
