<svg width="33" height="33" viewBox="0 0 33 33" fill="none" xmlns="http://www.w3.org/2000/svg">
<g clip-path="url(#clip0_17_2565)">
<path d="M31.663 11.0511C30.9716 9.38764 29.5693 7.59155 28.4711 7.0238C29.2543 8.54078 29.7979 10.1699 30.0824 11.8533L30.0853 11.88C28.2863 7.39489 25.2357 5.5865 22.7442 1.64867C22.6155 1.44794 22.4905 1.24484 22.3694 1.03946C22.3069 0.932198 22.2485 0.822663 22.1941 0.711083C22.0907 0.510972 22.011 0.299476 21.9567 0.0808906C21.9568 0.0707999 21.9531 0.0610349 21.9465 0.0534563C21.9398 0.0458778 21.9306 0.0410156 21.9206 0.0397965C21.9108 0.0371902 21.9005 0.0371902 21.8907 0.0397965C21.8887 0.0397965 21.8853 0.043521 21.8828 0.0443901C21.8804 0.045135 21.875 0.0488595 21.8714 0.0504735L21.8775 0.0397965C17.8811 2.37992 16.525 6.71181 16.4002 8.87862C14.8042 8.98832 13.2783 9.57641 12.0215 10.5662C11.8904 10.4552 11.7533 10.3513 11.6109 10.2551C11.2484 8.98612 11.233 7.64314 11.5662 6.36617C10.0986 7.07715 8.79445 8.08504 7.73642 9.32607H7.72897C7.09841 8.52678 7.14273 5.89117 7.17886 5.34056C6.99232 5.41558 6.81425 5.51013 6.64762 5.62263C6.09099 6.01997 5.57059 6.46575 5.0925 6.95478C4.54778 7.50712 4.05027 8.1041 3.60516 8.73945V8.74181V8.73895C2.58227 10.1892 1.85672 11.8277 1.47038 13.5599L1.44915 13.6649C1.39043 13.995 1.33828 14.3263 1.29272 14.6585C1.29272 14.6704 1.29024 14.6815 1.289 14.6934C1.14971 15.4173 1.0634 16.1503 1.03076 16.8868V16.9689C1.04144 29.2178 14.308 36.8617 24.9105 30.728C26.9283 29.5607 28.665 27.9642 29.9977 26.0515C31.3304 24.1389 32.2266 21.9568 32.6228 19.6595C32.6495 19.4543 32.6712 19.2511 32.6951 19.0438C33.0227 16.3352 32.668 13.5876 31.663 11.0511ZM13.3245 23.5058C13.3988 23.5415 13.4686 23.5801 13.545 23.6141L13.556 23.6212C13.4783 23.5839 13.4011 23.5454 13.3245 23.5058ZM30.0865 11.8837V11.8684L30.0894 11.8853L30.0865 11.8837Z" fill="url(#paint0_linear_17_2565)"/>
<path d="M31.663 11.051C30.9716 9.38752 29.5693 7.59143 28.4711 7.02368C29.2543 8.54066 29.7979 10.1698 30.0824 11.8532V11.8683L30.0853 11.8852C31.3116 15.3946 31.1342 19.2422 29.5902 22.6239C27.7666 26.5367 23.3525 30.5471 16.4433 30.3521C8.97781 30.1407 2.40313 24.601 1.17403 17.3452C0.950312 16.2011 1.17403 15.621 1.28651 14.6911C1.13304 15.4134 1.04742 16.1484 1.03076 16.8866V16.9688C1.04144 29.2177 14.308 36.8616 24.9105 30.7279C26.9283 29.5605 28.665 27.9641 29.9977 26.0514C31.3304 24.1388 32.2266 21.9567 32.6228 19.6594C32.6495 19.4542 32.6712 19.251 32.6951 19.0436C33.0227 16.3351 32.668 13.5875 31.663 11.051Z" fill="url(#paint1_radial_17_2565)"/>
<path d="M31.663 11.051C30.9716 9.38752 29.5693 7.59143 28.4711 7.02368C29.2543 8.54066 29.7979 10.1698 30.0824 11.8532V11.8683L30.0853 11.8852C31.3116 15.3946 31.1342 19.2422 29.5902 22.6239C27.7666 26.5367 23.3525 30.5471 16.4433 30.3521C8.97781 30.1407 2.40313 24.601 1.17403 17.3452C0.950312 16.2011 1.17403 15.621 1.28651 14.6911C1.13304 15.4134 1.04742 16.1484 1.03076 16.8866V16.9688C1.04144 29.2177 14.308 36.8616 24.9105 30.7279C26.9283 29.5605 28.665 27.9641 29.9977 26.0514C31.3304 24.1388 32.2266 21.9567 32.6228 19.6594C32.6495 19.4542 32.6712 19.251 32.6951 19.0436C33.0227 16.3351 32.668 13.5875 31.663 11.051Z" fill="url(#paint2_radial_17_2565)"/>
<path d="M23.9312 12.9217C23.9657 12.9459 23.9977 12.9701 24.0301 12.9944C23.6304 12.2857 23.1329 11.6368 22.5522 11.0669C17.607 6.12085 21.2562 0.342596 21.8716 0.0491021L21.8777 0.0400391C17.8813 2.38017 16.5252 6.71205 16.4004 8.87887C16.586 8.86608 16.7699 8.85044 16.9596 8.85044C18.3776 8.85306 19.7697 9.23115 20.9942 9.94626C22.2187 10.6614 23.2321 11.688 23.9312 12.9217Z" fill="url(#paint3_radial_17_2565)"/>
<path d="M16.9698 13.9094C16.9435 14.3052 15.5452 15.6701 15.0563 15.6701C10.5318 15.6701 9.79736 18.4071 9.79736 18.4071C9.99774 20.7119 11.6038 22.6102 13.5451 23.6143C13.6338 23.6604 13.7238 23.7018 13.8137 23.7424C13.9675 23.8107 14.1233 23.8745 14.2808 23.9337C14.9471 24.1695 15.6449 24.3042 16.3511 24.3331C24.2814 24.7051 25.8176 14.85 20.0947 11.9901C21.4448 11.8144 22.812 12.1464 23.9311 12.9216C23.232 11.6879 22.2187 10.6613 20.9942 9.94616C19.7696 9.23105 18.3776 8.85297 16.9595 8.85034C16.7707 8.85034 16.586 8.86598 16.4004 8.87877C14.8044 8.98846 13.2785 9.57656 12.0217 10.5664C12.2643 10.7717 12.5381 11.046 13.1149 11.6144C14.1946 12.6782 16.9636 13.78 16.9698 13.9094Z" fill="url(#paint4_radial_17_2565)"/>
<path d="M16.9698 13.9094C16.9435 14.3052 15.5452 15.6701 15.0563 15.6701C10.5318 15.6701 9.79736 18.4071 9.79736 18.4071C9.99774 20.7119 11.6038 22.6102 13.5451 23.6143C13.6338 23.6604 13.7238 23.7018 13.8137 23.7424C13.9675 23.8107 14.1233 23.8745 14.2808 23.9337C14.9471 24.1695 15.6449 24.3042 16.3511 24.3331C24.2814 24.7051 25.8176 14.85 20.0947 11.9901C21.4448 11.8144 22.812 12.1464 23.9311 12.9216C23.232 11.6879 22.2187 10.6613 20.9942 9.94616C19.7696 9.23105 18.3776 8.85297 16.9595 8.85034C16.7707 8.85034 16.586 8.86598 16.4004 8.87877C14.8044 8.98846 13.2785 9.57656 12.0217 10.5664C12.2643 10.7717 12.5381 11.046 13.1149 11.6144C14.1946 12.6782 16.9636 13.78 16.9698 13.9094Z" fill="url(#paint5_radial_17_2565)"/>
<path d="M11.2797 10.0369C11.3905 10.1074 11.5 10.1801 11.608 10.2549C11.2455 8.98592 11.23 7.64292 11.5633 6.36597C10.0956 7.07697 8.7915 8.08486 7.7334 9.32586C7.81099 9.32375 10.1191 9.28228 11.2797 10.0369Z" fill="url(#paint6_radial_17_2565)"/>
<path d="M1.17635 17.3453C2.4042 24.6011 8.98012 30.1407 16.4456 30.3522C23.3549 30.5476 27.7688 26.5367 29.5925 22.624C31.1365 19.2423 31.3139 15.3947 30.0876 11.8853V11.8701C30.0876 11.8582 30.0851 11.8511 30.0876 11.8548L30.0904 11.8815C30.655 15.5668 28.7804 19.1373 25.8501 21.5516L25.841 21.5722C20.1314 26.2223 14.6671 24.3777 13.5612 23.6248C13.4834 23.5876 13.4062 23.5491 13.3296 23.5094C10.0006 21.9182 8.62542 18.8852 8.92016 16.2841C8.12993 16.2957 7.35328 16.078 6.6843 15.6572C6.01532 15.2364 5.48273 14.6306 5.15105 13.9133C6.02491 13.3779 7.02131 13.0753 8.0453 13.0342C9.06928 12.9931 10.0867 13.2149 11.0007 13.6785C12.885 14.5339 15.0291 14.6181 16.9747 13.9133C16.9686 13.7839 14.1996 12.6817 13.1198 11.6185C12.543 11.0499 12.2693 10.776 12.0267 10.5704C11.8956 10.4593 11.7585 10.3554 11.6161 10.2591C11.5216 10.1947 11.4154 10.1249 11.2877 10.0411C10.1272 9.28653 7.81906 9.328 7.74271 9.33011H7.73538C7.10482 8.53082 7.14914 5.89521 7.18527 5.34473C6.9987 5.41963 6.82062 5.51414 6.65403 5.62667C6.09737 6.02398 5.57697 6.46977 5.09891 6.95882C4.55227 7.50965 4.05268 8.10525 3.60537 8.7394V8.74175V8.7389C2.58247 10.1892 1.85692 11.8277 1.47058 13.5598C1.46289 13.5922 0.897502 16.0636 1.17635 17.3453Z" fill="url(#paint7_radial_17_2565)"/>
<path d="M22.5528 11.0667C23.1336 11.6373 23.6311 12.2868 24.0307 12.9962C24.1132 13.0576 24.1928 13.1228 24.2692 13.1916C27.8765 16.5169 25.9864 21.2175 25.8456 21.5521C28.776 19.1377 30.6488 15.5674 30.086 11.882C28.2862 7.39489 25.2356 5.5865 22.7441 1.64867C22.6154 1.44794 22.4904 1.24484 22.3693 1.03946C22.3068 0.932198 22.2483 0.822663 22.194 0.711083C22.0906 0.510972 22.0109 0.299476 21.9566 0.0808906C21.9567 0.0707999 21.953 0.0610349 21.9464 0.0534563C21.9397 0.0458778 21.9305 0.0410156 21.9205 0.0397965C21.9107 0.0371902 21.9004 0.0371902 21.8906 0.0397965C21.8886 0.0397965 21.8852 0.043521 21.8827 0.0443901C21.8802 0.045135 21.8749 0.0488595 21.8713 0.0504735C21.2559 0.342353 17.6067 6.1206 22.5528 11.0667Z" fill="url(#paint8_radial_17_2565)"/>
<path d="M24.2669 13.1896C24.1905 13.1208 24.1109 13.0556 24.0284 12.9942C23.996 12.9699 23.964 12.9457 23.9295 12.9215C22.8103 12.1463 21.4431 11.8144 20.0931 11.99C25.8158 14.8515 24.2804 24.705 16.3494 24.333C15.6432 24.3041 14.9454 24.1694 14.2792 23.9336C14.1216 23.8746 13.9658 23.8108 13.812 23.7423C13.722 23.7012 13.6321 23.6602 13.5435 23.6142L13.5545 23.6213C14.6604 24.3762 20.123 26.2207 25.8343 21.5685L25.8434 21.5481C25.9858 21.2155 27.8759 16.5137 24.2669 13.1896Z" fill="url(#paint9_radial_17_2565)"/>
<path d="M9.79733 18.4068C9.79733 18.4068 10.5318 15.6698 15.0563 15.6698C15.5452 15.6698 16.9447 14.3049 16.9698 13.9091C15.0242 14.614 12.88 14.5297 10.9958 13.6742C10.0818 13.2106 9.06429 12.9889 8.04029 13.03C7.01629 13.0711 6.01988 13.3737 5.146 13.9091C5.47767 14.6264 6.01027 15.2322 6.67924 15.653C7.34822 16.0738 8.12488 16.2915 8.91511 16.2799C8.62037 18.8815 9.99559 21.9145 13.3246 23.5052C13.399 23.541 13.4687 23.5796 13.5451 23.6136C11.6021 22.6099 9.99771 20.7116 9.79733 18.4068Z" fill="url(#paint10_radial_17_2565)"/>
<path d="M31.663 11.0511C30.9716 9.38764 29.5693 7.59155 28.4711 7.0238C29.2543 8.54078 29.7979 10.1699 30.0824 11.8533L30.0853 11.88C28.2863 7.39489 25.2357 5.5865 22.7442 1.64867C22.6155 1.44794 22.4905 1.24484 22.3694 1.03946C22.3069 0.932198 22.2485 0.822663 22.1941 0.711083C22.0907 0.510972 22.011 0.299476 21.9567 0.0808906C21.9568 0.0707999 21.9531 0.0610349 21.9465 0.0534563C21.9398 0.0458778 21.9306 0.0410156 21.9206 0.0397965C21.9108 0.0371902 21.9005 0.0371902 21.8907 0.0397965C21.8887 0.0397965 21.8853 0.043521 21.8828 0.0443901C21.8804 0.045135 21.875 0.0488595 21.8714 0.0504735L21.8775 0.0397965C17.8811 2.37992 16.525 6.71181 16.4002 8.87862C16.5858 8.86584 16.7697 8.85019 16.9594 8.85019C18.3774 8.85282 19.7695 9.23091 20.994 9.94601C22.2185 10.6611 23.2319 11.6877 23.931 12.9215C22.8118 12.1463 21.4446 11.8143 20.0946 11.99C25.8174 14.8514 24.2821 24.7049 16.3509 24.333C15.6448 24.304 14.9469 24.1694 14.2807 23.9336C14.1231 23.8745 13.9673 23.8107 13.8135 23.7423C13.7236 23.7012 13.6336 23.6602 13.545 23.6141L13.556 23.6212C13.4783 23.5839 13.4011 23.5454 13.3245 23.5058C13.3988 23.5415 13.4686 23.5801 13.545 23.6141C11.602 22.61 9.99759 20.7117 9.79721 18.407C9.79721 18.407 10.5317 15.6699 15.0561 15.6699C15.545 15.6699 16.9446 14.305 16.9697 13.9092C16.9635 13.7799 14.1944 12.6777 13.1148 11.6143C12.538 11.0458 12.2641 10.7719 12.0215 10.5662C11.8904 10.4552 11.7533 10.3513 11.6109 10.2551C11.2484 8.98612 11.233 7.64314 11.5662 6.36617C10.0986 7.07715 8.79445 8.08504 7.73642 9.32607H7.72897C7.09841 8.52678 7.14273 5.89117 7.17886 5.34056C6.99232 5.41558 6.81425 5.51013 6.64762 5.62263C6.09099 6.01997 5.57059 6.46575 5.0925 6.95478C4.54778 7.50712 4.05027 8.1041 3.60516 8.73945V8.74181V8.73895C2.58227 10.1892 1.85672 11.8277 1.47038 13.5599L1.44915 13.6649C1.41911 13.8049 1.2849 14.516 1.26553 14.6687C1.26553 14.6567 1.26553 14.6802 1.26553 14.6687C1.14278 15.4026 1.06438 16.1433 1.03076 16.8868V16.9689C1.04144 29.2178 14.308 36.8617 24.9105 30.728C26.9283 29.5607 28.665 27.9642 29.9977 26.0515C31.3304 24.1389 32.2266 21.9568 32.6228 19.6595C32.6495 19.4543 32.6712 19.2511 32.6951 19.0438C33.0227 16.3352 32.668 13.5876 31.663 11.0511Z" fill="url(#paint11_linear_17_2565)"/>
</g>
<defs>
<linearGradient id="paint0_linear_17_2565" x1="29.5569" y1="5.12379" x2="3.14373" y2="30.6075" gradientUnits="userSpaceOnUse">
<stop offset="0.048" stop-color="#FFF44F"/>
<stop offset="0.111" stop-color="#FFE847"/>
<stop offset="0.225" stop-color="#FFC830"/>
<stop offset="0.368" stop-color="#FF980E"/>
<stop offset="0.401" stop-color="#FF8B16"/>
<stop offset="0.462" stop-color="#FF672A"/>
<stop offset="0.534" stop-color="#FF3647"/>
<stop offset="0.705" stop-color="#E31587"/>
</linearGradient>
<radialGradient id="paint1_radial_17_2565" cx="0" cy="0" r="1" gradientUnits="userSpaceOnUse" gradientTransform="translate(28.3369 3.68158) scale(33.1697 33.1697)">
<stop offset="0.129" stop-color="#FFBD4F"/>
<stop offset="0.186" stop-color="#FFAC31"/>
<stop offset="0.247" stop-color="#FF9D17"/>
<stop offset="0.283" stop-color="#FF980E"/>
<stop offset="0.403" stop-color="#FF563B"/>
<stop offset="0.467" stop-color="#FF3750"/>
<stop offset="0.71" stop-color="#F5156C"/>
<stop offset="0.782" stop-color="#EB0878"/>
<stop offset="0.86" stop-color="#E50080"/>
</radialGradient>
<radialGradient id="paint2_radial_17_2565" cx="0" cy="0" r="1" gradientUnits="userSpaceOnUse" gradientTransform="translate(16.2164 17.2422) scale(33.1697 33.1697)">
<stop offset="0.3" stop-color="#960E18"/>
<stop offset="0.351" stop-color="#B11927" stop-opacity="0.74"/>
<stop offset="0.435" stop-color="#DB293D" stop-opacity="0.343"/>
<stop offset="0.497" stop-color="#F5334B" stop-opacity="0.094"/>
<stop offset="0.53" stop-color="#FF3750" stop-opacity="0"/>
</radialGradient>
<radialGradient id="paint3_radial_17_2565" cx="0" cy="0" r="1" gradientUnits="userSpaceOnUse" gradientTransform="translate(20.2156 -3.84556) scale(24.03 24.03)">
<stop offset="0.132" stop-color="#FFF44F"/>
<stop offset="0.252" stop-color="#FFDC3E"/>
<stop offset="0.506" stop-color="#FF9D12"/>
<stop offset="0.526" stop-color="#FF980E"/>
</radialGradient>
<radialGradient id="paint4_radial_17_2565" cx="0" cy="0" r="1" gradientUnits="userSpaceOnUse" gradientTransform="translate(12.5477 25.9068) scale(15.7935 15.7935)">
<stop offset="0.353" stop-color="#3A8EE6"/>
<stop offset="0.472" stop-color="#5C79F0"/>
<stop offset="0.669" stop-color="#9059FF"/>
<stop offset="1" stop-color="#C139E6"/>
</radialGradient>
<radialGradient id="paint5_radial_17_2565" cx="0" cy="0" r="1" gradientUnits="userSpaceOnUse" gradientTransform="translate(18.0342 14.5245) rotate(-13.5915) scale(8.37363 9.80343)">
<stop offset="0.206" stop-color="#9059FF" stop-opacity="0"/>
<stop offset="0.278" stop-color="#8C4FF3" stop-opacity="0.064"/>
<stop offset="0.747" stop-color="#7716A8" stop-opacity="0.45"/>
<stop offset="0.975" stop-color="#6E008B" stop-opacity="0.6"/>
</radialGradient>
<radialGradient id="paint6_radial_17_2565" cx="0" cy="0" r="1" gradientUnits="userSpaceOnUse" gradientTransform="translate(15.7976 2.32427) scale(11.3619)">
<stop stop-color="#FFE226"/>
<stop offset="0.121" stop-color="#FFDB27"/>
<stop offset="0.295" stop-color="#FFC82A"/>
<stop offset="0.502" stop-color="#FFA930"/>
<stop offset="0.732" stop-color="#FF7E37"/>
<stop offset="0.792" stop-color="#FF7139"/>
</radialGradient>
<radialGradient id="paint7_radial_17_2565" cx="0" cy="0" r="1" gradientUnits="userSpaceOnUse" gradientTransform="translate(24.7286 -4.88203) scale(48.4759)">
<stop offset="0.113" stop-color="#FFF44F"/>
<stop offset="0.456" stop-color="#FF980E"/>
<stop offset="0.622" stop-color="#FF5634"/>
<stop offset="0.716" stop-color="#FF3647"/>
<stop offset="0.904" stop-color="#E31587"/>
</radialGradient>
<radialGradient id="paint8_radial_17_2565" cx="0" cy="0" r="1" gradientUnits="userSpaceOnUse" gradientTransform="translate(20.6503 -2.18747) rotate(83.9761) scale(35.5292 23.3175)">
<stop stop-color="#FFF44F"/>
<stop offset="0.06" stop-color="#FFE847"/>
<stop offset="0.168" stop-color="#FFC830"/>
<stop offset="0.304" stop-color="#FF980E"/>
<stop offset="0.356" stop-color="#FF8B16"/>
<stop offset="0.455" stop-color="#FF672A"/>
<stop offset="0.57" stop-color="#FF3647"/>
<stop offset="0.737" stop-color="#E31587"/>
</radialGradient>
<radialGradient id="paint9_radial_17_2565" cx="0" cy="0" r="1" gradientUnits="userSpaceOnUse" gradientTransform="translate(15.5301 6.53288) scale(30.2644 30.2644)">
<stop offset="0.137" stop-color="#FFF44F"/>
<stop offset="0.48" stop-color="#FF980E"/>
<stop offset="0.592" stop-color="#FF5634"/>
<stop offset="0.655" stop-color="#FF3647"/>
<stop offset="0.904" stop-color="#E31587"/>
</radialGradient>
<radialGradient id="paint10_radial_17_2565" cx="0" cy="0" r="1" gradientUnits="userSpaceOnUse" gradientTransform="translate(23.5191 8.30414) scale(33.1241 33.1241)">
<stop offset="0.094" stop-color="#FFF44F"/>
<stop offset="0.231" stop-color="#FFE141"/>
<stop offset="0.509" stop-color="#FFAF1E"/>
<stop offset="0.626" stop-color="#FF980E"/>
</radialGradient>
<linearGradient id="paint11_linear_17_2565" x1="29.2396" y1="4.98749" x2="6.76462" y2="27.462" gradientUnits="userSpaceOnUse">
<stop offset="0.167" stop-color="#FFF44F" stop-opacity="0.8"/>
<stop offset="0.266" stop-color="#FFF44F" stop-opacity="0.634"/>
<stop offset="0.489" stop-color="#FFF44F" stop-opacity="0.217"/>
<stop offset="0.6" stop-color="#FFF44F" stop-opacity="0"/>
</linearGradient>
<clipPath id="clip0_17_2565">
<rect width="31.7827" height="32.9001" fill="white" transform="translate(0.869629 0.0371094)"/>
</clipPath>
</defs>
</svg>
