<svg width="26" height="25" viewBox="0 0 26 25" fill="none" xmlns="http://www.w3.org/2000/svg">
<path d="M12.8667 1.10632C9.93683 1.07655 7.11504 2.21126 5.02145 4.26107C2.92787 6.31087 1.7338 9.10806 1.70166 12.0379C1.71295 14.3533 2.45778 16.6055 3.82916 18.4711C5.20055 20.3367 7.12793 21.7196 9.33446 22.4213C9.89271 22.5228 10.0957 22.1879 10.0957 21.8935V20.0361C6.98981 20.6958 6.33006 18.5745 6.33006 18.5745C6.1233 17.9085 5.68374 17.3393 5.09176 16.9708C4.07676 16.3009 5.17296 16.311 5.17296 16.311C5.5238 16.3579 5.85946 16.4836 6.15478 16.6788C6.4501 16.8739 6.69741 17.1333 6.87816 17.4377C7.19315 17.9839 7.70999 18.3846 8.31744 18.5535C8.9249 18.7224 9.5744 18.6461 10.1262 18.341C10.1829 17.7852 10.4346 17.2674 10.8367 16.8794C8.36006 16.6054 5.76166 15.6716 5.76166 11.4796C5.73951 10.3861 6.14355 9.32692 6.88831 8.52597C6.54913 7.58716 6.58918 6.55313 6.99996 5.64337C6.99996 5.64337 7.94391 5.34902 10.045 6.75987C11.8739 6.2725 13.7985 6.2725 15.6275 6.75987C17.759 5.34902 18.6725 5.64337 18.6725 5.64337C19.0832 6.55313 19.1233 7.58716 18.7841 8.52597C19.5462 9.31224 19.9721 10.3643 19.9717 11.4593C19.9717 15.6614 17.353 16.5851 14.8967 16.8591C15.1656 17.1202 15.3734 17.4377 15.505 17.7887C15.6366 18.1397 15.6888 18.5155 15.6579 18.8891V21.8834C15.6579 22.2386 15.8609 22.5228 16.4192 22.4112C18.6194 21.7051 20.5403 20.3219 21.9075 18.4589C23.2746 16.5959 24.0181 14.3486 24.0317 12.0379C23.9995 9.10806 22.8055 6.31087 20.7119 4.26107C18.6183 2.21126 15.7965 1.07655 12.8667 1.10632Z" fill="black"/>
</svg>
