<svg width="26" height="26" viewBox="0 0 26 26" fill="none" xmlns="http://www.w3.org/2000/svg">
<path d="M13.045 1.26133C10.0557 1.23095 7.17662 2.3887 5.04052 4.48013C2.90443 6.57156 1.68611 9.42554 1.65332 12.4148C1.66484 14.7772 2.42479 17.0752 3.82402 18.9787C5.22325 20.8822 7.18977 22.2932 9.4411 23.0091C10.0107 23.1127 10.2178 22.7709 10.2178 22.4706V20.5754C7.04885 21.2486 6.3757 19.0842 6.3757 19.0842C6.16474 18.4047 5.71626 17.8239 5.11226 17.4479C4.07665 16.7644 5.19511 16.7748 5.19511 16.7748C5.55307 16.8226 5.89554 16.9509 6.19686 17.15C6.49818 17.3491 6.75051 17.6138 6.93493 17.9243C7.25631 18.4816 7.78365 18.8904 8.40344 19.0628C9.02322 19.2351 9.68592 19.1573 10.2489 18.846C10.3068 18.2789 10.5636 17.7506 10.9738 17.3547C8.44692 17.0751 5.79576 16.1223 5.79576 11.8453C5.77316 10.7296 6.1854 9.64884 6.94529 8.83163C6.59921 7.87376 6.64008 6.81873 7.0592 5.8905C7.0592 5.8905 8.02232 5.59017 10.166 7.02967C12.0321 6.53241 13.9958 6.53241 15.8619 7.02967C18.0367 5.59017 18.9687 5.8905 18.9687 5.8905C19.3878 6.81873 19.4287 7.87376 19.0826 8.83163C19.8602 9.63386 20.2948 10.7073 20.2943 11.8245C20.2943 16.112 17.6224 17.0544 15.1162 17.334C15.3907 17.6004 15.6026 17.9243 15.7369 18.2825C15.8712 18.6406 15.9245 19.024 15.893 19.4052V22.4603C15.893 22.8227 16.1001 23.1127 16.6697 22.9988C18.9146 22.2784 20.8745 20.867 22.2694 18.9662C23.6643 17.0655 24.4229 14.7725 24.4367 12.4148C24.4039 9.42554 23.1856 6.57156 21.0495 4.48013C18.9134 2.3887 16.0344 1.23095 13.045 1.26133Z" fill="white"/>
</svg>
