<svg width="36" height="36" viewBox="0 0 36 36" fill="none" xmlns="http://www.w3.org/2000/svg">
<path d="M27.0278 0.850098H8.4781C3.95839 0.850098 0.294434 4.51405 0.294434 9.03377V27.5834C0.294434 32.1031 3.95839 35.7671 8.4781 35.7671H27.0278C31.5475 35.7671 35.2114 32.1031 35.2114 27.5834V9.03377C35.2114 4.51405 31.5475 0.850098 27.0278 0.850098Z" fill="#00B4E0"/>
<path d="M5.8187 16.294C5.76415 16.294 5.75051 16.2668 5.77779 16.2258L6.06421 15.8576C6.09149 15.8167 6.15969 15.7894 6.21425 15.7894H11.0835C11.1381 15.7894 11.1517 15.8303 11.1245 15.8712L10.8926 16.2258C10.8653 16.2668 10.7971 16.3077 10.7562 16.3077L5.8187 16.294ZM3.75915 17.5489C3.70459 17.5489 3.69095 17.5216 3.71823 17.4807L4.00466 17.1124C4.03194 17.0715 4.10013 17.0442 4.15469 17.0442H10.3743C10.4288 17.0442 10.4561 17.0851 10.4425 17.126L10.3334 17.4534C10.3197 17.5079 10.2652 17.5352 10.2106 17.5352L3.75915 17.5489ZM7.05989 18.8037C7.00534 18.8037 6.9917 18.7628 7.01898 18.7219L7.20993 18.3809C7.23721 18.34 7.29176 18.299 7.34632 18.299H10.0742C10.1288 18.299 10.156 18.34 10.156 18.3945L10.1288 18.7219C10.1288 18.7764 10.0742 18.8173 10.0333 18.8173L7.05989 18.8037ZM21.2176 16.0485C20.3584 16.2668 19.7719 16.4304 18.9262 16.6487C18.7216 16.7032 18.708 16.7169 18.5307 16.5123C18.3261 16.2804 18.176 16.1304 17.8896 15.994C17.0303 15.5711 16.1983 15.6939 15.4209 16.1986C14.4934 16.7987 14.016 17.6853 14.0297 18.7901C14.0433 19.8812 14.7935 20.7814 15.871 20.9314C16.7985 21.0542 17.5759 20.7269 18.1897 20.0312C18.3124 19.8812 18.4216 19.7175 18.5579 19.5266H15.9255C15.6391 19.5266 15.5709 19.3493 15.6664 19.1174C15.8437 18.6946 16.171 17.9853 16.362 17.6307C16.4029 17.5489 16.4984 17.4125 16.703 17.4125H21.6677C21.6405 17.7807 21.6405 18.149 21.5859 18.5173C21.4359 19.4993 21.0676 20.3995 20.4675 21.1906C19.4854 22.4863 18.2033 23.2911 16.5802 23.5093C15.2436 23.6866 14.0024 23.4275 12.9112 22.6091C11.9019 21.8453 11.329 20.836 11.179 19.5811C11.0017 18.0944 11.4382 16.7578 12.3384 15.5848C13.3068 14.3163 14.5889 13.5116 16.1574 13.2252C17.4395 12.9933 18.6671 13.1433 19.7719 13.8935C20.4948 14.3709 21.0131 15.0256 21.354 15.8167C21.4359 15.9394 21.3813 16.0076 21.2176 16.0485Z" fill="white"/>
<path d="M25.7321 23.5913C24.4909 23.564 23.3588 23.2094 22.4041 22.391C21.5993 21.6954 21.0947 20.8089 20.931 19.7586C20.6855 18.2174 21.1083 16.8534 22.0358 15.6395C23.0315 14.3301 24.2317 13.6481 25.8548 13.3617C27.2461 13.1162 28.5554 13.2526 29.7421 14.0573C30.8196 14.7939 31.4879 15.7895 31.6652 17.0989C31.8971 18.9403 31.3652 20.4406 30.0967 21.7227C29.1965 22.6365 28.0917 23.2094 26.8232 23.4686C26.455 23.5367 26.0867 23.5504 25.7321 23.5913ZM28.9783 18.081C28.9646 17.9037 28.9646 17.7673 28.9374 17.6309C28.6918 16.2806 27.4507 15.5168 26.1549 15.8168C24.8864 16.1032 24.0681 16.908 23.768 18.1901C23.5225 19.254 24.0408 20.3315 25.0228 20.7679C25.773 21.0953 26.5232 21.0544 27.2461 20.6861C28.3236 20.1269 28.9101 19.254 28.9783 18.081Z" fill="white"/>
</svg>
