<svg width="39" height="39" viewBox="0 0 39 39" fill="none" xmlns="http://www.w3.org/2000/svg">
<g clip-path="url(#clip0_12_6573)">
<path d="M7.50563 0.91333H32.0471C35.7681 0.91333 38.7764 3.9987 38.7764 7.81514V32.0115C38.7764 35.828 35.7681 38.9133 32.0471 38.9133H7.50563C3.7846 38.9133 0.776367 35.828 0.776367 32.0115V7.81514C0.776367 3.9987 3.7846 0.91333 7.50563 0.91333Z" fill="#F6F6F6"/>
<g clip-path="url(#clip1_12_6573)">
<path d="M33.6606 15.204C33.6606 20.9603 31.0949 23.9921 28.3122 25.9863L27.7715 26.3598L27.2292 26.7102L26.6891 27.0399L26.1549 27.352L24.1348 28.4855C24.0296 28.5456 23.926 28.6055 23.8239 28.6651L23.229 29.0234C21.1167 30.342 19.7733 31.7653 19.6605 34.9872L19.6528 35.4378H13.6751C13.6751 29.8673 16.0786 26.848 18.7557 24.8516L19.2941 24.4655C19.3839 24.4036 19.4741 24.3423 19.5648 24.2818L20.1072 23.9316L20.6472 23.6018L21.7057 22.9927L23.2012 22.1561L23.8143 21.7976C26.0946 20.4255 27.5576 19.0231 27.6755 15.6547L27.6832 15.204H33.6606ZM25.8781 4.30919C25.8781 9.87917 23.4751 12.8985 20.7981 14.895L20.2596 15.2811C20.1695 15.3434 20.0791 15.4046 19.9888 15.4648L19.4464 15.8151L18.9063 16.1449L17.8476 16.7541L16.352 17.5907L15.739 17.9492C15.6398 18.0088 15.5422 18.0685 15.4461 18.1285L14.8895 18.492C13.0998 19.7207 11.9803 21.1633 11.8777 24.0923L11.8699 24.543H5.89209C5.89209 18.601 8.62621 15.5624 11.5106 13.571L12.0526 13.2094L12.5943 12.8696L13.132 12.549L15.418 11.2612L16.0311 10.9026C18.3115 9.53044 19.7744 8.12791 19.8923 4.75978L19.9001 4.30908L25.8781 4.30919Z" fill="#FF3C00"/>
</g>
</g>
<defs>
<clipPath id="clip0_12_6573">
<rect width="38" height="38" fill="white" transform="translate(0.776367 0.91333)"/>
</clipPath>
<clipPath id="clip1_12_6573">
<rect width="27.7686" height="31.2396" fill="white" transform="translate(5.89209 4.29346)"/>
</clipPath>
</defs>
</svg>
