<svg width="27" height="38" viewBox="0 0 27 38" fill="none" xmlns="http://www.w3.org/2000/svg">
<g clip-path="url(#clip0_83_33971)">
<path d="M26.1015 7.65723L23.7411 34.3423L13.1309 37.3107L2.54987 34.3464L0.191895 7.65723H26.1015Z" fill="#E44D26"/>
<path d="M13.1465 35.0419L21.7201 32.6433L23.7371 9.8396H13.1465V35.0419Z" fill="#F16529"/>
<path d="M8.55802 16.3864H13.1466V13.113H5.01318L5.09078 13.9912L5.88804 23.0116H13.1466V19.7383H8.85448L8.55802 16.3864ZM9.28907 24.6483H6.03297L6.48736 29.7879L13.1317 31.6492L13.1466 31.6451V28.2395L13.1324 28.2433L9.52002 27.2589L9.28907 24.6483Z" fill="#EBEBEB"/>
<path d="M2.60205 0.404297H4.25041V2.04777H5.75831V0.404297H7.40677V5.38116H5.75841V3.71462H4.25051V5.38116H2.60215L2.60205 0.404297ZM9.57432 2.05474H8.12339V0.404297H12.6748V2.05474H11.223V5.38116H9.57462V2.05474H9.57432ZM13.3971 0.404297H15.1159L16.1731 2.15303L17.2294 0.404297H18.9488V5.38116H17.3072V2.91435L16.1731 4.6839H16.1447L15.0099 2.91435V5.38116H13.3971V0.404297ZM19.7692 0.404297H21.418V3.73614H23.7361V5.38116H19.7691L19.7692 0.404297Z" fill="black"/>
<path d="M13.1354 23.0116H17.1295L16.7529 27.2569L13.1353 28.2422V31.6477L19.7849 29.7879L19.8336 29.2349L20.5959 20.6173L20.6751 19.7383H13.1354V23.0116ZM13.1354 16.3784V16.3864H20.9702L21.0352 15.6507L21.1831 13.9912L21.2606 13.113H13.1354V16.3784Z" fill="white"/>
</g>
<defs>
<clipPath id="clip0_83_33971">
<rect width="26" height="37" fill="white" transform="translate(0.146484 0.404297)"/>
</clipPath>
</defs>
</svg>
