<svg width="39" height="39" viewBox="0 0 39 39" fill="none" xmlns="http://www.w3.org/2000/svg">
<path d="M0.495605 15.3934C0.495605 10.291 0.495605 7.73978 1.48861 5.79091C2.36208 4.07663 3.75583 2.68288 5.47011 1.80941C7.41898 0.816406 9.9702 0.816406 15.0726 0.816406H23.9186C29.021 0.816406 31.5722 0.816406 33.5211 1.80941C35.2354 2.68288 36.6291 4.07663 37.5026 5.79091C38.4956 7.73978 38.4956 10.291 38.4956 15.3934V24.2394C38.4956 29.3418 38.4956 31.893 37.5026 33.8419C36.6291 35.5562 35.2354 36.9499 33.5211 37.8234C31.5722 38.8164 29.021 38.8164 23.9186 38.8164H15.0726C9.9702 38.8164 7.41898 38.8164 5.47011 37.8234C3.75583 36.9499 2.36208 35.5562 1.48861 33.8419C0.495605 31.893 0.495605 29.3418 0.495605 24.2394V15.3934Z" fill="#FF0066"/>
<g clip-path="url(#clip0_28_37765)">
<path d="M4.39893 4.71973H34.5923V34.9131H4.39893V4.71973Z" fill="#FF0066"/>
<path d="M14.673 14.4361C15.628 14.4221 16.3923 13.6391 16.3831 12.684C16.3737 11.7288 15.5945 10.9608 14.6393 10.9654C13.6841 10.97 12.9122 11.7454 12.9121 12.7006C12.9129 12.9305 12.9592 13.1579 13.0482 13.3698C13.1373 13.5816 13.2675 13.7738 13.4312 13.9351C13.5949 14.0964 13.7889 14.2238 14.002 14.3098C14.2151 14.3958 14.4432 14.4386 14.673 14.4361ZM11.022 23.7272C10.922 24.1546 10.8698 24.5917 10.8663 25.0305C10.8663 26.5582 11.6947 27.5726 13.4556 27.5726C14.9157 27.5726 16.1005 26.7055 16.952 25.3046L16.4314 27.394H19.33L20.9883 20.7514C21.4025 19.0678 22.2044 18.1947 23.4218 18.1947C24.3795 18.1947 24.975 18.79 24.975 19.7744C24.9797 20.0899 24.936 20.4043 24.8457 20.7067L23.9918 23.7611C23.8697 24.1817 23.8087 24.6177 23.8107 25.0557C23.8107 26.505 24.6646 27.5679 26.4508 27.5679C27.9786 27.5679 29.196 26.5848 29.8688 24.2285L28.7298 23.7876C28.1598 25.3673 27.6683 25.6523 27.2805 25.6523C26.8928 25.6523 26.6838 25.394 26.6838 24.8758C26.695 24.6039 26.7384 24.3343 26.8131 24.0726L27.6428 21.0957C27.8291 20.4836 27.9252 19.8477 27.9279 19.2079C27.9279 16.9808 26.5812 15.8191 24.9496 15.8191C23.4218 15.8191 21.8687 17.197 21.092 18.6476L21.6609 16.0436H17.2345L16.6126 18.3383H18.6851L17.4098 23.4398C16.4072 25.6669 14.5667 25.7031 14.336 25.6512C13.9567 25.5654 13.7152 25.4217 13.7152 24.9265C13.7263 24.5256 13.7871 24.1277 13.8964 23.7417L15.8384 16.0376H10.9205L10.2998 18.3323H12.3445L11.022 23.7272Z" fill="white"/>
</g>
<defs>
<clipPath id="clip0_28_37765">
<rect width="30.1934" height="30.1934" fill="white" transform="translate(4.39893 4.71973)"/>
</clipPath>
</defs>
</svg>
