<svg width="25" height="25" viewBox="0 0 25 25" fill="none" xmlns="http://www.w3.org/2000/svg">
<g clip-path="url(#clip0_2005_9386)">
<path d="M18.691 0.0713196H5.72852C2.57014 0.0713196 0.00976562 2.63169 0.00976562 5.79007V18.7526C0.00976562 21.9109 2.57014 24.4713 5.72852 24.4713H18.691C21.8494 24.4713 24.4098 21.9109 24.4098 18.7526V5.79007C24.4098 2.63169 21.8494 0.0713196 18.691 0.0713196Z" fill="white"/>
<path d="M18.691 0.0713196H5.72852C2.57014 0.0713196 0.00976562 2.63169 0.00976562 5.79007V18.7526C0.00976562 21.9109 2.57014 24.4713 5.72852 24.4713H18.691C21.8494 24.4713 24.4098 21.9109 24.4098 18.7526V5.79007C24.4098 2.63169 21.8494 0.0713196 18.691 0.0713196Z" fill="#4D4F52"/>
<path d="M16.648 19.288H18.9389C19.0219 19.288 19.1016 19.2551 19.1603 19.1964C19.219 19.1377 19.252 19.0581 19.252 18.975L19.2532 14.1348C19.2532 11.605 18.708 9.66045 15.7516 9.66045C14.6278 9.61866 13.568 10.198 12.9961 11.1654C12.9933 11.1701 12.989 11.1737 12.984 11.1758C12.9789 11.1778 12.9733 11.1782 12.968 11.1767C12.9627 11.1753 12.9581 11.1722 12.9547 11.1679C12.9514 11.1635 12.9496 11.1582 12.9495 11.1528V10.2071C12.9495 10.124 12.9165 10.0444 12.8578 9.9857C12.7991 9.92699 12.7195 9.894 12.6364 9.894H10.4624C10.3794 9.894 10.2997 9.92699 10.241 9.9857C10.1823 10.0444 10.1493 10.124 10.1493 10.2071V18.9746C10.1493 19.0576 10.1823 19.1372 10.241 19.196C10.2997 19.2547 10.3794 19.2876 10.4624 19.2876H12.7531C12.8362 19.2876 12.9158 19.2547 12.9745 19.196C13.0332 19.1372 13.0662 19.0576 13.0662 18.9746V14.6407C13.0662 13.4153 13.2987 12.2285 14.8179 12.2285C16.3156 12.2285 16.335 13.6307 16.335 14.72V18.975C16.335 19.058 16.3679 19.1376 16.4267 19.1963C16.4854 19.2551 16.565 19.288 16.648 19.288ZM5.16504 6.91734C5.16504 7.8459 5.92948 8.60995 6.85812 8.60995C7.78653 8.60987 8.55049 7.84536 8.55049 6.91695C8.55034 5.98854 7.78629 5.22458 6.8578 5.22458C5.92908 5.22458 5.16504 5.98878 5.16504 6.91734ZM5.7097 19.288H8.00348C8.08651 19.288 8.16614 19.2551 8.22486 19.1963C8.28357 19.1376 8.31655 19.058 8.31655 18.975V10.2071C8.31655 10.124 8.28357 10.0444 8.22486 9.9857C8.16614 9.92699 8.08651 9.894 8.00348 9.894H5.7097C5.62667 9.894 5.54704 9.92699 5.48833 9.9857C5.42962 10.0444 5.39663 10.124 5.39663 10.2071V18.975C5.39663 19.058 5.42962 19.1376 5.48833 19.1963C5.54704 19.2551 5.62667 19.288 5.7097 19.288Z" fill="white"/>
</g>
<defs>
<clipPath id="clip0_2005_9386">
<rect width="24.4" height="24.4" fill="white" transform="translate(0.00927734 0.0713196)"/>
</clipPath>
</defs>
</svg>
