<svg width="24" height="23" viewBox="0 0 24 23" fill="none" xmlns="http://www.w3.org/2000/svg">
<g clip-path="url(#clip0_2019_9424)">
<path d="M17.9689 0.676758H6.12137C3.23467 0.676758 0.894531 3.01689 0.894531 5.9036V17.7511C0.894531 20.6378 3.23467 22.9779 6.12137 22.9779H17.9689C20.8556 22.9779 23.1957 20.6378 23.1957 17.7511V5.9036C23.1957 3.01689 20.8556 0.676758 17.9689 0.676758Z" fill="white"/>
<path d="M17.9689 0.676758H6.12137C3.23467 0.676758 0.894531 3.01689 0.894531 5.9036V17.7511C0.894531 20.6378 3.23467 22.9779 6.12137 22.9779H17.9689C20.8556 22.9779 23.1957 20.6378 23.1957 17.7511V5.9036C23.1957 3.01689 20.8556 0.676758 17.9689 0.676758Z" fill="white"/>
<path d="M16.1017 18.2405H18.1955C18.2714 18.2405 18.3442 18.2103 18.3978 18.1567C18.4515 18.1031 18.4816 18.0303 18.4817 17.9544L18.4827 13.5305C18.4827 11.2183 17.9845 9.44104 15.2824 9.44104C14.2552 9.40284 13.2866 9.93234 12.7639 10.8165C12.7613 10.8208 12.7574 10.8241 12.7528 10.826C12.7482 10.8279 12.743 10.8282 12.7382 10.8269C12.7334 10.8256 12.7291 10.8227 12.7261 10.8188C12.723 10.8148 12.7214 10.81 12.7213 10.805V9.94064C12.7213 9.86475 12.6912 9.79197 12.6375 9.7383C12.5838 9.68464 12.5111 9.6545 12.4352 9.6545H10.4481C10.3723 9.6545 10.2995 9.68464 10.2458 9.7383C10.1922 9.79197 10.162 9.86475 10.162 9.94064V17.954C10.162 18.0299 10.1922 18.1027 10.2458 18.1563C10.2995 18.21 10.3723 18.2401 10.4481 18.2401H12.5418C12.6177 18.2401 12.6905 18.21 12.7442 18.1563C12.7978 18.1027 12.828 18.0299 12.828 17.954V13.9929C12.828 12.8729 13.0404 11.7882 14.429 11.7882C15.7978 11.7882 15.8156 13.0698 15.8156 14.0654V17.9543C15.8156 18.0302 15.8457 18.103 15.8994 18.1567C15.953 18.2103 16.0258 18.2405 16.1017 18.2405ZM5.60645 6.93388C5.60645 7.78257 6.30513 8.48089 7.15389 8.48089C8.00244 8.48082 8.70069 7.78207 8.70069 6.93352C8.70055 6.08497 8.00222 5.38672 7.1536 5.38672C6.30477 5.38672 5.60645 6.08519 5.60645 6.93388ZM6.10426 18.2405H8.20073C8.27662 18.2405 8.3494 18.2103 8.40306 18.1567C8.45673 18.103 8.48687 18.0302 8.48687 17.9543V9.94064C8.48687 9.86475 8.45673 9.79197 8.40306 9.7383C8.3494 9.68464 8.27662 9.6545 8.20073 9.6545H6.10426C6.02837 9.6545 5.95559 9.68464 5.90193 9.7383C5.84826 9.79197 5.81812 9.86475 5.81812 9.94064V17.9543C5.81812 18.0302 5.84826 18.103 5.90193 18.1567C5.95559 18.2103 6.02837 18.2405 6.10426 18.2405Z" fill="#252A36"/>
</g>
<defs>
<clipPath id="clip0_2019_9424">
<rect width="22.3012" height="22.3012" fill="white" transform="translate(0.895508 0.676758)"/>
</clipPath>
</defs>
</svg>
