<svg width="39" height="39" viewBox="0 0 39 39" fill="none" xmlns="http://www.w3.org/2000/svg">
<g clip-path="url(#clip0_20_17282)">
<path d="M7.33278 0.759766H31.8743C35.5953 0.759766 38.6035 3.84513 38.6035 7.66158V31.858C38.6035 35.6744 35.5953 38.7598 31.8743 38.7598H7.33278C3.61175 38.7598 0.603516 35.6744 0.603516 31.858V7.66158C0.603516 3.84513 3.61175 0.759766 7.33278 0.759766Z" fill="#F6F6F6"/>
<path fill-rule="evenodd" clip-rule="evenodd" d="M16.2454 8.02447C17.0916 6.67831 18.2262 5.50523 19.5531 4.62061C20.8608 5.48599 21.9762 6.63984 22.8224 7.96677C25.0339 11.0437 26.1493 14.7553 25.9955 18.5437C26.2792 18.7723 26.5662 18.9977 26.8525 19.2225L26.8525 19.2225C27.2646 19.5461 27.6752 19.8685 28.0724 20.1976C29.034 21.063 29.4955 22.3707 29.2647 23.6399C29.1558 24.1656 29.0489 24.6912 28.9421 25.2168L28.9419 25.2175C28.7283 26.2686 28.5147 27.3197 28.284 28.3707C28.0532 29.063 27.3032 29.4284 26.6301 29.1977C26.5147 29.1592 26.3993 29.1015 26.3032 29.0246C25.6572 28.5123 25.0242 27.9871 24.3891 27.4601L24.389 27.4601C23.9275 27.0772 23.4649 26.6934 22.9955 26.313C21.0916 28.1207 18.1301 28.1399 16.207 26.3515C15.7007 26.722 15.2102 27.1479 14.7203 27.5734L14.7203 27.5734L14.7202 27.5735C14.4473 27.8106 14.1745 28.0475 13.8993 28.2746C13.5531 28.6015 13.1877 28.9092 12.7646 29.14C12.0916 29.4092 11.3223 29.063 11.0723 28.39C11.0639 28.3731 11.0592 28.3562 11.0549 28.341C11.0494 28.3215 11.0447 28.3046 11.0339 28.2938C10.8608 27.5246 10.6781 26.7553 10.4954 25.9861C10.3127 25.2169 10.13 24.4476 9.95694 23.6784C9.68771 22.3322 10.1685 20.9668 11.2069 20.0822C11.8031 19.6014 12.4185 19.1207 13.0339 18.6399C13.1556 18.5723 13.1442 18.4572 13.1333 18.348C13.1288 18.3018 13.1243 18.2568 13.13 18.2168C13.0531 14.5822 14.1493 11.0053 16.2454 8.02447ZM17.3416 12.7937C16.5339 13.8322 16.63 15.313 17.5724 16.236C18.6493 17.2745 20.3608 17.313 21.4762 16.313C22.2647 15.6014 22.5339 14.4668 22.1685 13.4668C21.7839 12.5053 20.8993 11.8322 19.8608 11.7553C18.8801 11.6399 17.9377 12.0437 17.3416 12.7937ZM15.8609 29.5822C15.8801 29.2168 16.207 28.9476 16.5532 28.986C16.6493 28.986 16.7455 29.0245 16.8224 29.063C18.534 29.8899 20.534 29.8899 22.2647 29.063C22.5917 28.8899 22.9763 29.0245 23.1494 29.3322C23.1878 29.3899 23.2071 29.4668 23.2263 29.5437L23.2263 29.5437V32.4284C23.1878 32.7745 22.8609 33.0438 22.5147 33.0053C22.3994 32.9861 22.3032 32.9476 22.2071 32.8899C22.0628 32.7649 21.9282 32.6351 21.7936 32.5053C21.659 32.3755 21.5244 32.2457 21.3801 32.1207C21.159 32.5341 20.9474 32.9476 20.7359 33.361C20.5244 33.7745 20.3128 34.188 20.0917 34.6015C19.8993 34.9092 19.4955 34.9861 19.1878 34.7938C19.1109 34.7553 19.0532 34.6784 19.0147 34.6207C18.8378 34.2899 18.667 33.9591 18.4963 33.6284C18.2401 33.1322 17.984 32.6361 17.707 32.1399C17.4378 32.4091 17.1686 32.6784 16.8801 32.9091C16.5916 33.1207 16.1686 33.0438 15.9763 32.7361C15.9186 32.6399 15.8801 32.5438 15.8609 32.4284V29.5822ZM20.8801 14.4285C20.8608 15.1592 20.2647 15.7362 19.5339 15.7169C18.8031 15.7362 18.1877 15.14 18.1877 14.4092C18.207 13.6785 18.8031 13.1015 19.5339 13.1208C20.2647 13.1208 20.8608 13.6977 20.8801 14.4285Z" fill="#764ABC"/>
</g>
<defs>
<clipPath id="clip0_20_17282">
<rect width="38" height="38" fill="white" transform="translate(0.603516 0.759766)"/>
</clipPath>
</defs>
</svg>
