<svg width="39" height="39" viewBox="0 0 39 39" fill="none" xmlns="http://www.w3.org/2000/svg">
<g clip-path="url(#clip0_20_23802)">
<path d="M7.33278 0.362549H31.8743C35.5953 0.362549 38.6035 3.44792 38.6035 7.26436V31.4607C38.6035 35.2772 35.5953 38.3625 31.8743 38.3625H7.33278C3.61175 38.3625 0.603516 35.2772 0.603516 31.4607V7.26436C0.603516 3.44792 3.61175 0.362549 7.33278 0.362549Z" fill="#F7F7F7"/>
<g clip-path="url(#clip1_20_23802)">
<path d="M21.3047 19.4785L23.8314 22.3667L27.2293 24.5378L27.8204 19.4967L27.2293 14.5693L23.7663 16.4766L21.3047 19.4785Z" fill="#00832D"/>
<path d="M6.64258 24.0687V28.3645C6.64258 29.3453 7.43875 30.1417 8.4198 30.1417H12.7155L13.6051 26.8959L12.7155 24.0687L9.76835 23.1792L6.64258 24.0687Z" fill="#0066DA"/>
<path d="M12.7155 8.81543L6.64258 14.8884L9.76855 15.7758L12.7155 14.8884L13.5889 12.0996L12.7155 8.81543Z" fill="#E94235"/>
<path d="M6.64258 24.0705H12.7154V14.8882H6.64258V24.0705Z" fill="#2684FC"/>
<path d="M31.1119 11.3867L27.2324 14.5693V24.5377L31.1279 27.7327C31.7111 28.1895 32.5642 27.7732 32.5642 27.0319V12.0733C32.5642 11.3238 31.6908 10.9095 31.1118 11.3868" fill="#00AC47"/>
<path d="M21.308 19.4785V24.0687H12.7188V30.1416H25.4555C26.4366 30.1416 27.2326 29.3452 27.2326 28.3644V24.5378L21.308 19.4785Z" fill="#00AC47"/>
<path d="M25.4555 8.81519H12.7188V14.8881H21.308V19.4783L27.2327 14.569V10.5925C27.2327 9.61146 26.4366 8.81529 25.4555 8.81529" fill="#FFBA00"/>
</g>
</g>
<defs>
<clipPath id="clip0_20_23802">
<rect width="38.268" height="38" fill="white" transform="translate(0.46875 0.362549)"/>
</clipPath>
<clipPath id="clip1_20_23802">
<rect width="25.9182" height="21.3622" fill="white" transform="translate(6.64258 8.81543)"/>
</clipPath>
</defs>
</svg>
