<svg width="25" height="25" viewBox="0 0 25 25" fill="none" xmlns="http://www.w3.org/2000/svg">
<g opacity="0.8" clip-path="url(#clip0_42_26088)">
<path d="M12.9245 24.4206C9.73502 24.4206 6.67613 23.1536 4.4208 20.8983C2.16547 18.6429 0.898438 15.584 0.898438 12.3945C0.898438 9.20499 2.16547 6.1461 4.4208 3.89077C6.67613 1.63544 9.73502 0.368408 12.9245 0.368408C16.1141 0.368408 19.173 1.63544 21.4283 3.89077C23.6836 6.1461 24.9506 9.20499 24.9506 12.3945C24.9506 15.584 23.6836 18.6429 21.4283 20.8983C19.173 23.1536 16.1141 24.4206 12.9245 24.4206ZM12.9245 22.0154C15.4762 22.0154 17.9233 21.0018 19.7275 19.1975C21.5318 17.3932 22.5454 14.9461 22.5454 12.3945C22.5454 9.8429 21.5318 7.39579 19.7275 5.59152C17.9233 3.78726 15.4762 2.77363 12.9245 2.77363C10.3729 2.77363 7.92582 3.78726 6.12155 5.59152C4.31728 7.39579 3.30366 9.8429 3.30366 12.3945C3.30366 14.9461 4.31728 17.3932 6.12155 19.1975C7.92582 21.0018 10.3729 22.0154 12.9245 22.0154ZM18.9376 11.1919V13.5971H6.91149V11.1919H18.9376Z" fill="#D3D3D3"/>
</g>
<defs>
<clipPath id="clip0_42_26088">
<rect width="24.0522" height="24.0522" fill="white" transform="translate(0.898438 0.368652)"/>
</clipPath>
</defs>
</svg>
