<svg width="37" height="37" viewBox="0 0 37 37" fill="none" xmlns="http://www.w3.org/2000/svg">
<path d="M18.1218 34.181C17.6978 34.1811 17.2811 34.0696 16.9138 33.8576L13.0695 31.5818C12.4958 31.2607 12.7754 31.1473 12.9651 31.0811C13.5753 30.8926 14.1595 30.6286 14.7042 30.2952C14.7498 30.2741 14.8001 30.265 14.8502 30.2687C14.9003 30.2725 14.9486 30.2889 14.9905 30.3165L17.9445 32.0714C17.9995 32.1005 18.0607 32.1157 18.123 32.1157C18.1852 32.1157 18.2465 32.1005 18.3015 32.0714L29.8207 25.4225C29.8746 25.3902 29.9192 25.3445 29.9501 25.2898C29.981 25.2351 29.9972 25.1732 29.997 25.1104V11.8105C29.997 11.7467 29.9806 11.6839 29.9494 11.6283C29.9181 11.5726 29.873 11.5259 29.8185 11.4928L18.2992 4.84956C18.2449 4.81897 18.1836 4.8029 18.1213 4.8029C18.0589 4.8029 17.9977 4.81897 17.9433 4.84956L6.43083 11.495C6.37591 11.5275 6.33031 11.5736 6.29845 11.6289C6.26658 11.6841 6.24953 11.7467 6.24894 11.8105V25.1048C6.2491 25.1675 6.26592 25.229 6.29768 25.2831C6.32945 25.3371 6.37501 25.3818 6.4297 25.4124L9.58907 27.2357C11.3012 28.0913 12.3499 27.083 12.3499 26.0703V12.9445C12.3499 12.8551 12.3854 12.7695 12.4485 12.7063C12.5117 12.6431 12.5974 12.6076 12.6867 12.6076H14.1462C14.2356 12.6076 14.3213 12.6431 14.3844 12.7063C14.4476 12.7695 14.4831 12.8551 14.4831 12.9445V26.0715C14.4831 28.3562 13.2391 29.6642 11.0722 29.6642C10.1374 29.6805 9.21724 29.4305 8.41919 28.9434L5.39117 27.2066C5.02358 26.9925 4.71856 26.6857 4.50658 26.3169C4.2946 25.9481 4.18306 25.5302 4.18311 25.1048V11.8105C4.18202 11.3845 4.29308 10.9656 4.50514 10.5961C4.7172 10.2266 5.02278 9.91939 5.39117 9.70538L16.9115 3.05431C17.2826 2.85128 17.6988 2.74487 18.1218 2.74487C18.5449 2.74487 18.9611 2.85128 19.3322 3.05431L30.8514 9.70538C31.219 9.91903 31.524 10.2253 31.7362 10.5937C31.9484 10.9621 32.0602 11.3798 32.0606 11.8049V25.1048C32.06 25.5302 31.948 25.948 31.7359 26.3167C31.5238 26.6854 31.2188 26.9922 30.8514 27.2066L19.3322 33.8576C18.9642 34.0699 18.5467 34.1815 18.1218 34.181Z" fill="#83CD29"/>
<path d="M15.9375 20.6553C15.9375 20.566 15.973 20.4803 16.0362 20.4171C16.0993 20.354 16.185 20.3185 16.2743 20.3185H17.7642C17.8438 20.3187 17.9207 20.3472 17.9814 20.3988C18.042 20.4503 18.0824 20.5217 18.0954 20.6003C18.3199 22.1171 18.9936 22.8817 22.0396 22.8817C24.4658 22.8817 25.4998 22.3327 25.4998 21.0449C25.4998 20.3027 25.2068 19.7515 21.4355 19.3821C18.2829 19.07 16.3338 18.3716 16.3338 15.8522C16.3338 13.5282 18.293 12.1416 21.577 12.1416C25.2674 12.1416 27.0941 13.4226 27.3254 16.1711C27.3289 16.217 27.323 16.2631 27.308 16.3066C27.293 16.3501 27.2693 16.3901 27.2383 16.4241C27.2072 16.4581 27.1696 16.4853 27.1276 16.5042C27.0856 16.523 27.0402 16.5331 26.9942 16.5337H25.4942C25.419 16.5327 25.3462 16.5065 25.2876 16.4592C25.229 16.412 25.1879 16.3466 25.1709 16.2733C24.8127 14.6779 23.9359 14.1681 21.5781 14.1681C18.9285 14.1681 18.6208 15.091 18.6208 15.7826C18.6208 16.6202 18.9846 16.8649 22.5616 17.3376C26.1016 17.8058 27.7835 18.4682 27.7835 20.9562C27.7835 23.4666 25.6907 24.9037 22.0407 24.9037C16.994 24.9104 15.9375 22.5965 15.9375 20.6553Z" fill="#83CD29"/>
</svg>
