<svg width="39" height="39" viewBox="0 0 39 39" fill="none" xmlns="http://www.w3.org/2000/svg">
<path d="M0.603516 14.9396C0.603516 9.83715 0.603516 7.28593 1.59652 5.33705C2.46999 3.62277 3.86374 2.22902 5.57802 1.35555C7.52689 0.362549 10.0781 0.362549 15.1806 0.362549H24.0265C29.1289 0.362549 31.6801 0.362549 33.629 1.35555C35.3433 2.22902 36.737 3.62277 37.6105 5.33705C38.6035 7.28593 38.6035 9.83715 38.6035 14.9396V23.7855C38.6035 28.888 38.6035 31.4392 37.6105 33.388C36.737 35.1023 35.3433 36.4961 33.629 37.3695C31.6801 38.3625 29.1289 38.3625 24.0265 38.3625H15.1806C10.0781 38.3625 7.52689 38.3625 5.57802 37.3695C3.86374 36.4961 2.46999 35.1023 1.59652 33.388C0.603516 31.4392 0.603516 28.888 0.603516 23.7855V14.9396Z" fill="#DEDBD8"/>
<path d="M10.5735 8.83078L23.3339 7.8911C24.9008 7.7567 25.304 7.84672 26.2889 8.56217L30.3621 11.425C31.0342 11.9173 31.2583 12.0514 31.2583 12.588V28.2898C31.2583 29.2739 30.8998 29.8559 29.6464 29.9449L14.828 30.8397C13.8871 30.8846 13.4394 30.7505 12.9466 30.1239L9.94704 26.232C9.40955 25.5157 9.18604 24.9797 9.18604 24.3527V10.3959C9.18604 9.59114 9.54461 8.91989 10.5735 8.83078Z" fill="#E8E5E3"/>
<path fill-rule="evenodd" clip-rule="evenodd" d="M23.3339 7.8911L10.5735 8.83078C9.54461 8.91989 9.18604 9.59114 9.18604 10.3959V24.3527C9.18604 24.9797 9.40955 25.5157 9.94704 26.232L12.9466 30.1239C13.4394 30.7505 13.8871 30.8846 14.828 30.8397L29.6464 29.9449C30.8998 29.8559 31.2583 29.2739 31.2583 28.2898V12.588C31.2583 12.0794 31.057 11.9324 30.4637 11.4992C30.431 11.4754 30.3972 11.4507 30.3621 11.425L26.2889 8.56217C25.304 7.84672 24.9008 7.7567 23.3339 7.8911ZM15.1647 12.3305C13.9549 12.4122 13.68 12.4308 12.9929 11.8726L11.2458 10.4859C11.0676 10.3066 11.1569 10.0829 11.6043 10.0386L23.872 9.1438C24.9014 9.05414 25.4386 9.41259 25.8417 9.72558L27.9458 11.2467C28.0354 11.2912 28.2589 11.5593 27.9902 11.5593L15.3209 12.32L15.1647 12.3305ZM13.7535 28.1555V14.8253C13.7535 14.2438 13.9326 13.9752 14.4695 13.9301L29.0197 13.0805C29.5132 13.0357 29.7367 13.3491 29.7367 13.9301V27.1709C29.7367 27.7529 29.6469 28.2456 28.8408 28.29L14.9173 29.0956C14.1115 29.1399 13.7535 28.8719 13.7535 28.1555ZM27.4986 15.5402C27.5878 15.9432 27.4986 16.3459 27.0949 16.3911L26.424 16.5248V26.3661C25.8415 26.6791 25.3044 26.8581 24.8568 26.8581C24.1402 26.8581 23.9607 26.6342 23.424 25.9636L19.0358 19.0747V25.7399L20.4244 26.0533C20.4244 26.0533 20.4244 26.8581 19.3041 26.8581L16.2156 27.0372C16.1259 26.8581 16.2156 26.4111 16.5289 26.3215L17.3348 26.0982V17.2855L16.2158 17.1959C16.1261 16.7929 16.3496 16.2118 16.9768 16.1667L20.29 15.9434L24.8568 22.922V16.7485L23.6925 16.6148C23.6031 16.1222 23.9607 15.7644 24.4085 15.7201L27.4986 15.5402Z" fill="black"/>
</svg>
