<svg width="39" height="39" viewBox="0 0 39 39" fill="none" xmlns="http://www.w3.org/2000/svg">
<g clip-path="url(#clip0_12_6351)">
<path d="M7.50563 0.766357H32.0471C35.6241 0.766357 38.5264 3.73379 38.5264 7.41817V31.6145C38.5264 35.2989 35.6241 38.2664 32.0471 38.2664H7.50563C3.9286 38.2664 1.02637 35.2989 1.02637 31.6145V7.41817C1.02637 3.73379 3.9286 0.766357 7.50563 0.766357Z" fill="#001E36" stroke="#032642" stroke-width="0.5"/>
<path d="M14.6902 10.0505C14.2248 10.0505 13.7593 10.0505 13.2785 10.0667C12.7974 10.0825 12.3474 10.0825 11.9285 10.0987C11.5096 10.1145 11.1219 10.1145 10.7495 10.1304C10.3926 10.1462 10.1445 10.1462 9.88063 10.1462C9.77213 10.1462 9.72559 10.2099 9.72559 10.3217V26.7291C9.72559 26.8726 9.78755 26.9366 9.91176 26.9366H12.9216C13.0301 26.9205 13.1077 26.8248 13.092 26.7133V21.5949C13.3867 21.5949 13.604 21.5949 13.7593 21.6108C13.9144 21.6266 14.1625 21.6266 14.5348 21.6266C15.8072 21.6266 16.9707 21.4831 18.0255 21.0846C19.034 20.7019 19.9029 20.0322 20.5234 19.1392C21.1438 18.2465 21.4542 17.1143 21.4542 15.7429C21.4542 15.0254 21.3303 14.3398 21.0976 13.6702C20.8512 12.9878 20.4649 12.3679 19.9649 11.8524C19.3749 11.2633 18.6647 10.8166 17.8859 10.5447C17.017 10.2099 15.9622 10.0505 14.6902 10.0505ZM15.0363 13.1912C15.589 13.202 16.1272 13.3012 16.6292 13.5105C17.0792 13.686 17.4516 14.005 17.7154 14.4194C17.9632 14.8481 18.087 15.3405 18.0723 15.8389C18.0723 16.5403 17.917 17.0826 17.5912 17.4811C17.2497 17.8796 16.8154 18.1828 16.3192 18.3263C15.7449 18.5176 15.1399 18.613 14.5348 18.613H13.7125C13.5263 18.613 13.325 18.5972 13.1077 18.5813V13.2238C13.2162 13.2076 13.4335 13.1918 13.7439 13.2079C14.0386 13.1918 14.3952 13.1918 14.7987 13.1918C14.8781 13.1897 14.9575 13.1894 15.0363 13.1912ZM28.0478 14.0053C26.9462 14.0053 26.0308 14.1805 25.3018 14.5632C24.6348 14.8822 24.0606 15.3922 23.6728 16.0299C23.3316 16.6201 23.1451 17.2736 23.1451 17.9595C23.1319 18.5235 23.2545 19.0822 23.5021 19.5858C23.7923 20.122 24.1951 20.585 24.6813 20.9411C25.3638 21.4207 26.1044 21.8067 26.8842 22.0891C27.6443 22.392 28.1563 22.6311 28.4047 22.8383C28.6528 23.0458 28.777 23.253 28.777 23.4763C28.777 23.7633 28.6063 24.0345 28.3582 24.146C28.0789 24.2895 27.66 24.3694 27.0704 24.3694C26.4499 24.3694 25.8292 24.2895 25.2395 24.1302C24.5626 23.9746 23.9135 23.711 23.3159 23.349C23.2694 23.317 23.2228 23.3011 23.1763 23.3331C23.1297 23.3648 23.1143 23.4285 23.1143 23.4763V26.2508C23.0989 26.3784 23.1763 26.4899 23.2851 26.5536C23.7881 26.7952 24.3203 26.9668 24.8675 27.064C25.5656 27.2075 26.2635 27.2711 26.977 27.2711C28.094 27.2711 29.0252 27.0959 29.7853 26.7611C30.4834 26.4741 31.0884 25.9799 31.5227 25.3419C31.9293 24.7146 32.1404 23.9749 32.1278 23.2213C32.1429 22.652 32.0204 22.0877 31.7712 21.5791C31.4762 21.0367 31.0573 20.5904 30.5454 20.2555C29.7964 19.7722 28.9944 19.3814 28.1563 19.0914C27.7819 18.9322 27.4144 18.7566 27.0547 18.5652C26.8531 18.4537 26.6669 18.3102 26.5273 18.1347C26.4342 18.007 26.3723 17.8638 26.3723 17.7203C26.3723 17.5768 26.4188 17.4174 26.4962 17.2898C26.605 17.1304 26.7754 17.0186 26.977 16.9708C27.272 16.8912 27.5978 16.8431 27.9079 16.859C28.4975 16.859 29.0714 16.9388 29.6456 17.0664C30.1733 17.178 30.6696 17.3534 31.135 17.6088C31.1969 17.6405 31.2746 17.6405 31.4142 17.6088C31.4385 17.5904 31.4583 17.5663 31.4718 17.5386C31.4853 17.5108 31.4922 17.4801 31.4919 17.4491V14.8502C31.4919 14.7862 31.4762 14.7225 31.4608 14.6588C31.4297 14.5952 31.3677 14.5312 31.3057 14.5153C30.8779 14.3355 30.4295 14.2122 29.9714 14.1485C29.3344 14.0532 28.6915 14.0055 28.0478 14.0053Z" fill="#31A8FF"/>
</g>
<defs>
<clipPath id="clip0_12_6351">
<rect width="38" height="38" fill="white" transform="translate(0.776367 0.516357)"/>
</clipPath>
</defs>
</svg>
