<svg width="20" height="20" viewBox="0 0 33 33" fill="none" xmlns="http://www.w3.org/2000/svg">
<path d="M31.0589 16.8181L27.6053 13.7268L28.6364 12.889C29.0978 12.5119 29.4885 12.0564 29.7903 11.5438C30.9308 9.57876 30.5989 7.1662 28.9643 5.54058C27.3297 3.91495 24.904 3.58489 22.9283 4.7192C22.4129 5.01936 21.9551 5.4079 21.5759 5.86683L20.7334 6.89226L17.6251 3.45751L17.5888 3.41933C17.3057 3.13845 16.9222 2.98071 16.5223 2.98071C16.1224 2.98071 15.7389 3.13845 15.4558 3.41933L11.3334 7.51964L11.4082 9.00089L13.4888 10.6919C13.7666 10.9177 14.0023 11.1903 14.185 11.4975C14.8641 12.6676 14.6607 14.11 13.6787 15.0866C12.6968 16.0632 11.2467 16.2655 10.07 15.5902C9.76095 15.4084 9.48653 15.1738 9.25931 14.8973L7.55963 12.8286L6.07027 12.7543L1.59216 17.208C1.4521 17.3473 1.341 17.5127 1.2652 17.6947C1.1894 17.8767 1.15039 18.0717 1.15039 18.2687C1.15039 18.4657 1.1894 18.6608 1.2652 18.8427C1.341 19.0247 1.4521 19.1901 1.59216 19.3294L12.6119 30.2893C13.0788 30.7536 13.633 31.1219 14.2429 31.3732C14.8529 31.6245 15.5066 31.7538 16.1668 31.7538C16.827 31.7538 17.4808 31.6245 18.0907 31.3732C18.7007 31.1219 19.2549 30.7536 19.7217 30.2893L31.0971 18.9756C31.3794 18.6941 31.538 18.3127 31.538 17.915C31.538 17.5174 31.3794 17.1359 31.0971 16.8544L31.0589 16.8181ZM18.2997 28.8751C18.0196 29.1537 17.6871 29.3747 17.3211 29.5255C16.9552 29.6762 16.5629 29.7538 16.1668 29.7538C15.7707 29.7538 15.3784 29.6762 15.0125 29.5255C14.6465 29.3747 14.314 29.1537 14.0338 28.8751L3.36927 18.2685L6.70617 14.9501L7.70599 16.1671L7.71227 16.1746C8.09141 16.6336 8.54929 17.0221 9.06469 17.3223C11.0405 18.4566 13.4662 18.1265 15.1008 16.5008C16.7354 14.8751 17.0672 12.4626 15.9267 10.4976C15.6249 9.98504 15.2342 9.52965 14.7727 9.15258L13.5416 8.15195L16.503 5.2067L20.0232 9.09676L21.5492 9.06058L23.1241 7.1437C23.3511 6.8674 23.6253 6.63303 23.934 6.45133C25.1105 5.77589 26.5608 5.97826 27.5428 6.95483C28.5247 7.93139 28.7282 9.37358 28.0491 10.544C27.8664 10.8511 27.6307 11.1238 27.3529 11.3495L25.4255 12.9158L25.3891 14.4335L29.3005 17.9346L18.2997 28.8751Z" fill="#ADAEAF"/>
</svg>
