<svg width="36" height="35" viewBox="0 0 36 35" fill="none" xmlns="http://www.w3.org/2000/svg">
<g clip-path="url(#clip0_19_3740)">
<path d="M27.0447 0.15332H8.65372C4.17266 0.15332 0.540039 3.78594 0.540039 8.267V26.658C0.540039 31.1391 4.17266 34.7717 8.65372 34.7717H27.0447C31.5258 34.7717 35.1584 31.1391 35.1584 26.658V8.267C35.1584 3.78594 31.5258 0.15332 27.0447 0.15332Z" fill="#242938"/>
<path d="M17.8495 20.0251C19.2429 20.0251 20.3723 18.8956 20.3723 17.5023C20.3723 16.1091 19.2429 14.9795 17.8495 14.9795C16.4562 14.9795 15.3267 16.1091 15.3267 17.5023C15.3267 18.8956 16.4562 20.0251 17.8495 20.0251Z" fill="#00D8FF"/>
<path d="M17.8497 12.3728C21.2369 12.3728 24.3835 12.8588 26.7561 13.6757C29.6147 14.6598 31.3723 16.1515 31.3723 17.5023C31.3723 18.9099 29.5096 20.4946 26.4398 21.5116C24.119 22.2806 21.065 22.6819 17.8497 22.6819C14.5531 22.6819 11.4314 22.3052 9.08439 21.5031C6.11505 20.4882 4.32666 18.8831 4.32666 17.5023C4.32666 16.1624 6.00484 14.6822 8.82326 13.6997C11.2046 12.8694 14.4289 12.3728 17.8492 12.3728H17.8497Z" stroke="#00D8FF" stroke-width="1.20502"/>
<path d="M13.3843 14.9522C15.0766 12.018 17.0694 9.53498 18.9623 7.88791C21.2428 5.90316 23.4132 5.12587 24.5832 5.80053C25.8026 6.50371 26.2449 8.90915 25.5924 12.0765C25.0995 14.4709 23.9211 17.3169 22.3148 20.1024C20.6678 22.9581 18.7821 25.4742 16.915 27.1061C14.5524 29.1713 12.2683 29.9187 11.0722 29.2289C9.91152 28.5601 9.4677 26.3665 10.0246 23.4341C10.495 20.9563 11.6757 17.9152 13.3838 14.9522H13.3843Z" stroke="#00D8FF" stroke-width="1.20502"/>
<path d="M13.3888 20.11C11.6918 17.1791 10.5364 14.2119 10.0542 11.7494C9.47367 8.78237 9.88409 6.51392 11.0531 5.83724C12.2714 5.13189 14.5761 5.95002 16.9942 8.09717C18.8225 9.72044 20.6999 12.1623 22.3109 14.945C23.9625 17.798 25.2004 20.6885 25.682 23.121C26.2913 26.1993 25.7981 28.5513 24.6031 29.243C23.4437 29.9143 21.3218 29.2037 19.0593 27.2567C17.1477 25.6118 15.1025 23.0702 13.3888 20.11Z" stroke="#00D8FF" stroke-width="1.20502"/>
</g>
<defs>
<clipPath id="clip0_19_3740">
<rect width="34.6184" height="34.6184" fill="white" transform="translate(0.540039 0.15332)"/>
</clipPath>
</defs>
</svg>
