<svg width="39" height="39" viewBox="0 0 39 39" fill="none" xmlns="http://www.w3.org/2000/svg">
<path d="M0.495605 14.997C0.495605 9.89452 0.495605 7.3433 1.48861 5.39442C2.36208 3.68014 3.75583 2.28639 5.47011 1.41292C7.41898 0.419922 9.9702 0.419922 15.0726 0.419922H23.9186C29.021 0.419922 31.5722 0.419922 33.5211 1.41292C35.2354 2.28639 36.6291 3.68014 37.5026 5.39442C38.4956 7.3433 38.4956 9.89452 38.4956 14.997V23.8429C38.4956 28.9453 38.4956 31.4965 37.5026 33.4454C36.6291 35.1597 35.2354 36.5535 33.5211 37.4269C31.5722 38.4199 29.021 38.4199 23.9186 38.4199H15.0726C9.9702 38.4199 7.41898 38.4199 5.47011 37.4269C3.75583 36.5535 2.36208 35.1597 1.48861 33.4454C0.495605 31.4965 0.495605 28.9453 0.495605 23.8429V14.997Z" fill="#F6F6F6"/>
<path d="M11.6046 8.68003L19.4956 7.85303L27.3866 8.68103L33.4956 16.82L19.4956 32.987L5.49561 16.82L11.6046 8.68003Z" fill="#FDB300"/>
<path d="M11.1666 16.8149L19.4956 32.9869L5.49561 16.8149H11.1666ZM27.8246 16.8149L19.4956 32.9869L33.4956 16.8149H27.8246Z" fill="#EA6C00"/>
<path d="M11.1665 16.8149H27.8245L19.4955 32.9869L11.1665 16.8149Z" fill="#FDAD00"/>
<path d="M19.4955 7.85303L11.6045 8.68003L11.1665 16.815L19.4955 7.85303ZM19.4955 7.85303L27.3865 8.68003L27.8245 16.815L19.4955 7.85303Z" fill="#FDD231"/>
<path d="M33.4956 16.8147L27.3866 8.67969L27.8246 16.8147H33.4956ZM5.49561 16.8147L11.6046 8.67969L11.1666 16.8147H5.49561Z" fill="#FDAD00"/>
<path d="M19.4955 7.85303L11.1665 16.815H27.8245L19.4955 7.85303Z" fill="#FEEEB7"/>
</svg>
