<svg width="39" height="39" viewBox="0 0 39 39" fill="none" xmlns="http://www.w3.org/2000/svg">
<path d="M0.776367 15.0934C0.776367 9.99096 0.776367 7.43973 1.76937 5.49086C2.64284 3.77658 4.03659 2.38283 5.75087 1.50936C7.69974 0.516357 10.251 0.516357 15.3534 0.516357H24.1993C29.3018 0.516357 31.853 0.516357 33.8019 1.50936C35.5161 2.38283 36.9099 3.77658 37.7834 5.49086C38.7764 7.43973 38.7764 9.99096 38.7764 15.0934V23.9393C38.7764 29.0418 38.7764 31.593 37.7834 33.5419C36.9099 35.2561 35.5161 36.6499 33.8019 37.5234C31.853 38.5164 29.3018 38.5164 24.1993 38.5164H15.3534C10.251 38.5164 7.69974 38.5164 5.75087 37.5234C4.03659 36.6499 2.64284 35.2561 1.76937 33.5419C0.776367 31.593 0.776367 29.0418 0.776367 23.9393V15.0934Z" fill="#F6F6F6"/>
<path fill-rule="evenodd" clip-rule="evenodd" d="M16.8916 7.96948C15.615 7.97042 14.5818 9.00436 14.5828 10.2784C14.5818 11.5525 15.6159 12.5864 16.8925 12.5873H19.2023V10.2794C19.2033 9.0053 18.1691 7.97137 16.8916 7.96948C16.8925 7.96948 16.8925 7.96948 16.8916 7.96948V7.96948ZM16.8916 14.1279H10.7341C9.45749 14.1288 8.42338 15.1627 8.42432 16.4368C8.42243 17.7109 9.45655 18.7448 10.7331 18.7467H16.8916C18.1682 18.7457 19.2023 17.7118 19.2014 16.4377C19.2023 15.1627 18.1682 14.1288 16.8916 14.1279Z" fill="#36C5F0"/>
<path fill-rule="evenodd" clip-rule="evenodd" d="M31.5178 16.4368C31.5187 15.1627 30.4846 14.1288 29.208 14.1279C27.9314 14.1288 26.8973 15.1627 26.8982 16.4368V18.7467H29.208C30.4846 18.7457 31.5187 17.7118 31.5178 16.4368ZM25.3593 16.4368V10.2784C25.3603 9.0053 24.3271 7.97137 23.0505 7.96948C21.7739 7.97042 20.7398 9.00436 20.7407 10.2784V16.4368C20.7388 17.7109 21.773 18.7448 23.0496 18.7467C24.3262 18.7457 25.3603 17.7118 25.3593 16.4368Z" fill="#2EB67D"/>
<path fill-rule="evenodd" clip-rule="evenodd" d="M23.0505 31.0635C24.3271 31.0626 25.3612 30.0287 25.3603 28.7546C25.3612 27.4805 24.3271 26.4466 23.0505 26.4457H20.7407V28.7546C20.7398 30.0277 21.7739 31.0616 23.0505 31.0635ZM23.0505 24.9042H29.209C30.4856 24.9033 31.5197 23.8693 31.5187 22.5953C31.5206 21.3212 30.4865 20.2873 29.2099 20.2854H23.0514C21.7748 20.2863 20.7407 21.3203 20.7417 22.5943C20.7407 23.8693 21.7739 24.9033 23.0505 24.9042Z" fill="#ECB22E"/>
<path fill-rule="evenodd" clip-rule="evenodd" d="M8.42432 22.5951C8.42337 23.8691 9.45749 24.903 10.7341 24.904C12.0107 24.903 13.0448 23.8691 13.0439 22.5951V20.2861H10.7341C9.45749 20.2871 8.42337 21.321 8.42432 22.5951ZM14.5828 22.5951V28.7535C14.5809 30.0275 15.615 31.0614 16.8916 31.0633C18.1682 31.0624 19.2023 30.0285 19.2014 28.7544V22.5969C19.2033 21.3229 18.1691 20.289 16.8925 20.2871C15.615 20.2871 14.5818 21.321 14.5828 22.5951C14.5828 22.596 14.5828 22.5951 14.5828 22.5951Z" fill="#E01E5A"/>
</svg>
