<svg width="117" height="118" viewBox="0 0 117 118" fill="none" xmlns="http://www.w3.org/2000/svg">
<mask id="path-1-inside-1_51_36408" fill="white">
<path d="M58.3727 7.70845C55.47 7.70845 52.6862 8.86153 50.6337 10.914C48.5812 12.9665 47.4282 15.7503 47.4282 18.653C47.4282 21.5556 48.5812 24.3394 50.6337 26.3919C52.6862 28.4444 55.47 29.5975 58.3727 29.5975C61.2753 29.5975 64.0591 28.4444 66.1116 26.3919C68.1641 24.3394 69.3172 21.5556 69.3172 18.653C69.3172 15.7503 68.1641 12.9665 66.1116 10.914C64.0591 8.86153 61.2753 7.70845 58.3727 7.70845ZM40.1318 18.653C40.1318 13.8152 42.0536 9.17555 45.4744 5.75473C48.8953 2.33391 53.5349 0.412109 58.3727 0.412109C63.2104 0.412109 67.8501 2.33391 71.2709 5.75473C74.6917 9.17555 76.6135 13.8152 76.6135 18.653C76.6135 23.4907 74.6917 28.1304 71.2709 31.5512C67.8501 34.972 63.2104 36.8938 58.3727 36.8938C53.5349 36.8938 48.8953 34.972 45.4744 31.5512C42.0536 28.1304 40.1318 23.4907 40.1318 18.653ZM98.5025 15.0048C96.5674 15.0048 94.7116 15.7735 93.3432 17.1418C91.9749 18.5102 91.2062 20.366 91.2062 22.3011C91.2062 24.2362 91.9749 26.0921 93.3432 27.4604C94.7116 28.8287 96.5674 29.5975 98.5025 29.5975C100.438 29.5975 102.293 28.8287 103.662 27.4604C105.03 26.0921 105.799 24.2362 105.799 22.3011C105.799 20.366 105.03 18.5102 103.662 17.1418C102.293 15.7735 100.438 15.0048 98.5025 15.0048ZM83.9098 22.3011C83.9098 18.4309 85.4473 14.7192 88.1839 11.9825C90.9206 9.24588 94.6323 7.70845 98.5025 7.70845C102.373 7.70845 106.084 9.24588 108.821 11.9825C111.558 14.7192 113.095 18.4309 113.095 22.3011C113.095 26.1713 111.558 29.883 108.821 32.6197C106.084 35.3564 102.373 36.8938 98.5025 36.8938C94.6323 36.8938 90.9206 35.3564 88.1839 32.6197C85.4473 29.883 83.9098 26.1713 83.9098 22.3011ZM10.9465 22.3011C10.9465 20.366 11.7152 18.5102 13.0835 17.1418C14.4518 15.7735 16.3077 15.0048 18.2428 15.0048C20.1779 15.0048 22.0338 15.7735 23.4021 17.1418C24.7704 18.5102 25.5391 20.366 25.5391 22.3011C25.5391 24.2362 24.7704 26.0921 23.4021 27.4604C22.0338 28.8287 20.1779 29.5975 18.2428 29.5975C16.3077 29.5975 14.4518 28.8287 13.0835 27.4604C11.7152 26.0921 10.9465 24.2362 10.9465 22.3011ZM18.2428 7.70845C14.3726 7.70845 10.6609 9.24588 7.92422 11.9825C5.18756 14.7192 3.65012 18.4309 3.65012 22.3011C3.65012 26.1713 5.18756 29.883 7.92422 32.6197C10.6609 35.3564 14.3726 36.8938 18.2428 36.8938C22.113 36.8938 25.8247 35.3564 28.5614 32.6197C31.298 29.883 32.8355 26.1713 32.8355 22.3011C32.8355 18.4309 31.298 14.7192 28.5614 11.9825C25.8247 9.24588 22.113 7.70845 18.2428 7.70845ZM22.6206 95.2499L21.891 95.2645C18.0207 95.2645 14.309 93.7271 11.5724 90.9904C8.83573 88.2537 7.29829 84.542 7.29829 80.6718V53.3106C7.29829 52.8268 7.49047 52.3628 7.83255 52.0207C8.17464 51.6787 8.6386 51.4865 9.12238 51.4865H21.9931C22.285 48.8087 23.2335 46.3207 24.6563 44.1901H9.12238C4.0879 44.1901 0.00195326 48.2761 0.00195326 53.3106V80.6718C0.00161264 83.7955 0.66985 86.8831 1.96176 89.7272C3.25367 92.5712 5.13934 95.1058 7.49204 97.1606C9.84475 99.2154 12.61 100.743 15.602 101.64C18.594 102.538 21.7434 102.785 24.8387 102.364C23.8584 100.074 23.1152 97.6907 22.6206 95.2499ZM91.9066 102.364C92.8697 102.495 93.8523 102.561 94.8543 102.561C100.66 102.561 106.227 100.255 110.332 96.1497C114.437 92.0447 116.743 86.4772 116.743 80.6718V53.3106C116.743 48.2761 112.657 44.1901 107.623 44.1901H92.089C93.5191 46.3207 94.4604 48.8087 94.7522 51.4865H107.623C108.107 51.4865 108.571 51.6787 108.913 52.0207C109.255 52.3628 109.447 52.8268 109.447 53.3106V80.6718C109.448 82.6499 109.046 84.6074 108.266 86.4255C107.487 88.2435 106.346 89.8841 104.913 91.2476C103.48 92.6111 101.785 93.669 99.93 94.357C98.0754 95.045 96.1003 95.3488 94.1247 95.2499C93.6301 97.6907 92.8869 100.074 91.9066 102.364ZM38.3077 44.1901C33.2733 44.1901 29.1873 48.2761 29.1873 53.3106V87.9682C29.1873 95.7086 32.2622 103.132 37.7355 108.605C43.2088 114.079 50.6322 117.154 58.3727 117.154C66.1131 117.154 73.5365 114.079 79.0098 108.605C84.4831 103.132 87.558 95.7086 87.558 87.9682V53.3106C87.558 48.2761 83.4721 44.1901 78.4376 44.1901H38.3077ZM36.4836 53.3106C36.4836 52.8268 36.6758 52.3628 37.0179 52.0207C37.36 51.6787 37.824 51.4865 38.3077 51.4865H78.4376C78.9214 51.4865 79.3853 51.6787 79.7274 52.0207C80.0695 52.3628 80.2617 52.8268 80.2617 53.3106V87.9682C80.2617 93.7735 77.9555 99.3411 73.8505 103.446C69.7455 107.551 64.178 109.857 58.3727 109.857C52.5673 109.857 46.9998 107.551 42.8948 103.446C38.7898 99.3411 36.4836 93.7735 36.4836 87.9682V53.3106Z"/>
</mask>
<path d="M58.3727 7.70845C55.47 7.70845 52.6862 8.86153 50.6337 10.914C48.5812 12.9665 47.4282 15.7503 47.4282 18.653C47.4282 21.5556 48.5812 24.3394 50.6337 26.3919C52.6862 28.4444 55.47 29.5975 58.3727 29.5975C61.2753 29.5975 64.0591 28.4444 66.1116 26.3919C68.1641 24.3394 69.3172 21.5556 69.3172 18.653C69.3172 15.7503 68.1641 12.9665 66.1116 10.914C64.0591 8.86153 61.2753 7.70845 58.3727 7.70845ZM40.1318 18.653C40.1318 13.8152 42.0536 9.17555 45.4744 5.75473C48.8953 2.33391 53.5349 0.412109 58.3727 0.412109C63.2104 0.412109 67.8501 2.33391 71.2709 5.75473C74.6917 9.17555 76.6135 13.8152 76.6135 18.653C76.6135 23.4907 74.6917 28.1304 71.2709 31.5512C67.8501 34.972 63.2104 36.8938 58.3727 36.8938C53.5349 36.8938 48.8953 34.972 45.4744 31.5512C42.0536 28.1304 40.1318 23.4907 40.1318 18.653ZM98.5025 15.0048C96.5674 15.0048 94.7116 15.7735 93.3432 17.1418C91.9749 18.5102 91.2062 20.366 91.2062 22.3011C91.2062 24.2362 91.9749 26.0921 93.3432 27.4604C94.7116 28.8287 96.5674 29.5975 98.5025 29.5975C100.438 29.5975 102.293 28.8287 103.662 27.4604C105.03 26.0921 105.799 24.2362 105.799 22.3011C105.799 20.366 105.03 18.5102 103.662 17.1418C102.293 15.7735 100.438 15.0048 98.5025 15.0048ZM83.9098 22.3011C83.9098 18.4309 85.4473 14.7192 88.1839 11.9825C90.9206 9.24588 94.6323 7.70845 98.5025 7.70845C102.373 7.70845 106.084 9.24588 108.821 11.9825C111.558 14.7192 113.095 18.4309 113.095 22.3011C113.095 26.1713 111.558 29.883 108.821 32.6197C106.084 35.3564 102.373 36.8938 98.5025 36.8938C94.6323 36.8938 90.9206 35.3564 88.1839 32.6197C85.4473 29.883 83.9098 26.1713 83.9098 22.3011ZM10.9465 22.3011C10.9465 20.366 11.7152 18.5102 13.0835 17.1418C14.4518 15.7735 16.3077 15.0048 18.2428 15.0048C20.1779 15.0048 22.0338 15.7735 23.4021 17.1418C24.7704 18.5102 25.5391 20.366 25.5391 22.3011C25.5391 24.2362 24.7704 26.0921 23.4021 27.4604C22.0338 28.8287 20.1779 29.5975 18.2428 29.5975C16.3077 29.5975 14.4518 28.8287 13.0835 27.4604C11.7152 26.0921 10.9465 24.2362 10.9465 22.3011ZM18.2428 7.70845C14.3726 7.70845 10.6609 9.24588 7.92422 11.9825C5.18756 14.7192 3.65012 18.4309 3.65012 22.3011C3.65012 26.1713 5.18756 29.883 7.92422 32.6197C10.6609 35.3564 14.3726 36.8938 18.2428 36.8938C22.113 36.8938 25.8247 35.3564 28.5614 32.6197C31.298 29.883 32.8355 26.1713 32.8355 22.3011C32.8355 18.4309 31.298 14.7192 28.5614 11.9825C25.8247 9.24588 22.113 7.70845 18.2428 7.70845ZM22.6206 95.2499L21.891 95.2645C18.0207 95.2645 14.309 93.7271 11.5724 90.9904C8.83573 88.2537 7.29829 84.542 7.29829 80.6718V53.3106C7.29829 52.8268 7.49047 52.3628 7.83255 52.0207C8.17464 51.6787 8.6386 51.4865 9.12238 51.4865H21.9931C22.285 48.8087 23.2335 46.3207 24.6563 44.1901H9.12238C4.0879 44.1901 0.00195326 48.2761 0.00195326 53.3106V80.6718C0.00161264 83.7955 0.66985 86.8831 1.96176 89.7272C3.25367 92.5712 5.13934 95.1058 7.49204 97.1606C9.84475 99.2154 12.61 100.743 15.602 101.64C18.594 102.538 21.7434 102.785 24.8387 102.364C23.8584 100.074 23.1152 97.6907 22.6206 95.2499ZM91.9066 102.364C92.8697 102.495 93.8523 102.561 94.8543 102.561C100.66 102.561 106.227 100.255 110.332 96.1497C114.437 92.0447 116.743 86.4772 116.743 80.6718V53.3106C116.743 48.2761 112.657 44.1901 107.623 44.1901H92.089C93.5191 46.3207 94.4604 48.8087 94.7522 51.4865H107.623C108.107 51.4865 108.571 51.6787 108.913 52.0207C109.255 52.3628 109.447 52.8268 109.447 53.3106V80.6718C109.448 82.6499 109.046 84.6074 108.266 86.4255C107.487 88.2435 106.346 89.8841 104.913 91.2476C103.48 92.6111 101.785 93.669 99.93 94.357C98.0754 95.045 96.1003 95.3488 94.1247 95.2499C93.6301 97.6907 92.8869 100.074 91.9066 102.364ZM38.3077 44.1901C33.2733 44.1901 29.1873 48.2761 29.1873 53.3106V87.9682C29.1873 95.7086 32.2622 103.132 37.7355 108.605C43.2088 114.079 50.6322 117.154 58.3727 117.154C66.1131 117.154 73.5365 114.079 79.0098 108.605C84.4831 103.132 87.558 95.7086 87.558 87.9682V53.3106C87.558 48.2761 83.4721 44.1901 78.4376 44.1901H38.3077ZM36.4836 53.3106C36.4836 52.8268 36.6758 52.3628 37.0179 52.0207C37.36 51.6787 37.824 51.4865 38.3077 51.4865H78.4376C78.9214 51.4865 79.3853 51.6787 79.7274 52.0207C80.0695 52.3628 80.2617 52.8268 80.2617 53.3106V87.9682C80.2617 93.7735 77.9555 99.3411 73.8505 103.446C69.7455 107.551 64.178 109.857 58.3727 109.857C52.5673 109.857 46.9998 107.551 42.8948 103.446C38.7898 99.3411 36.4836 93.7735 36.4836 87.9682V53.3106Z" fill="#8C8E96" stroke="#171921" stroke-width="2" mask="url(#path-1-inside-1_51_36408)"/>
</svg>
