<svg width="39" height="39" viewBox="0 0 39 39" fill="none" xmlns="http://www.w3.org/2000/svg">
<path d="M0.495605 14.997C0.495605 9.89452 0.495605 7.3433 1.48861 5.39442C2.36208 3.68014 3.75583 2.28639 5.47011 1.41292C7.41898 0.419922 9.9702 0.419922 15.0726 0.419922H23.9186C29.021 0.419922 31.5722 0.419922 33.5211 1.41292C35.2354 2.28639 36.6291 3.68014 37.5026 5.39442C38.4956 7.3433 38.4956 9.89452 38.4956 14.997V23.8429C38.4956 28.9453 38.4956 31.4965 37.5026 33.4454C36.6291 35.1597 35.2354 36.5535 33.5211 37.4269C31.5722 38.4199 29.021 38.4199 23.9186 38.4199H15.0726C9.9702 38.4199 7.41898 38.4199 5.47011 37.4269C3.75583 36.5535 2.36208 35.1597 1.48861 33.4454C0.495605 31.4965 0.495605 28.9453 0.495605 23.8429V14.997Z" fill="#F6F6F6"/>
<g clip-path="url(#clip0_28_37747)">
<path d="M9.25105 23.749L7.77654 24.2877L7.69727 28.6743L12.8017 26.8096C11.051 26.2216 9.7725 25.1869 9.25105 23.749Z" fill="#FDBD39"/>
<path d="M10.0229 19.1094L4.90674 20.9784L7.77671 24.2877L9.25122 23.749C8.73131 22.3154 9.05193 20.6948 10.0229 19.1094Z" fill="#F69833"/>
<path d="M18.6323 12.7796C12.1173 15.1596 7.91717 20.0706 9.25096 23.7489L32.8437 15.1301C31.5099 11.4518 25.1472 10.3995 18.6323 12.7793" fill="#FECF33"/>
<path d="M23.4625 26.0992C29.9774 23.7192 34.1855 18.8298 32.8437 15.1299L9.25098 23.7486C10.5927 27.4485 16.9476 28.4791 23.4625 26.0992Z" fill="#EE6723"/>
<path d="M32.8437 15.1299L9.25098 23.7488C9.71297 25.0227 11.4746 25.6503 13.9466 25.6503C16.3564 25.6503 19.4413 25.0543 22.6574 23.8794C29.1724 21.4994 33.7561 17.646 32.8437 15.1301" fill="#F69833"/>
<path d="M28.1487 13.2285C25.7387 13.2285 22.6538 13.8246 19.4377 14.9994C12.9229 17.3794 8.33913 21.2328 9.25145 23.7488L32.8442 15.13C32.3823 13.8561 30.6205 13.2285 28.1487 13.2285Z" fill="#FDBD39"/>
<path d="M26.8455 28.9064H26.8452C26.1511 28.9064 25.1271 28.2794 23.8015 27.0428C22.2332 25.5798 20.4368 23.4371 18.7431 21.0092C17.0494 18.5814 15.6577 16.1543 14.8243 14.1748C13.9163 12.0176 13.7868 10.6911 14.4395 10.2324C14.5826 10.1319 14.7552 10.0811 14.9522 10.0811C15.4831 10.0811 16.5175 10.4763 18.4303 12.3594L18.4722 12.4006L18.4665 12.4591C18.4534 12.5942 18.4414 12.7295 18.4306 12.8648L18.4093 13.1308L18.2216 12.9418C16.1607 10.8654 15.2534 10.6413 14.959 10.6413C14.875 10.6413 14.8081 10.6583 14.7602 10.692C14.4771 10.891 14.4589 11.8652 15.3392 13.9564C16.1577 15.9006 17.5291 18.2912 19.201 20.6874C20.8729 23.0839 22.6417 25.195 24.1821 26.6319C25.8429 28.1811 26.5913 28.3484 26.836 28.3484C26.9204 28.3484 26.9891 28.3303 27.04 28.2944C27.3387 28.0847 27.3391 27.041 26.3574 24.7902L26.3122 24.6869L26.411 24.6329C26.5096 24.5789 26.6051 24.5257 26.6945 24.4748L26.8128 24.4077L26.8672 24.5324C27.5632 26.1273 28.2139 28.1543 27.3607 28.7541C27.217 28.8551 27.0437 28.9064 26.8455 28.9064ZM26.8452 28.6603H26.8455L26.8454 28.7833L26.8452 28.6603Z" fill="#EE6723"/>
<path d="M23.6206 26.0321L23.6107 26.1547C23.446 28.1927 23.0123 30.643 21.8815 30.742C21.8589 30.7441 21.8353 30.7451 21.8116 30.7451C21.0435 30.7451 20.3167 29.6445 19.6517 27.4739C19.0224 25.4204 18.5342 22.6632 18.2767 19.7102C18.0193 16.7578 18.0232 13.9573 18.2875 11.8248C18.5759 9.50092 19.1244 8.28724 19.9182 8.21766C19.9417 8.21546 19.9661 8.21436 19.9901 8.21436C20.5473 8.21436 21.3872 8.84525 22.2469 11.7844L21.6856 11.8927C21.3985 10.9106 21.0856 10.1118 20.775 9.56291C20.4877 9.05522 20.2084 8.77566 19.9885 8.77566C19.9813 8.77566 19.974 8.77589 19.9668 8.77644C19.6228 8.80671 19.1217 9.6413 18.8422 11.894C18.5826 13.9884 18.5794 16.7469 18.8334 19.6613C19.0877 22.5762 19.5679 25.2922 20.1859 27.3091C20.4626 28.2123 20.7662 28.9567 21.0638 29.4619C21.3382 29.9276 21.6037 30.1841 21.8114 30.1841C21.8187 30.1841 21.8257 30.1838 21.8329 30.1833C22.1621 30.1544 22.7825 29.2859 23.0436 26.2301L23.6206 26.0321Z" fill="#EE6723"/>
</g>
<defs>
<clipPath id="clip0_28_37747">
<rect width="28.1866" height="22.5713" fill="white" transform="translate(4.90674 8.21436)"/>
</clipPath>
</defs>
</svg>
