<svg width="31" height="31" viewBox="0 0 31 31" fill="none" xmlns="http://www.w3.org/2000/svg">
<g clip-path="url(#clip0_19_3772)">
<path d="M15.7756 30.3643C23.9527 30.3643 30.5815 23.7354 30.5815 15.5583C30.5815 7.38127 23.9527 0.752441 15.7756 0.752441C7.59856 0.752441 0.969727 7.38127 0.969727 15.5583C0.969727 23.7354 7.59856 30.3643 15.7756 30.3643Z" fill="#FC521F"/>
<path d="M19.2646 22.3847L16.906 21.0234L24.0016 16.9306C24.2726 16.7742 24.5292 16.5942 24.7685 16.3927C25.691 17.7059 25.7815 19.4352 24.9594 20.8593C24.5916 21.4924 24.0642 22.018 23.4298 22.3835C22.7954 22.7491 22.0763 22.9419 21.3441 22.9427C20.614 22.942 19.8968 22.7495 19.2646 22.3843V22.3847ZM18.6963 23.3679C18.9674 23.5246 19.2518 23.6571 19.5462 23.7637C18.8687 25.2177 17.4156 26.1604 15.7693 26.1604C13.4715 26.1604 11.6009 24.292 11.6009 21.9956V13.8093L15.201 15.887V21.0239C15.2011 21.1236 15.2274 21.2215 15.2773 21.3077C15.3272 21.394 15.3989 21.4656 15.4852 21.5154L18.6963 23.3679ZM10.2057 22.942C9.47387 22.9412 8.75508 22.7486 8.12101 22.3833C7.48694 22.018 6.95977 21.4927 6.59209 20.86C6.31712 20.3869 6.13879 19.864 6.06745 19.3215C5.99611 18.7789 6.03317 18.2276 6.17648 17.6995C6.31669 17.1704 6.56052 16.6743 6.89386 16.24C7.2272 15.8058 7.64341 15.442 8.11837 15.1698L10.4763 13.8092L10.4767 21.9941C10.4764 22.3073 10.5037 22.6198 10.5583 22.9282C10.441 22.9375 10.3229 22.9421 10.2055 22.9421M19.381 12.8257L15.7819 14.902L11.329 12.3339C11.2427 12.2842 11.1447 12.2581 11.0451 12.2581C10.9454 12.2581 10.8475 12.2842 10.7611 12.3339L7.55007 14.186C7.27859 14.3419 7.02166 14.5218 6.78236 14.7236C5.8607 13.4107 5.77059 11.6811 6.59197 10.2569C6.95968 9.6238 7.48701 9.09821 8.12133 8.73258C8.75565 8.36695 9.47477 8.17408 10.2069 8.17322C10.9332 8.17322 11.6524 8.36685 12.2865 8.73225L19.381 12.8257ZM15.7692 4.95605C18.0682 4.95605 19.9378 6.82461 19.9378 9.12207V11.8433L12.8441 7.7509C12.5728 7.59372 12.288 7.46099 11.9931 7.35426C12.6703 5.89935 14.1241 4.95605 15.7692 4.95605ZM24.959 10.2582C26.1077 12.2475 25.4235 14.7998 23.4326 15.9484L16.338 20.0408V15.8877L20.7906 13.3186C20.877 13.2689 20.9489 13.1973 20.9988 13.111C21.0488 13.0247 21.0751 12.9267 21.0752 12.827V9.12207C21.0752 8.80929 21.0468 8.49756 20.993 8.19045C21.782 8.12468 22.5734 8.28405 23.2754 8.65005C23.9775 9.01606 24.5612 9.57369 24.959 10.2582Z" fill="white"/>
</g>
<defs>
<clipPath id="clip0_19_3772">
<rect width="29.6118" height="29.6118" fill="white" transform="translate(0.970215 0.752441)"/>
</clipPath>
</defs>
</svg>
