<svg width="39" height="39" viewBox="0 0 39 39" fill="none" xmlns="http://www.w3.org/2000/svg">
<path d="M0.704102 15.0394C0.704102 9.937 0.704102 7.38578 1.6971 5.4369C2.57057 3.72262 3.96432 2.32887 5.6786 1.4554C7.62748 0.462402 10.1787 0.462402 15.2811 0.462402H24.1271C29.2295 0.462402 31.7807 0.462402 33.7296 1.4554C35.4439 2.32887 36.8376 3.72262 37.7111 5.4369C38.7041 7.38578 38.7041 9.937 38.7041 15.0394V23.8854C38.7041 28.9878 38.7041 31.539 37.7111 33.4879C36.8376 35.2022 35.4439 36.5959 33.7296 37.4694C31.7807 38.4624 29.2295 38.4624 24.1271 38.4624H15.2811C10.1787 38.4624 7.62748 38.4624 5.6786 37.4694C3.96432 36.5959 2.57057 35.2022 1.6971 33.4879C0.704102 31.539 0.704102 28.9878 0.704102 23.8854V15.0394Z" fill="#F6F6F6"/>
<g clip-path="url(#clip0_19_3761)">
<path d="M29.8924 4.8928L28.2674 4.9941L28.394 8.37325C28.4006 8.56011 28.1851 8.66917 28.0382 8.55329L26.95 7.6954L25.6608 8.67363C25.6276 8.69884 25.5879 8.71408 25.5464 8.71756C25.5048 8.72104 25.4632 8.71263 25.4262 8.6933C25.3893 8.67397 25.3586 8.64453 25.3378 8.60842C25.317 8.5723 25.3069 8.53101 25.3087 8.48936L25.4537 5.16991L9.33287 6.17799C8.9494 6.20188 8.59045 6.37474 8.33267 6.65966C8.0749 6.94457 7.93871 7.31897 7.9532 7.70292L8.86045 31.8738C8.8743 32.2431 9.02653 32.5937 9.28691 32.856C9.54729 33.1182 9.89678 33.273 10.266 33.2895L29.918 34.1718C30.1167 34.1806 30.3151 34.1491 30.5012 34.0792C30.6874 34.0093 30.8575 33.9025 31.0013 33.7652C31.1452 33.6279 31.2597 33.4628 31.3379 33.2799C31.4161 33.0971 31.4564 32.9003 31.4564 32.7014V6.36226C31.4565 6.16115 31.4153 5.96214 31.3355 5.77756C31.2556 5.59297 31.1388 5.42672 30.9922 5.28907C30.8457 5.15135 30.6725 5.04513 30.4834 4.97697C30.2942 4.90881 30.0931 4.88017 29.8924 4.8928ZM20.1477 9.87256C23.9807 9.87256 26.074 11.9228 26.074 15.8235C25.556 16.2261 21.6976 16.5004 21.6976 15.9276C21.7789 13.7418 20.8004 13.6461 20.2568 13.6461C19.7402 13.6461 18.8703 13.8017 18.8703 14.9727C18.8703 17.8608 26.3187 17.705 26.3187 23.5337C26.3187 26.8125 23.6545 28.6235 20.2568 28.6235C16.75 28.6235 13.6858 27.2048 14.0318 22.2861C14.1676 21.7086 18.6256 21.8459 18.6256 22.2861C18.5715 24.3157 19.0334 24.9127 20.202 24.9127C21.0991 24.9127 21.5072 24.4184 21.5072 23.5857C21.5072 20.6192 14.1676 20.5154 14.1676 15.077C14.1676 11.9545 16.3152 9.87256 20.1477 9.87256Z" fill="#FF4785"/>
</g>
<defs>
<clipPath id="clip0_19_3761">
<rect width="30.085" height="30.085" fill="white" transform="translate(4.66113 4.41992)"/>
</clipPath>
</defs>
</svg>
