<svg width="39" height="39" viewBox="0 0 39 39" fill="none" xmlns="http://www.w3.org/2000/svg">
<path d="M7.50563 0.516357H32.0471C35.7681 0.516357 38.7764 3.60173 38.7764 7.41817V31.6145C38.7764 35.431 35.7681 38.5164 32.0471 38.5164H7.50563C3.7846 38.5164 0.776367 35.431 0.776367 31.6145V7.41817C0.776367 3.60173 3.7846 0.516357 7.50563 0.516357Z" fill="#4A8CFF"/>
<g clip-path="url(#clip0_12_6364)">
<mask id="mask0_12_6364" style="mask-type:luminance" maskUnits="userSpaceOnUse" x="-28" y="-25" width="157" height="89">
<path d="M-27.8535 -24.3518H128.575V63.5611H-27.8535V-24.3518Z" fill="white"/>
</mask>
<g mask="url(#mask0_12_6364)">
<mask id="mask1_12_6364" style="mask-type:luminance" maskUnits="userSpaceOnUse" x="4" y="4" width="32" height="32">
<path d="M20.1698 35.1353C28.7472 35.1353 35.7005 28.182 35.7005 19.6047C35.7005 11.0273 28.7472 4.07397 20.1698 4.07397C11.5925 4.07397 4.63916 11.0273 4.63916 19.6047C4.63916 28.182 11.5925 35.1353 20.1698 35.1353Z" fill="white"/>
</mask>
<g mask="url(#mask1_12_6364)">
<path d="M3.87793 3.31274H36.4619V35.8967H3.87793V3.31274Z" fill="white"/>
</g>
<mask id="mask2_12_6364" style="mask-type:luminance" maskUnits="userSpaceOnUse" x="5" y="5" width="30" height="29">
<path d="M20.1703 33.996C28.1184 33.996 34.5617 27.5528 34.5617 19.6046C34.5617 11.6564 28.1184 5.21313 20.1703 5.21313C12.2221 5.21313 5.77881 11.6564 5.77881 19.6046C5.77881 27.5528 12.2221 33.996 20.1703 33.996Z" fill="white"/>
</mask>
<g mask="url(#mask2_12_6364)">
<path d="M3.84814 3.28247H36.4927V35.927H3.84814V3.28247Z" fill="#4A8CFF"/>
</g>
<mask id="mask3_12_6364" style="mask-type:luminance" maskUnits="userSpaceOnUse" x="10" y="14" width="20" height="11">
<path d="M24.5499 17.7372L28.6171 14.765C28.9722 14.4756 29.2428 14.5429 29.2428 15.0779V24.1414C29.2428 24.742 28.9049 24.6732 28.6171 24.4542L24.5499 21.4821V17.7372ZM10.7842 15.0998V21.8575C10.7879 22.5911 11.0828 23.2933 11.6041 23.8096C12.1253 24.3258 12.8303 24.614 13.5639 24.6106H23.4189C23.5522 24.6111 23.6803 24.5586 23.775 24.4648C23.8697 24.3709 23.9234 24.2434 23.9242 24.1101V17.3524C23.9205 16.6187 23.6256 15.9166 23.1043 15.4003C22.583 14.884 21.8781 14.5959 21.1445 14.5992H11.2894C11.1561 14.5988 11.0281 14.6512 10.9334 14.7451C10.8387 14.8389 10.785 14.9665 10.7842 15.0998Z" fill="white"/>
</mask>
<g mask="url(#mask3_12_6364)">
<path d="M10.002 13.8167H30.0248V25.3924H10.002V13.8167Z" fill="white"/>
</g>
</g>
</g>
<defs>
<clipPath id="clip0_12_6364">
<rect width="33" height="33" fill="white" transform="translate(4 3.01636)"/>
</clipPath>
</defs>
</svg>
